<svg xmlns="http://www.w3.org/2000/svg" width="461" height="461" viewBox="0 0 461 461" fill="none"><g filter="url(#a)" opacity=".7"><circle cx="230.5" cy="226.5" r="226.5" fill="url(#b)"/><path fill="#fff" d="M207.293 317.471a15.317 15.317 0 1 1-30.634.002 15.317 15.317 0 0 1 30.634-.002Zm84.241-15.316a15.316 15.316 0 1 0 0 30.632 15.316 15.316 0 0 0 0-30.632Zm44.457-127.08a7.653 7.653 0 0 0-6.165-3.111H161.65l-7.764-27.187a15.394 15.394 0 0 0-14.733-11.105h-16.101a7.658 7.658 0 1 0 0 15.317h16.101l34.635 121.183a23.084 23.084 0 0 0 22.085 16.666h92.004a22.873 22.873 0 0 0 21.961-16.216l27.311-88.75a7.66 7.66 0 0 0-1.158-6.797Z"/></g><defs><linearGradient id="b" x1="230.5" x2="230.5" y1="0" y2="453" gradientUnits="userSpaceOnUse"><stop stop-color="#F7C700"/><stop offset="1" stop-color="#FB9F82"/></linearGradient><filter id="a" width="461" height="461" x="0" y="0" color-interpolation-filters="sRGB" filterUnits="userSpaceOnUse"><feFlood flood-opacity="0" result="BackgroundImageFix"/><feColorMatrix in="SourceAlpha" result="hardAlpha" values="0 0 0 0 0 0 0 0 0 0 0 0 0 0 0 0 0 0 127 0"/><feOffset dy="4"/><feGaussianBlur stdDeviation="2"/><feComposite in2="hardAlpha" operator="out"/><feColorMatrix values="0 0 0 0 0 0 0 0 0 0 0 0 0 0 0 0 0 0 0.25 0"/><feBlend in2="BackgroundImageFix" result="effect1_dropShadow_21_170"/><feBlend in="SourceGraphic" in2="effect1_dropShadow_21_170" result="shape"/></filter></defs></svg>