<svg xmlns="http://www.w3.org/2000/svg" width="1870" height="1882" fill="none"><path fill="url(#a)" d="M1263.24 300.952c36.2 0 65.55-29.384 65.55-65.632 0-36.247-29.35-65.631-65.55-65.631-36.19 0-65.54 29.384-65.54 65.631 0 36.248 29.35 65.632 65.54 65.632Z"/><path fill="url(#b)" d="M89.691 881.387c46.824 0 84.783-38.011 84.783-84.899s-37.959-84.899-84.783-84.899S4.91 749.6 4.91 796.488s37.958 84.899 84.782 84.899Z"/><path fill="url(#c)" d="M247.525 1820.59c46.824 0 84.783-38.01 84.783-84.9 0-46.88-37.959-84.9-84.783-84.9s-84.782 38.02-84.782 84.9c0 46.89 37.958 84.9 84.782 84.9Z"/><path fill="url(#d)" d="M376.063 312.344c32.68 0 59.172-26.528 59.172-59.253s-26.492-59.253-59.172-59.253c-32.68 0-59.172 26.528-59.172 59.253s26.492 59.253 59.172 59.253Z"/><path fill="url(#e)" d="m1512.8 176.591-414.11 126.468-9.76-32.024 414.12-126.468 9.75 32.024Z"/><path fill="url(#f)" d="m1534.33 247.238-414.12 126.468-9.75-32.024 414.12-126.468 9.75 32.024Z"/><path fill="url(#g)" d="m1555.85 317.885-414.12 126.468-9.75-32.068 414.11-126.468 9.76 32.068Z"/><path fill="url(#h)" d="m1493.96 1748.93-390.09-188.09 14.54-30.18 390.05 188.14-14.5 30.13Z"/><path fill="url(#i)" d="m1461.94 1815.49-390.05-188.14 14.5-30.14 390.09 188.1-14.54 30.18Z"/><path fill="url(#j)" d="m1429.96 1882-390.09-188.1 14.54-30.17 390.04 188.14-14.49 30.13Z"/><path fill="url(#k)" d="M1524.31 980.754c117.79 0 213.28-95.616 213.28-213.566 0-117.949-95.49-213.566-213.28-213.566s-213.27 95.617-213.27 213.566c0 117.95 95.48 213.566 213.27 213.566Z"/><mask id="l" width="811" height="548" x="89" y="932" maskUnits="userSpaceOnUse" style="mask-type:luminance"><path fill="#fff" d="m96.894 936.458 802.535 543.352a50.746 50.746 0 0 0-7.248-4.09L89.689 932.367a50.145 50.145 0 0 1 7.205 4.091Z"/></mask><g mask="url(#l)"><path fill="#034B93" d="M892.225 1475.72 89.689 932.367a53.14 53.14 0 0 1 7.249 4.091l802.535 543.352a53.328 53.328 0 0 0-7.248-4.09Z"/></g><path fill="url(#m)" d="M892.224 1475.72c29.124 13.59 39.711 50.5 23.633 82.39s-52.67 46.72-81.795 33.12c-29.125-13.59-39.712-50.45-23.678-82.34 16.078-31.94 52.715-46.76 81.84-33.17Z"/><path fill="url(#n)" d="M810.427 1508.84c.791-1.58 1.669-3.08 2.548-4.57l.922-1.59a65.472 65.472 0 0 1 3.383-4.92c1.625-2.16 3.382-4.14 5.183-6.07.528-.58 1.055-1.06 1.582-1.63 1.318-1.32 2.679-2.55 4.041-3.74.571-.48 1.098-.92 1.67-1.41 1.976-1.54 3.997-3.03 6.062-4.35a62.476 62.476 0 0 1 4.7-2.69c.439-.22.879-.44 1.362-.66 1.098-.57 2.24-1.05 3.382-1.54.791-.35 1.582-.66 2.417-.96 1.01-.4 2.02-.75 3.031-1.06.834-.26 1.625-.53 2.46-.75 1.142-.3 2.284-.61 3.47-.88.571-.13 1.142-.26 1.713-.35 1.582-.31 3.207-.53 4.788-.7.176 0 .352-.05.528-.09 1.757-.18 3.558-.26 5.359-.26.527 0 1.054.04 1.625.04 1.274.04 2.504.09 3.778.22.615.04 1.274.13 1.889.22 1.186.13 2.416.35 3.602.57.571.13 1.186.22 1.757.35 1.45.31 2.856.75 4.261 1.19.308.09.659.18.967.27 1.801.61 3.602 1.31 5.403 2.15L89.687 932.368c-.263-.132-.483-.22-.747-.352-1.537-.704-3.075-1.276-4.656-1.848-.308-.088-.659-.176-.967-.308a68.227 68.227 0 0 0-4.26-1.187c-.572-.132-1.187-.22-1.758-.352-1.186-.22-2.372-.44-3.602-.572-.615-.088-1.23-.132-1.889-.22-1.274-.132-2.504-.176-3.778-.22-.527 0-1.054-.044-1.625-.044-1.801 0-3.558.088-5.315.264-.176 0-.352.044-.528.088a57.021 57.021 0 0 0-4.788.704c-.57.088-1.142.264-1.713.352-.747.176-1.494.308-2.24.484-.44.088-.835.264-1.23.396-.835.22-1.626.483-2.46.747l-3.032 1.056c-.79.308-1.581.616-2.416.968-.439.176-.922.352-1.361.528-.703.308-1.362.66-2.065 1.011l-1.318.66a67.474 67.474 0 0 0-4.569 2.596c-.043.044-.087.044-.131.088-2.109 1.319-4.086 2.771-6.062 4.355-.176.175-.396.263-.616.439-.35.308-.702.66-1.054.968-1.405 1.188-2.767 2.42-4.041 3.739-.352.308-.703.616-1.01.924-.22.22-.396.44-.572.66a76.152 76.152 0 0 0-5.183 6.026l-.044.044a56.246 56.246 0 0 0-3.339 4.883l-.922 1.584c-.527.879-1.055 1.715-1.538 2.639-.351.616-.659 1.276-1.01 1.936C-6.78 994.48.73 1027.69 24.278 1043.62l802.534 543.35c-23.502-15.84-31.057-49.05-16.385-78.13Z"/><path fill="url(#o)" d="M571.851 1661c108.035 0 195.615-87.7 195.615-195.88 0-108.19-87.58-195.89-195.615-195.89-108.035 0-195.615 87.7-195.615 195.89 0 108.18 87.58 195.88 195.615 195.88Z"/><path fill="url(#p)" d="M838.851 878.044c140.982 0 255.269-114.445 255.269-255.62S979.833 366.805 838.851 366.805s-255.27 114.444-255.27 255.619 114.288 255.62 255.27 255.62Z"/><path fill="url(#q)" d="m948.714 284.237 134.776 428.76-387.454 180.926-134.774-428.804 387.452-180.882Z"/><path fill="url(#r)" d="m696.038 893.924-268.449-65.148-134.774-428.76 268.449 65.104 134.774 428.804Z"/><path fill="url(#s)" d="m561.264 465.118-268.449-65.103 387.452-180.927 268.449 65.148-387.452 180.882Z"/><path fill="url(#t)" d="M1165.89 1587.1c167.21 0 302.76-135.74 302.76-303.17 0-167.44-135.55-303.175-302.76-303.175-167.206 0-302.755 135.735-302.755 303.175 0 167.43 135.549 303.17 302.755 303.17Z"/><path fill="url(#u)" d="m859.405 923.614 344.485 36.247-116.58 392.649-344.492-36.25 116.587-392.646Z"/><path fill="url(#v)" d="m978.189 1484.51-235.371-168.25 344.492 36.24 235.32 168.26-344.441-36.25Z"/><path fill="url(#w)" d="m1322.63 1520.76-235.32-168.25 116.58-392.649 235.33 168.299-116.59 392.6Z"/><path fill="url(#x)" d="m682.503 1422.54-182.041 251.04L213.52 1507.7l182.04-251.05 286.943 165.89Z"/><path fill="url(#y)" d="m213.52 1507.7 10.982-148.2 182.085-251.04-11.027 148.19-182.04 251.05Z"/><path fill="url(#z)" d="m395.558 1256.65 11.026-148.19 286.899 165.88-10.983 148.2-286.942-165.89Z"/><path fill="url(#A)" d="m1858.26 1543.15-129.11 177.98-203.43-117.62 129.11-177.98 203.43 117.62Z"/><path fill="url(#B)" d="m1525.72 1603.51 7.77-105.09 129.11-177.98-7.77 105.09-129.11 177.98Z"/><path fill="url(#C)" d="m1654.83 1425.53 7.77-105.09 203.44 117.62-7.78 105.09-203.43-117.62Z"/><path fill="url(#D)" d="M1492.68 601.305c-15.29-18.255-40.59-27.845-70.15-23.71-2.9.396-5.76.968-8.57 1.628-.84.176-1.67.396-2.5.615-1.06.264-2.11.484-3.17.792-1.27.352-2.5.748-3.73 1.188-.4.132-.75.22-1.14.352-2.02.704-4.09 1.408-6.07 2.199-.44.176-.87.396-1.31.616-1.41.572-2.82 1.232-4.22 1.892-1.06.484-2.11.879-3.12 1.407-.48.264-.97.528-1.49.792a71.35 71.35 0 0 0-3.21 1.76c-.92.528-1.89.967-2.77 1.495-.74.44-1.4.924-2.15 1.364-.92.572-1.85 1.144-2.77 1.76-.61.395-1.23.747-1.84 1.143-1.14.748-2.2 1.584-3.3 2.376-.7.527-1.45 1.011-2.15 1.539-.26.22-.53.396-.79.572-2.02 1.54-4 3.167-5.93 4.839-.04.044-.09.088-.13.132-.27.22-.53.484-.79.704a88.045 88.045 0 0 0-4.75 4.399c-.31.307-.61.615-.92.923-.7.704-1.41 1.452-2.11 2.2-.83.88-1.67 1.715-2.46 2.595-.48.572-.97 1.144-1.45 1.716-.79.923-1.58 1.847-2.33 2.771-.52.66-1.1 1.232-1.58 1.891-.57.704-1.05 1.496-1.62 2.244a94.956 94.956 0 0 0-2.55 3.519c-.4.572-.84 1.1-1.19 1.628-.44.659-.79 1.363-1.23 2.023-1.14 1.76-2.19 3.563-3.25 5.367-.39.66-.83 1.275-1.18 1.935-.4.704-.71 1.452-1.1 2.2-.49.967-.97 1.935-1.45 2.947-.84 1.716-1.58 3.475-2.33 5.235a64.2 64.2 0 0 0-1.14 2.771c-.13.352-.31.748-.44 1.1-.79 2.155-1.5 4.355-2.15 6.554-.14.396-.22.836-.31 1.232-.62 2.287-1.19 4.575-1.63 6.862-.13.704-.26 1.452-.39 2.155-.49 2.684-.88 5.411-1.1 8.094-.09 1.012-.13 2.024-.18 2.992-.04.791 0 1.583 0 2.419 0 1.144-.04 2.331 0 3.475.05 1.276.14 2.551.22 3.827l.27 3.299c.04.396.04.792.08 1.188.22 1.584.49 3.123.8 4.663 0 .088.04.176.04.264.26 1.407.57 2.771.97 4.135.08.352.26.704.35 1.099.39 1.408.88 2.772 1.36 4.135.22.66.39 1.32.66 1.98.09.264.22.484.35.748.44 1.055.92 2.067 1.4 3.123.36.748.66 1.54 1.02 2.287.13.22.26.44.39.704.44.88.97 1.716 1.45 2.552.44.747.79 1.495 1.27 2.243.18.264.36.528.53.792.53.792 1.06 1.539 1.63 2.287.44.66.88 1.32 1.36 1.936.44.572.92 1.143 1.4 1.715l51.36 61.409c-.97-1.188-1.85-2.42-2.77-3.651-.53-.748-1.1-1.496-1.63-2.288-.65-.967-1.23-1.979-1.8-2.991-.48-.836-1.01-1.672-1.45-2.551-.52-.968-.96-1.98-1.4-2.992a61.08 61.08 0 0 1-1.41-3.123 45.11 45.11 0 0 1-.96-2.727c-.49-1.364-.97-2.727-1.37-4.179-.48-1.716-.92-3.431-1.27-5.191 0-.088-.04-.176-.04-.264-.4-1.891-.66-3.871-.88-5.85-.13-1.1-.22-2.2-.31-3.343-.09-1.276-.18-2.508-.22-3.827-.04-1.144 0-2.288 0-3.475.04-1.804.04-3.564.22-5.411.22-2.727.61-5.411 1.1-8.094.13-.704.26-1.452.39-2.156.44-2.287 1.01-4.574 1.63-6.862.13-.396.22-.836.31-1.231.74-2.596 1.62-5.103 2.59-7.655.35-.923.74-1.847 1.14-2.771.75-1.759 1.49-3.519 2.33-5.234.48-.968.96-1.98 1.45-2.948.7-1.407 1.49-2.771 2.28-4.135a97.933 97.933 0 0 1 3.25-5.366c.79-1.232 1.58-2.464 2.42-3.651.83-1.188 1.67-2.332 2.55-3.52a157.26 157.26 0 0 1 3.2-4.135c.75-.923 1.54-1.847 2.33-2.771 1.28-1.451 2.59-2.903 3.91-4.311.7-.748 1.41-1.495 2.11-2.199 1.8-1.804 3.69-3.607 5.62-5.323.27-.22.53-.484.79-.748 2.2-1.935 4.53-3.783 6.86-5.542.7-.528 1.4-1.012 2.15-1.54 1.71-1.232 3.43-2.419 5.14-3.563a84.48 84.48 0 0 1 2.77-1.76c1.62-1.011 3.25-1.935 4.92-2.859 1.05-.572 2.15-1.188 3.2-1.759 1.5-.792 3.08-1.496 4.62-2.2 1.4-.66 2.81-1.319 4.21-1.891 2.46-1.012 4.92-1.98 7.43-2.816.39-.132.74-.22 1.14-.352 2.28-.747 4.57-1.363 6.9-1.979.83-.22 1.67-.44 2.54-.616 2.86-.66 5.67-1.188 8.57-1.627 29.56-4.179 54.87 5.41 70.15 23.71l-51.48-61.321Z"/><path fill="url(#E)" d="M1680.88 685.545c.04-1.539.09-3.079.09-4.618 0-1.32-.05-2.596-.09-3.915-.05-1.496-.09-2.992-.13-4.487-.05-1.276-.18-2.552-.27-3.871-.09-1.452-.22-2.948-.35-4.399-.13-1.276-.26-2.552-.39-3.783-.09-.924-.18-1.892-.31-2.816-.05-.395-.13-.747-.18-1.143-.44-3.036-.88-6.027-1.45-8.93-.04-.22-.08-.396-.08-.616-.62-3.123-1.37-6.246-2.16-9.282-.09-.307-.13-.615-.22-.923l-.66-2.244c-.44-1.583-.92-3.211-1.4-4.794-.35-1.1-.7-2.2-1.1-3.3a166.88 166.88 0 0 0-1.63-4.574c-.21-.572-.39-1.144-.61-1.716-.22-.572-.48-1.144-.7-1.716-.49-1.231-1.01-2.419-1.5-3.607-.48-1.187-1.01-2.331-1.53-3.475-.53-1.188-1.1-2.331-1.67-3.519-.31-.616-.57-1.232-.88-1.847-.27-.572-.57-1.1-.88-1.628-.53-1.012-1.1-2.068-1.67-3.079-.66-1.144-1.27-2.288-1.98-3.431a60.632 60.632 0 0 0-1.8-2.948c-.31-.484-.61-1.011-.92-1.495-.4-.616-.83-1.232-1.23-1.848-.62-.924-1.19-1.803-1.85-2.727-.74-1.1-1.53-2.2-2.37-3.299a52.56 52.56 0 0 0-1.93-2.596c-.26-.352-.48-.703-.75-1.011-1.05-1.32-2.11-2.64-3.2-3.959l-51.36-61.409c1.36 1.628 2.68 3.299 3.96 4.971.66.836 1.27 1.715 1.93 2.595l2.37 3.299c.62.88 1.23 1.804 1.85 2.728a92.686 92.686 0 0 1 2.15 3.387c.61.968 1.19 1.979 1.8 2.947l1.98 3.431c.57 1.012 1.1 2.024 1.67 3.079a90.948 90.948 0 0 1 1.75 3.476 78.464 78.464 0 0 1 1.67 3.519 104.43 104.43 0 0 1 1.54 3.475c.53 1.187 1.01 2.419 1.49 3.607.44 1.144.88 2.243 1.32 3.387.57 1.496 1.1 3.035 1.63 4.575.35 1.1.74 2.199 1.1 3.299.48 1.584.96 3.167 1.4 4.751.31 1.056.62 2.111.88 3.167.79 3.035 1.49 6.114 2.15 9.282.05.22.09.44.13.66.58 2.947 1.06 5.894 1.45 8.929.18 1.32.36 2.64.49 3.959.13 1.276.3 2.552.39 3.827.13 1.452.22 2.904.35 4.355.09 1.276.18 2.596.27 3.871.09 1.496.09 2.991.13 4.487.04 1.32.09 2.595.09 3.915 0 1.496-.05 3.035-.09 4.575-.04 1.32-.04 2.639-.09 3.959-.09 2.639-.26 5.235-.48 7.918-.27 3.123-.62 6.246-1.01 9.37-.09.835-.22 1.671-.35 2.507-.4 2.683-.79 5.323-1.28 7.962-.09.484-.17 1.012-.26 1.496-.57 3.079-1.23 6.158-1.93 9.193-.18.748-.36 1.54-.58 2.288-.61 2.507-1.27 4.97-1.93 7.434-.17.704-.39 1.407-.57 2.111-.88 3.035-1.8 6.027-2.81 9.018l-.66 1.848c-.79 2.331-1.67 4.618-2.55 6.95a87.72 87.72 0 0 1-1.36 3.475c-.79 2.023-1.67 4.047-2.55 6.07-.44 1.056-.92 2.156-1.36 3.212-1.05 2.375-2.2 4.794-3.34 7.126-.3.66-.61 1.319-.92 1.935-1.45 2.991-2.99 5.895-4.61 8.842-1.89 3.431-3.82 6.862-5.85 10.205-.39.66-.83 1.32-1.23 1.98-1.66 2.683-3.33 5.367-5.13 8.05-1.1 1.671-2.29 3.343-3.43 4.971-.88 1.231-1.71 2.507-2.64 3.739-1.27 1.759-2.59 3.475-3.86 5.19-.88 1.144-1.72 2.288-2.59 3.432-2.11 2.727-4.31 5.41-6.55 8.05-.35.439-.75.835-1.1 1.275-1.8 2.156-3.64 4.267-5.53 6.335-3.56 3.915-7.25 7.742-11.03 11.525-.83.791-1.62 1.627-2.46 2.419-3.73 3.607-7.55 7.17-11.51 10.601-.31.264-.61.528-.92.792a292.199 292.199 0 0 1-11.33 9.238c-.88.704-1.81 1.408-2.68 2.067-4.09 3.124-8.26 6.159-12.57 9.062-2.28 1.54-4.57 3.079-6.89 4.531-.44.264-.88.572-1.32.88-2.9 1.847-5.85 3.607-8.79 5.322-1.01.616-2.06 1.188-3.12 1.76a262.233 262.233 0 0 1-6.15 3.387c-1.18.66-2.41 1.276-3.64 1.892-1.85.967-3.74 1.891-5.63 2.815-1.62.792-3.2 1.539-4.83 2.287-1.71.792-3.47 1.584-5.18 2.332-1.63.704-3.3 1.407-4.92 2.067-1.63.66-3.3 1.32-4.92 1.98a242.925 242.925 0 0 1-7.82 2.903c-1.32.484-2.59.968-3.91 1.408-3.43 1.143-6.9 2.243-10.37 3.255-.48.132-.96.308-1.49.44-.31.088-.62.176-.92.264a223.12 223.12 0 0 1-8.83 2.287c-1.01.22-2.02.484-2.99.704-2.42.528-4.79 1.056-7.21 1.539-.96.176-1.97.396-2.94.572-3.29.616-6.63 1.188-9.93 1.628-17.08 2.419-33.51 2.815-49.11 1.452-7.82-.704-15.42-1.804-22.8-3.388-22.09-4.706-42.13-13.196-59.35-24.985-11.46-7.83-21.74-17.112-30.53-27.625l51.36 61.408c35.23 42.098 93.52 64.136 161.79 54.546 3.33-.483 6.63-1.011 9.92-1.627.97-.176 1.98-.396 2.95-.572 2.41-.484 4.83-.968 7.2-1.54 1.01-.22 2.02-.439 2.99-.703 2.94-.704 5.89-1.452 8.78-2.288.31-.088.66-.176.97-.264.04 0 .13-.044.18-.044.39-.132.83-.264 1.23-.396 3.51-1.011 6.98-2.111 10.45-3.255 1.32-.44 2.59-.924 3.91-1.364 2.64-.923 5.23-1.891 7.82-2.903.62-.264 1.27-.44 1.89-.704 1.01-.396 2.02-.879 3.03-1.275 1.67-.704 3.3-1.364 4.96-2.112 1.76-.748 3.48-1.539 5.19-2.331 1.62-.748 3.25-1.496 4.83-2.288l1.98-.923c1.23-.616 2.41-1.276 3.64-1.892 1.23-.616 2.46-1.232 3.65-1.891 2.06-1.1 4.08-2.244 6.11-3.388 1.05-.571 2.06-1.143 3.11-1.759.22-.132.49-.264.75-.396 2.72-1.584 5.4-3.255 8.08-4.927.44-.264.88-.572 1.32-.88 2.07-1.319 4.13-2.639 6.15-4.003.27-.176.49-.351.75-.527 4.26-2.904 8.43-5.939 12.56-9.062.35-.264.75-.528 1.14-.836.53-.396 1.01-.836 1.54-1.276 3.87-2.991 7.65-6.07 11.34-9.237.22-.22.48-.396.74-.616.09-.044.13-.132.22-.176 3.96-3.431 7.73-6.994 11.51-10.601.44-.44.92-.792 1.32-1.232.39-.396.75-.792 1.14-1.188 3.78-3.739 7.47-7.566 11.03-11.525.13-.176.31-.308.44-.484 1.75-1.935 3.42-3.915 5.14-5.894.35-.396.7-.792 1.05-1.232 2.11-2.507 4.17-5.015 6.19-7.61.14-.132.22-.308.36-.44.87-1.144 1.71-2.287 2.59-3.431 1.32-1.716 2.63-3.431 3.86-5.191.88-1.231 1.76-2.507 2.64-3.739.97-1.363 1.93-2.727 2.9-4.135.17-.264.35-.572.53-.836a263.69 263.69 0 0 0 5.14-8.05c.39-.659.83-1.319 1.23-1.979 2.02-3.387 3.99-6.774 5.84-10.205.09-.132.17-.308.26-.44 1.5-2.772 2.94-5.587 4.35-8.402.31-.66.62-1.32.92-1.936 1.15-2.375 2.29-4.751 3.34-7.126a75.08 75.08 0 0 0 1.36-3.211c.88-2.024 1.72-4.047 2.55-6.071.48-1.143.92-2.331 1.36-3.475.31-.879.71-1.715 1.01-2.595.53-1.452 1.01-2.903 1.54-4.355l.66-1.847c1.01-2.992 1.93-5.983 2.81-9.018.22-.704.4-1.408.57-2.112.71-2.463 1.36-4.97 1.94-7.434.17-.748.39-1.539.57-2.287.7-3.035 1.36-6.115 1.93-9.194.09-.484.18-1.012.26-1.496.49-2.639.88-5.322 1.28-7.962.13-.835.22-1.671.35-2.507.39-3.123.75-6.246 1.01-9.37.17-2.331.35-4.662.44-6.95 0-.308 0-.616.04-.968-.09-1.231-.09-2.551-.04-3.871Z"/><path fill="url(#F)" d="M1432.02 462.039c117.99-16.584 206.15 61.277 196.93 173.976-9.23 112.656-112.37 217.481-230.32 234.065-117.99 16.584-206.16-61.276-196.93-173.976 9.22-112.656 112.32-217.437 230.32-234.065Zm-23.94 292.482c51.09-7.17 95.89-52.742 99.89-101.526s-34.31-82.611-85.4-75.441c-51.09 7.17-95.89 52.743-99.89 101.526-4 48.784 34.31 82.656 85.4 75.441Z"/><path fill="url(#G)" d="M227.188 1795.65c42.311 0 76.611-34.35 76.611-76.72s-34.3-76.72-76.611-76.72c-42.312 0-76.612 34.35-76.612 76.72s34.3 76.72 76.612 76.72Z"/><path fill="url(#H)" d="M1285.21 1125.43c46.82 0 84.78-38.01 84.78-84.89 0-46.892-37.96-84.903-84.78-84.903-46.83 0-84.79 38.011-84.79 84.903 0 46.88 37.96 84.89 84.79 84.89Z"/><path fill="url(#I)" d="M1322.64 1134.19c42.31 0 76.61-34.35 76.61-76.72s-34.3-76.715-76.61-76.715-76.61 34.345-76.61 76.715c0 42.37 34.3 76.72 76.61 76.72Z"/><path fill="url(#J)" d="M376.064 292.901c21.956 0 39.755-17.824 39.755-39.81 0-21.987-17.799-39.81-39.755-39.81-21.957 0-39.756 17.823-39.756 39.81 0 21.986 17.799 39.81 39.756 39.81Z"/><path fill="url(#K)" d="M694.54 1876.11c46.825 0 84.783-38.02 84.783-84.9 0-46.89-37.958-84.9-84.783-84.9-46.824 0-84.782 38.01-84.782 84.9 0 46.88 37.958 84.9 84.782 84.9Z"/><path fill="url(#L)" d="m573.782 1818.48 158.891-139.53 58.513 186.95-217.404-47.42Z"/><path fill="url(#M)" d="M1748.49 1839.38c46.82 0 84.78-38.01 84.78-84.9 0-46.89-37.96-84.9-84.78-84.9-46.83 0-84.79 38.01-84.79 84.9 0 46.89 37.96 84.9 84.79 84.9Z"/><path fill="url(#N)" d="m1681.54 1858.73 15.37-211.06 172.73 92.07-188.1 118.99Z"/><path fill="url(#O)" d="M658.254 1074.9c-23.063-8.54-35.802-31.63-28.422-51.56 7.38-19.93 32.024-29.164 55.087-20.63 23.062 8.53 35.802 31.63 28.422 51.55-7.38 19.93-32.024 29.17-55.087 20.64Z"/><path fill="url(#P)" d="m677.145 982.387 43.666 93.083-101.168-9.11 57.502-83.973Z"/><path fill="url(#Q)" d="m127.027 739.871 53.417 104.738-125.636-62.201 72.219-42.537Z"/><path fill="url(#R)" d="M921.612 170.48c46.824 0 84.778-38.01 84.778-84.898S968.436.683 921.612.683c-46.824 0-84.782 38.01-84.782 84.899 0 46.888 37.958 84.898 84.782 84.898Z"/><path fill="url(#S)" d="m989.349 83.429-54.56 104.121-21.832-138.609 76.392 34.488Z"/><path fill="url(#T)" d="M227.182 619.254c36.198 0 65.542-29.384 65.542-65.631 0-36.248-29.344-65.632-65.542-65.632s-65.542 29.384-65.542 65.632c0 36.247 29.344 65.631 65.542 65.631Z"/><path fill="url(#U)" d="M1008.11 1813.42c22.61 0 40.94-18.35 40.94-41 0-22.64-18.33-40.99-40.94-40.99s-40.941 18.35-40.941 40.99c0 22.65 18.331 41 40.941 41Z"/><defs><linearGradient id="a" x1="1404.36" x2="1114.06" y1="241.024" y2="229.308" gradientUnits="userSpaceOnUse"><stop offset=".021" stop-color="#3FF8F5"/><stop offset=".358" stop-color="#59C4F9"/><stop offset="1" stop-color="#554DDE"/></linearGradient><linearGradient id="e" x1="1044.01" x2="1495.63" y1="331.792" y2="142.48" gradientUnits="userSpaceOnUse"><stop stop-color="#F37335"/><stop offset="1" stop-color="#FDC830"/></linearGradient><linearGradient id="f" x1="1072.41" x2="1524.03" y1="399.532" y2="210.22" gradientUnits="userSpaceOnUse"><stop stop-color="#F37335"/><stop offset="1" stop-color="#FDC830"/></linearGradient><linearGradient id="g" x1="1100.79" x2="1552.42" y1="467.272" y2="277.961" gradientUnits="userSpaceOnUse"><stop stop-color="#F37335"/><stop offset="1" stop-color="#FDC830"/></linearGradient><linearGradient id="h" x1="1044.23" x2="1504.72" y1="1544.82" y2="1711.35" gradientUnits="userSpaceOnUse"><stop stop-color="#8E2EBF"/><stop offset="1" stop-color="#4D4ADD"/></linearGradient><linearGradient id="i" x1="1019.25" x2="1479.74" y1="1613.9" y2="1780.43" gradientUnits="userSpaceOnUse"><stop stop-color="#8E2EBF"/><stop offset="1" stop-color="#4D4ADD"/></linearGradient><linearGradient id="j" x1="994.273" x2="1454.76" y1="1682.97" y2="1849.51" gradientUnits="userSpaceOnUse"><stop stop-color="#8E2EBF"/><stop offset="1" stop-color="#4D4ADD"/></linearGradient><linearGradient id="m" x1="788.648" x2="629.487" y1="1407.81" y2="1140.12" gradientUnits="userSpaceOnUse"><stop stop-color="#59D3FC"/><stop offset="1" stop-color="#554DDE"/></linearGradient><linearGradient id="n" x1="477.193" x2="393.402" y1="1159.33" y2="1347.6" gradientUnits="userSpaceOnUse"><stop stop-color="#78FFD6"/><stop offset="1" stop-color="#A7FF7A"/></linearGradient><linearGradient id="q" x1="1119.12" x2="281.195" y1="786.089" y2="231.27" gradientUnits="userSpaceOnUse"><stop offset=".021" stop-color="#3FF8F5"/><stop offset=".358" stop-color="#59C4F9"/><stop offset="1" stop-color="#554DDE"/></linearGradient><linearGradient id="r" x1="292.951" x2="584.16" y1="636.453" y2="651.6" gradientUnits="userSpaceOnUse"><stop stop-color="#8E2EBF"/><stop offset="1" stop-color="#4D4ADD"/></linearGradient><linearGradient id="s" x1="552.325" x2="637.453" y1="190.349" y2="378.59" gradientUnits="userSpaceOnUse"><stop stop-color="#A8C0FF"/><stop offset="1" stop-color="#554DDE"/></linearGradient><linearGradient id="u" x1="1240.25" x2="827.081" y1="1506.43" y2="937.707" gradientUnits="userSpaceOnUse"><stop stop-color="#FFBF0B"/><stop offset="1" stop-color="#D4307A"/></linearGradient><linearGradient id="v" x1="963.036" x2="1038.46" y1="1608.53" y2="1403.49" gradientUnits="userSpaceOnUse"><stop stop-color="#991CD1"/><stop offset="1" stop-color="#D4307A"/></linearGradient><linearGradient id="w" x1="1088.03" x2="1217.83" y1="1002.58" y2="1178.21" gradientUnits="userSpaceOnUse"><stop stop-color="#F37335"/><stop offset="1" stop-color="#FDC830"/></linearGradient><linearGradient id="x" x1="346.034" x2="468.943" y1="1186.62" y2="1521.37" gradientUnits="userSpaceOnUse"><stop stop-color="#8E2EBF"/><stop offset="1" stop-color="#4D4ADD"/></linearGradient><linearGradient id="y" x1="457.211" x2="166.824" y1="1546.12" y2="1077.68" gradientUnits="userSpaceOnUse"><stop stop-color="#124699"/><stop offset=".972" stop-color="#6B4ADB"/><stop offset="1" stop-color="#554ADD"/></linearGradient><linearGradient id="z" x1="750.813" x2="393.508" y1="1533.4" y2="1070.65" gradientUnits="userSpaceOnUse"><stop offset=".021" stop-color="#3FF8F5"/><stop offset=".358" stop-color="#59C4F9"/><stop offset="1" stop-color="#554DDE"/></linearGradient><linearGradient id="A" x1="1619.68" x2="1706.83" y1="1375.84" y2="1613.21" gradientUnits="userSpaceOnUse"><stop stop-color="#8E2EBF"/><stop offset="1" stop-color="#4D4ADD"/></linearGradient><linearGradient id="B" x1="1698.51" x2="1492.6" y1="1630.77" y2="1298.59" gradientUnits="userSpaceOnUse"><stop stop-color="#124699"/><stop offset=".972" stop-color="#6B4ADB"/><stop offset="1" stop-color="#554ADD"/></linearGradient><linearGradient id="C" x1="1906.71" x2="1653.35" y1="1621.75" y2="1293.61" gradientUnits="userSpaceOnUse"><stop offset=".021" stop-color="#3FF8F5"/><stop offset=".358" stop-color="#59C4F9"/><stop offset="1" stop-color="#554DDE"/></linearGradient><linearGradient id="D" x1="1487.65" x2="1295.05" y1="589.918" y2="828.247" gradientUnits="userSpaceOnUse"><stop stop-color="#8E2EBF"/><stop offset="1" stop-color="#4D4ADD"/></linearGradient><linearGradient id="E" x1="1632.42" x2="1385.34" y1="532.256" y2="887.726" gradientUnits="userSpaceOnUse"><stop stop-color="#A8C0FF"/><stop offset="1" stop-color="#554DDE"/></linearGradient><linearGradient id="F" x1="1454.94" x2="1375.32" y1="837.301" y2="494.12" gradientUnits="userSpaceOnUse"><stop stop-color="#3FF8F5"/><stop offset="1" stop-color="#A8C0FF"/></linearGradient><linearGradient id="L" x1="605.517" x2="739.608" y1="1601.38" y2="2014.26" gradientUnits="userSpaceOnUse"><stop stop-color="#991CD1"/><stop offset="1" stop-color="#D4307A"/></linearGradient><linearGradient id="N" x1="1551.99" x2="1936.94" y1="1681.79" y2="1881.57" gradientUnits="userSpaceOnUse"><stop stop-color="#991CD1"/><stop offset="1" stop-color="#D4307A"/></linearGradient><linearGradient id="P" x1="781.188" x2="556.477" y1="1032.27" y2="1023.19" gradientUnits="userSpaceOnUse"><stop offset=".021" stop-color="#3FF8F5"/><stop offset=".358" stop-color="#59C4F9"/><stop offset="1" stop-color="#554DDE"/></linearGradient><linearGradient id="Q" x1="261.676" x2="-32.316" y1="834.563" y2="778.639" gradientUnits="userSpaceOnUse"><stop stop-color="#991CD1"/><stop offset="1" stop-color="#D4307A"/></linearGradient><linearGradient id="S" x1="989.921" x2="865.568" y1="248.165" y2="-24.389" gradientUnits="userSpaceOnUse"><stop stop-color="#A8C0FF"/><stop offset="1" stop-color="#554DDE"/></linearGradient><linearGradient id="T" x1="368.274" x2="77.967" y1="559.321" y2="547.604" gradientUnits="userSpaceOnUse"><stop offset=".021" stop-color="#3FF8F5"/><stop offset=".358" stop-color="#59C4F9"/><stop offset="1" stop-color="#554DDE"/></linearGradient><linearGradient id="U" x1="1096.22" x2="914.965" y1="1775.99" y2="1768.67" gradientUnits="userSpaceOnUse"><stop offset=".021" stop-color="#3FF8F5"/><stop offset=".358" stop-color="#59C4F9"/><stop offset="1" stop-color="#554DDE"/></linearGradient><radialGradient id="b" cx="0" cy="0" r="1" gradientTransform="matrix(84.7628 0 0 84.8788 89.676 796.497)" gradientUnits="userSpaceOnUse"><stop stop-color="#554DDE"/><stop offset="1" stop-color="#fff" stop-opacity="0"/></radialGradient><radialGradient id="c" cx="0" cy="0" r="1" gradientTransform="matrix(84.7628 0 0 84.8788 247.505 1735.67)" gradientUnits="userSpaceOnUse"><stop stop-color="#554DDE"/><stop offset="1" stop-color="#fff" stop-opacity="0"/></radialGradient><radialGradient id="d" cx="0" cy="0" r="1" gradientTransform="matrix(59.1541 0 0 59.235 376.073 253.11)" gradientUnits="userSpaceOnUse"><stop stop-color="#554DDE"/><stop offset="1" stop-color="#fff" stop-opacity="0"/></radialGradient><radialGradient id="k" cx="0" cy="0" r="1" gradientTransform="matrix(213.274 0 0 213.566 1524.31 767.176)" gradientUnits="userSpaceOnUse"><stop stop-color="#554DDE"/><stop offset="1" stop-color="#fff" stop-opacity="0"/></radialGradient><radialGradient id="o" cx="0" cy="0" r="1" gradientTransform="matrix(195.605 0 0 195.872 571.839 1465.12)" gradientUnits="userSpaceOnUse"><stop stop-color="#554DDE"/><stop offset="1" stop-color="#fff" stop-opacity="0"/></radialGradient><radialGradient id="p" cx="0" cy="0" r="1" gradientTransform="matrix(255.281 0 0 255.631 838.866 622.403)" gradientUnits="userSpaceOnUse"><stop stop-color="#554DDE"/><stop offset="1" stop-color="#fff" stop-opacity="0"/></radialGradient><radialGradient id="t" cx="0" cy="0" r="1" gradientTransform="matrix(302.753 0 0 303.168 1165.89 1283.91)" gradientUnits="userSpaceOnUse"><stop stop-color="#554DDE"/><stop offset="1" stop-color="#fff" stop-opacity="0"/></radialGradient><radialGradient id="G" cx="0" cy="0" r="1" gradientTransform="matrix(123.796 0 0 123.965 251.358 1668.87)" gradientUnits="userSpaceOnUse"><stop stop-color="#78FFD6"/><stop offset="1" stop-color="#A7FF7A"/></radialGradient><radialGradient id="H" cx="0" cy="0" r="1" gradientTransform="matrix(84.7628 0 0 84.8788 1285.23 1040.53)" gradientUnits="userSpaceOnUse"><stop stop-color="#554DDE"/><stop offset="1" stop-color="#fff"/></radialGradient><radialGradient id="I" cx="0" cy="0" r="1" gradientTransform="matrix(123.796 0 0 123.965 1346.83 1007.43)" gradientUnits="userSpaceOnUse"><stop stop-color="#78FFD6"/><stop offset="1" stop-color="#A7FF7A"/></radialGradient><radialGradient id="J" cx="0" cy="0" r="1" gradientTransform="matrix(39.7534 0 0 39.8078 388.987 237.78)" gradientUnits="userSpaceOnUse"><stop stop-color="#FDC830"/><stop offset="1" stop-color="#F37335"/></radialGradient><radialGradient id="K" cx="0" cy="0" r="1" gradientTransform="matrix(84.7628 0 0 84.8788 694.553 1791.22)" gradientUnits="userSpaceOnUse"><stop stop-color="#554DDE"/><stop offset="1" stop-color="#fff" stop-opacity="0"/></radialGradient><radialGradient id="M" cx="0" cy="0" r="1" gradientTransform="rotate(-44.61 3012.627 -1253.861) scale(84.8197 84.8214)" gradientUnits="userSpaceOnUse"><stop stop-color="#554DDE"/><stop offset="1" stop-color="#fff" stop-opacity="0"/></radialGradient><radialGradient id="O" cx="0" cy="0" r="1" gradientTransform="rotate(110.26 -26.15 753.386) scale(38.487 44.533)" gradientUnits="userSpaceOnUse"><stop stop-color="#554DDE"/><stop offset="1" stop-color="#fff"/></radialGradient><radialGradient id="R" cx="0" cy="0" r="1" gradientTransform="rotate(54.762 378.206 932.497) scale(84.8403 84.8016)" gradientUnits="userSpaceOnUse"><stop stop-color="#554DDE"/><stop offset="1" stop-color="#fff" stop-opacity="0"/></radialGradient></defs></svg>