<svg xmlns="http://www.w3.org/2000/svg" width="400" height="301" fill="none"><rect width="300" height="400" x="400" y=".653" fill="#FDD54A" rx="10" transform="rotate(90 400 .653)"/><path fill="#262626" d="M139.433 248.08v2.661c-.013 3.052-.013 6.067-.806 10.669l-3.149-.268c.842-4.273.842-7.447.854-10.401v-.171h-12.573v-2.49h15.674Zm-17.774 17.261v-2.564h20.264v2.564h-20.264Zm30.664-17.163v8.569h-5.444v3.98c2.112-.025 4.114-.11 6.396-.464l.22 2.49c-2.905.488-5.31.561-8.057.561H143.9v-9.057h5.42v-3.565h-5.444v-2.514h8.447Zm2.198 18.994v-20.776h2.856v8.032h2.148v-8.399h2.954v22.217h-2.954v-11.304h-2.148v10.23h-2.856Zm23.388-19.556v2.539h-1.831v5.774a58.977 58.977 0 0 0 2.686-.232l.219 2.271c-4.516.696-9.521.793-13.403.805l-.342-2.563c.757 0 1.563 0 2.393-.012v-6.043h-1.807v-2.539h12.085Zm-9.717 15.381v-2.49h15.284v7.739h-3.125v-5.249h-12.159Zm2.417-6.836 2.466-.073v-5.933h-2.466v6.006Zm9.742 3.467v-13.599h3.125v13.599h-3.125Zm30.493-13.599v22.266h-3.15v-22.266h3.15Zm-17.261 16.968v-15.015h10.815v2.539h-7.69v9.839c3.98 0 6.433-.11 9.229-.61l.292 2.563c-3.076.586-5.908.684-10.717.684h-1.929Zm28.467-10.913c-.012 3.381 1.794 7.288 5.444 8.984l-1.733 2.442c-2.478-1.135-4.236-3.406-5.237-6.067-.989 2.93-2.82 5.42-5.383 6.628l-1.807-2.466c3.699-1.721 5.566-5.847 5.591-9.521v-1.367h-4.712v-2.539h12.305v2.539h-4.468v1.367Zm6.201 16.162v-22.217h3.125v8.472h3.271v2.612h-3.271v11.133h-3.125Zm25.806-22.217v22.266h-3.15v-22.266h3.15Zm-17.945 9.473c-.012-4.846 2.466-7.91 5.884-7.91 3.345 0 5.835 3.064 5.835 7.91 0 4.883-2.49 7.935-5.835 7.935-3.418 0-5.896-3.052-5.884-7.935Zm3.003 0c-.012 3.308 1.148 5.115 2.881 5.102 1.685.013 2.82-1.794 2.832-5.102-.012-3.296-1.147-5.103-2.832-5.103-1.733 0-2.893 1.807-2.881 5.103Zm36.719-9.473v22.266h-3.101v-12.866h-6.079v-2.539h6.079v-6.861h3.101Zm-17.627 17.041v-14.673h3.125v12.073c2.82-.049 5.725-.293 8.74-.866l.342 2.539c-3.589.744-7.007.927-10.327.927h-1.88Z"/><path fill="url(#a)" d="M225.661 57.878a6.526 6.526 0 0 0 6.522-6.53c0-3.607-2.92-6.531-6.522-6.531a6.525 6.525 0 0 0-6.521 6.53 6.525 6.525 0 0 0 6.521 6.531Z"/><path fill="url(#b)" d="M108.889 115.633c4.659 0 8.436-3.782 8.436-8.447 0-4.666-3.777-8.448-8.436-8.448s-8.436 3.782-8.436 8.448c0 4.665 3.777 8.447 8.436 8.447Z"/><path fill="url(#c)" d="M124.593 209.088c4.66 0 8.437-3.782 8.437-8.448 0-4.665-3.777-8.448-8.437-8.448-4.659 0-8.436 3.783-8.436 8.448 0 4.666 3.777 8.448 8.436 8.448Z"/><path fill="url(#d)" d="M137.383 59.011a5.892 5.892 0 0 0 5.888-5.895 5.892 5.892 0 0 0-5.888-5.896 5.892 5.892 0 0 0-5.887 5.896 5.892 5.892 0 0 0 5.887 5.895Z"/><path fill="url(#e)" d="m250.493 45.504-41.206 12.584-.97-3.187 41.206-12.584.97 3.187Z"/><path fill="url(#f)" d="m252.636 52.533-41.207 12.584-.97-3.186 41.206-12.584.971 3.186Z"/><path fill="url(#g)" d="M254.777 59.563 213.57 72.147l-.97-3.19 41.206-12.585.971 3.19Z"/><path fill="url(#h)" d="m248.618 201.957-38.815-18.716 1.447-3.003 38.811 18.721-1.443 2.998Z"/><path fill="url(#i)" d="m245.432 208.58-38.811-18.721 1.443-2.998 38.815 18.716-1.447 3.003Z"/><path fill="url(#j)" d="m242.25 215.198-38.815-18.716 1.446-3.003 38.811 18.721-1.442 2.998Z"/><path fill="url(#k)" d="M251.638 125.521c11.72 0 21.222-9.514 21.222-21.251 0-11.736-9.502-21.25-21.222-21.25s-21.221 9.514-21.221 21.25c0 11.737 9.501 21.251 21.221 21.251Z"/><mask id="l" width="82" height="56" x="108" y="120" maskUnits="userSpaceOnUse" style="mask-type:luminance"><path fill="#fff" d="m109.605 121.113 79.855 54.065a5.006 5.006 0 0 0-.721-.407l-79.851-54.065c.254.118.494.254.717.407Z"/></mask><g mask="url(#l)"><path fill="#034B93" d="m188.743 174.771-79.855-54.065c.254.118.494.254.721.407l79.856 54.065a5.301 5.301 0 0 0-.722-.407Z"/></g><path fill="url(#m)" d="M188.743 174.772c2.898 1.352 3.952 5.024 2.352 8.198-1.6 3.173-5.241 4.648-8.139 3.296-2.898-1.353-3.952-5.021-2.356-8.194 1.6-3.178 5.245-4.653 8.143-3.3Z"/><path fill="url(#n)" d="M180.604 178.067c.079-.157.167-.306.254-.455l.092-.157c.105-.171.218-.333.336-.491.162-.214.337-.411.516-.604.053-.057.105-.105.157-.162.132-.131.267-.254.403-.372l.166-.14a6.147 6.147 0 0 1 1.206-.766c.109-.057.223-.105.337-.153.078-.035.157-.066.24-.096a3.61 3.61 0 0 1 .302-.105c.083-.027.161-.053.244-.075.114-.03.228-.061.346-.087.057-.013.113-.027.17-.035.158-.031.319-.053.477-.07.017 0 .035-.005.052-.009.175-.018.354-.026.533-.026.053 0 .105.004.162.004a5.265 5.265 0 0 1 .922.101c.057.013.118.022.175.035.145.03.284.074.424.118l.096.026c.18.061.359.131.538.215l-79.864-54.057-.074-.035a6.105 6.105 0 0 0-.463-.184c-.031-.009-.066-.017-.097-.031a7.138 7.138 0 0 0-.424-.118c-.056-.013-.118-.022-.174-.035a5.263 5.263 0 0 0-.359-.057c-.061-.008-.122-.013-.188-.021a4.739 4.739 0 0 0-.376-.022c-.052 0-.105-.005-.162-.005-.179 0-.354.009-.528.027-.018 0-.035.004-.053.008-.162.018-.319.04-.476.07-.057.009-.114.027-.171.035-.074.018-.148.031-.223.048-.043.009-.083.027-.122.04-.083.022-.162.048-.245.074l-.301.105c-.079.031-.158.062-.241.097l-.135.052c-.07.031-.136.066-.206.101l-.131.065a6.884 6.884 0 0 0-.455.259c-.004.004-.008.004-.013.008a6.55 6.55 0 0 0-.603.434c-.017.017-.039.026-.061.044-.035.03-.07.065-.105.096-.14.118-.275.241-.402.372-.035.031-.07.061-.101.092-.022.022-.039.044-.056.065-.18.189-.355.39-.516.6l-.005.005a5.667 5.667 0 0 0-.332.485l-.092.158c-.052.087-.105.171-.153.263-.035.061-.065.126-.1.192-1.456 2.893-.708 6.198 1.635 7.783l79.855 54.065c-2.339-1.576-3.091-4.88-1.631-7.774Z"/><path fill="url(#o)" d="M156.865 193.207c10.75 0 19.465-8.726 19.465-19.491 0-10.764-8.715-19.491-19.465-19.491s-19.464 8.727-19.464 19.491c0 10.765 8.714 19.491 19.464 19.491Z"/><path fill="url(#p)" d="M183.433 115.301c14.028 0 25.4-11.388 25.4-25.435 0-14.048-11.372-25.435-25.4-25.435-14.029 0-25.401 11.387-25.401 25.435 0 14.047 11.372 25.435 25.401 25.435Z"/><path fill="url(#q)" d="m194.364 56.215 13.411 42.663-38.553 18.003-13.41-42.668 38.552-17.998Z"/><path fill="url(#r)" d="m169.222 116.881-26.711-6.483L129.1 67.735l26.712 6.478 13.41 42.668Z"/><path fill="url(#s)" d="M155.812 74.213 129.1 67.735l38.553-18.003 26.712 6.483-38.553 17.998Z"/><path fill="url(#t)" d="M215.975 185.854c16.637 0 30.125-13.506 30.125-30.167 0-16.66-13.488-30.166-30.125-30.166-16.638 0-30.126 13.506-30.126 30.166 0 16.661 13.488 30.167 30.126 30.167Z"/><path fill="url(#u)" d="m185.478 119.835 34.278 3.607-11.601 39.07-34.278-3.607 11.601-39.07Z"/><path fill="url(#v)" d="m197.297 175.647-23.42-16.743 34.278 3.607 23.416 16.742-34.274-3.606Z"/><path fill="url(#w)" d="m231.571 179.254-23.416-16.743 11.601-39.069 23.415 16.746-11.6 39.066Z"/><path fill="url(#x)" d="m167.876 169.48-18.114 24.979-28.552-16.505 18.114-24.98 28.552 16.506Z"/><path fill="url(#y)" d="m121.21 177.954 1.093-14.747 18.118-24.979-1.097 14.746-18.114 24.98Z"/><path fill="url(#z)" d="m139.324 152.974 1.097-14.746 28.548 16.505-1.093 14.747-28.552-16.506Z"/><path fill="url(#A)" d="m284.867 181.481-12.846 17.71-20.243-11.704 12.847-17.71 20.242 11.704Z"/><path fill="url(#B)" d="m251.778 187.487.774-10.457 12.847-17.709-.774 10.456-12.847 17.71Z"/><path fill="url(#C)" d="m264.625 169.777.774-10.456 20.242 11.704-.774 10.457-20.242-11.705Z"/><path fill="url(#D)" d="M248.491 87.764c-1.521-1.816-4.039-2.77-6.981-2.36-.288.04-.573.097-.852.163-.083.017-.166.04-.249.061-.105.026-.21.048-.315.079a5.4 5.4 0 0 0-.372.118l-.113.035c-.201.07-.407.14-.604.219-.043.017-.087.04-.131.061-.14.057-.279.123-.419.188-.105.048-.21.088-.311.14l-.148.08c-.11.056-.214.113-.319.174-.092.053-.188.097-.276.15-.074.043-.14.091-.214.135a8.34 8.34 0 0 0-.275.175c-.061.04-.123.074-.184.114-.114.074-.218.157-.328.236-.07.053-.144.1-.214.153a.761.761 0 0 1-.079.057 12.65 12.65 0 0 0-.59.482l-.013.013-.078.07c-.162.14-.32.284-.473.438l-.091.091c-.07.07-.14.145-.21.22-.083.087-.166.17-.245.258l-.144.17c-.079.092-.158.184-.232.276-.052.066-.109.123-.157.188-.057.07-.105.149-.162.223-.087.114-.17.232-.253.35-.04.058-.084.11-.118.163-.044.065-.079.135-.123.2-.114.176-.218.355-.323.535-.04.066-.083.127-.118.193-.04.07-.07.144-.11.218-.048.097-.096.193-.144.294-.083.17-.157.345-.232.52-.039.092-.078.184-.113.276l-.044.11c-.079.214-.149.433-.214.652-.013.04-.022.083-.031.122a9.367 9.367 0 0 0-.161.683l-.04.215a8.55 8.55 0 0 0-.109.805c-.009.1-.013.201-.017.298-.005.078 0 .157 0 .24 0 .114-.005.232 0 .346.004.127.013.254.021.381l.027.328c.004.04.004.08.008.119.022.157.048.31.079.464 0 .008.004.017.004.026.027.14.057.275.097.411.008.035.026.07.035.11.039.14.087.275.135.411.022.066.039.131.066.197.008.026.021.048.035.074.043.105.091.206.139.311.035.075.066.153.101.228.013.022.026.044.039.07.044.087.096.17.145.254.043.074.078.148.126.223l.053.079c.052.079.105.153.161.227.044.066.088.132.136.193.044.057.092.114.14.171l5.11 6.11c-.097-.118-.184-.241-.276-.363-.052-.075-.109-.149-.161-.228a3.929 3.929 0 0 1-.18-.298c-.048-.083-.1-.166-.144-.253a4.043 4.043 0 0 1-.14-.298 7.331 7.331 0 0 1-.14-.311c-.035-.087-.065-.179-.096-.271a6.84 6.84 0 0 1-.262-.933c0-.008-.004-.017-.004-.026a6.036 6.036 0 0 1-.088-.582 6.865 6.865 0 0 1-.03-.333c-.009-.127-.018-.249-.022-.38-.005-.114 0-.228 0-.346.004-.18.004-.355.022-.539.021-.271.061-.538.109-.805l.039-.214c.044-.228.101-.456.162-.683.013-.04.022-.083.03-.123.075-.258.162-.508.258-.761.035-.092.075-.184.114-.276.074-.175.149-.35.232-.521l.144-.293c.07-.14.149-.276.227-.412.101-.18.21-.359.324-.534a9.58 9.58 0 0 1 .494-.713c.105-.14.209-.276.319-.412.074-.092.153-.184.231-.275.127-.145.258-.29.389-.43a12.426 12.426 0 0 1 .77-.749c.026-.02.052-.047.078-.073.219-.193.451-.377.682-.552.07-.052.14-.1.214-.153.171-.123.341-.24.512-.355a11.23 11.23 0 0 1 .765-.46c.105-.056.214-.117.319-.174.149-.079.306-.149.459-.219.14-.066.28-.131.419-.188.245-.1.49-.197.739-.28.04-.014.074-.022.114-.035.227-.075.454-.136.686-.197a11.173 11.173 0 0 1 1.106-.223c2.942-.416 5.459.538 6.981 2.359l-5.123-6.102Z"/><path fill="url(#E)" d="M267.218 96.147c.004-.154.008-.307.008-.46 0-.131-.004-.258-.008-.39l-.014-.446c-.004-.127-.017-.254-.026-.385a16.12 16.12 0 0 0-.035-.438l-.039-.376c-.009-.092-.018-.189-.031-.28-.004-.04-.013-.075-.017-.114-.044-.302-.088-.6-.144-.889-.005-.022-.009-.04-.009-.061-.061-.311-.136-.622-.214-.924-.009-.03-.013-.061-.022-.092l-.066-.223c-.043-.157-.092-.32-.14-.477a16.52 16.52 0 0 0-.271-.784c-.021-.056-.039-.113-.061-.17-.022-.057-.048-.114-.07-.17-.048-.124-.1-.242-.148-.36-.048-.118-.101-.232-.153-.346-.053-.118-.11-.232-.166-.35-.031-.061-.057-.122-.088-.184-.026-.056-.057-.109-.087-.162-.053-.1-.11-.205-.166-.306-.066-.114-.127-.228-.197-.341-.057-.101-.118-.197-.179-.294l-.092-.148c-.039-.062-.083-.123-.123-.184-.061-.092-.118-.18-.183-.272a7.455 7.455 0 0 0-.236-.328 5.918 5.918 0 0 0-.192-.258c-.027-.035-.049-.07-.075-.1a27.55 27.55 0 0 0-.319-.395l-5.11-6.11c.136.162.267.328.394.494.065.084.126.171.192.259l.236.328c.061.088.123.18.184.271.074.11.144.224.214.337.061.097.118.197.179.294l.197.341c.057.1.109.201.166.306.061.114.118.228.175.346a13.03 13.03 0 0 1 .319.696c.052.118.1.24.148.36l.132.336c.056.149.109.302.161.455.035.11.075.22.11.329.048.157.096.315.139.472.031.105.062.21.088.316.079.302.148.608.214.923l.013.066c.057.293.105.586.144.888.018.132.035.263.048.394.014.127.031.254.04.381.013.144.022.289.035.433l.026.385c.009.15.009.298.013.447a10.123 10.123 0 0 1 0 .845c-.004.131-.004.262-.009.394-.008.262-.026.52-.048.787-.026.311-.061.622-.1.933-.009.083-.022.166-.035.25-.04.266-.079.529-.127.792l-.026.148a23.03 23.03 0 0 1-.192.915c-.018.075-.035.153-.057.228-.062.25-.127.494-.193.74-.017.07-.039.14-.056.21-.088.302-.18.6-.28.897l-.066.184c-.078.232-.166.46-.253.691a8.631 8.631 0 0 1-.136.346c-.078.202-.166.403-.253.604l-.136.32c-.105.236-.218.477-.332.709-.031.066-.061.131-.092.192a28.989 28.989 0 0 1-1.04 1.896c-.039.065-.083.131-.123.197-.166.267-.332.534-.511.801-.109.166-.227.332-.341.494-.087.123-.17.25-.262.372-.127.175-.258.346-.385.517-.087.114-.17.227-.258.341-.21.272-.428.539-.651.801-.035.044-.074.083-.109.127-.179.215-.363.425-.551.63-.354.39-.721.771-1.097 1.147-.083.079-.162.162-.245.241a30.231 30.231 0 0 1-1.237 1.134 28.75 28.75 0 0 1-1.394 1.125c-.407.31-.822.612-1.25.901-.228.153-.455.307-.687.451a2.31 2.31 0 0 0-.131.088c-.288.183-.581.358-.874.529-.101.061-.206.118-.31.175a25.79 25.79 0 0 1-.612.337c-.118.066-.241.127-.363.189a24.35 24.35 0 0 1-1.04.507 25.708 25.708 0 0 1-1.006.438c-.162.066-.328.131-.489.197a23.36 23.36 0 0 1-.778.289c-.132.048-.258.096-.389.14-.341.114-.687.223-1.032.324-.048.013-.096.03-.149.044l-.091.026c-.293.083-.586.157-.879.227-.101.022-.201.049-.297.07-.241.053-.477.106-.717.154-.096.017-.197.039-.293.057-.328.061-.66.118-.988.162-1.7.24-3.335.28-4.887.144-.778-.07-1.534-.18-2.268-.337-2.199-.468-4.192-1.313-5.906-2.486a14.96 14.96 0 0 1-3.038-2.749l5.11 6.11c3.506 4.189 9.306 6.382 16.099 5.428.332-.048.66-.101.988-.162l.293-.057c.24-.048.48-.096.717-.153.1-.022.201-.044.297-.07.293-.07.585-.145.874-.228l.096-.026c.004 0 .013-.004.018-.004.039-.014.083-.027.122-.04.35-.101.695-.21 1.04-.324.131-.044.258-.092.389-.135.263-.092.52-.189.778-.289.062-.027.127-.044.188-.07.101-.04.201-.088.302-.127.166-.07.328-.136.494-.21.175-.075.345-.154.516-.232.161-.075.323-.149.48-.228l.197-.092c.123-.061.241-.127.363-.188s.245-.123.363-.188c.205-.11.406-.224.607-.337.105-.057.206-.114.311-.175.022-.014.048-.027.074-.04.271-.157.538-.324.804-.49.044-.026.088-.057.131-.088.206-.131.411-.262.612-.398.027-.017.048-.035.075-.052a31.13 31.13 0 0 0 1.25-.902c.035-.026.074-.053.113-.083.053-.04.101-.083.153-.127a28.75 28.75 0 0 0 1.128-.919c.022-.022.048-.04.074-.062.009-.004.014-.013.022-.017.394-.342.77-.696 1.146-1.055.043-.044.091-.079.131-.123.039-.039.074-.078.113-.118a27 27 0 0 0 1.097-1.147c.014-.017.031-.03.044-.048.175-.192.341-.389.512-.586.035-.04.07-.079.105-.123.209-.249.415-.499.616-.757.013-.013.022-.031.035-.044.087-.114.17-.227.258-.341.131-.171.262-.342.384-.517.088-.122.175-.249.263-.372.096-.135.192-.271.288-.411.018-.026.035-.057.053-.083.174-.263.345-.53.511-.801.039-.066.083-.132.122-.197.201-.337.398-.674.582-1.016l.026-.044c.149-.275.293-.555.433-.836l.091-.192c.114-.237.228-.473.333-.709.048-.105.091-.21.135-.32.088-.201.171-.403.254-.604.048-.114.092-.232.135-.346.031-.087.07-.17.101-.258.052-.144.1-.289.153-.433l.065-.184c.101-.298.193-.595.28-.897.022-.07.039-.14.057-.21a15.8 15.8 0 0 0 .192-.74c.018-.075.04-.153.057-.228.07-.302.136-.608.192-.915l.027-.148c.048-.263.087-.53.126-.793.013-.083.022-.166.035-.25.04-.31.075-.62.101-.931.017-.232.035-.464.044-.692 0-.03 0-.061.004-.096a3.512 3.512 0 0 1-.004-.385Z"/><path fill="url(#F)" d="M242.455 73.907c11.74-1.65 20.513 6.097 19.595 17.31-.918 11.21-11.181 21.641-22.917 23.291-11.741 1.65-20.514-6.097-19.596-17.311.918-11.21 11.177-21.636 22.918-23.29Zm-2.383 29.103c5.084-.714 9.543-5.249 9.94-10.103.398-4.854-3.414-8.22-8.497-7.506-5.084.713-9.542 5.248-9.94 10.102-.398 4.854 3.414 8.224 8.497 7.507Z"/><path fill="url(#G)" d="M122.57 206.606c4.21 0 7.623-3.418 7.623-7.634s-3.413-7.634-7.623-7.634c-4.21 0-7.623 3.418-7.623 7.634s3.413 7.634 7.623 7.634Z"/><path fill="url(#H)" d="M227.847 139.917c4.659 0 8.436-3.782 8.436-8.448 0-4.665-3.777-8.448-8.436-8.448s-8.436 3.783-8.436 8.448c0 4.666 3.777 8.448 8.436 8.448Z"/><path fill="url(#I)" d="M231.571 140.788c4.211 0 7.624-3.418 7.624-7.634s-3.413-7.633-7.624-7.633c-4.21 0-7.623 3.417-7.623 7.633s3.413 7.634 7.623 7.634Z"/><path fill="url(#J)" d="M137.384 57.077a3.958 3.958 0 0 0 3.955-3.962 3.958 3.958 0 0 0-3.955-3.96 3.959 3.959 0 0 0-3.956 3.96 3.959 3.959 0 0 0 3.956 3.962Z"/><path fill="url(#K)" d="M169.073 214.611c4.659 0 8.436-3.782 8.436-8.447 0-4.666-3.777-8.448-8.436-8.448s-8.436 3.782-8.436 8.448c0 4.665 3.777 8.447 8.436 8.447Z"/><path fill="url(#L)" d="m157.057 208.877 15.81-13.884 5.823 18.603-21.633-4.719Z"/><path fill="url(#M)" d="M273.945 210.957c4.659 0 8.436-3.782 8.436-8.448 0-4.665-3.777-8.447-8.436-8.447s-8.436 3.782-8.436 8.447c0 4.666 3.777 8.448 8.436 8.448Z"/><path fill="url(#N)" d="m267.283 212.883 1.53-21.001L286 201.043l-18.717 11.84Z"/><path fill="url(#O)" d="M165.463 134.888c-2.295-.849-3.563-3.147-2.828-5.13.734-1.983 3.186-2.902 5.481-2.053 2.295.849 3.563 3.147 2.828 5.13-.734 1.983-3.186 2.902-5.481 2.053Z"/><path fill="url(#P)" d="m167.342 125.683 4.345 9.262-10.066-.906 5.721-8.356Z"/><path fill="url(#Q)" d="m112.604 101.552 5.315 10.422-12.502-6.189 7.187-4.233Z"/><path fill="url(#R)" d="M191.668 44.895c4.659 0 8.436-3.782 8.436-8.447 0-4.666-3.777-8.448-8.436-8.448-4.66 0-8.437 3.782-8.437 8.448 0 4.665 3.777 8.447 8.437 8.447Z"/><path fill="url(#S)" d="m198.408 36.234-5.429 10.36-2.172-13.792 7.601 3.432Z"/><path fill="url(#T)" d="M122.569 89.55a6.526 6.526 0 0 0 6.522-6.53c0-3.607-2.92-6.531-6.522-6.531a6.526 6.526 0 0 0-6.521 6.53c0 3.607 2.92 6.531 6.521 6.531Z"/><path fill="url(#U)" d="M200.275 208.374a4.076 4.076 0 0 0 4.074-4.079 4.077 4.077 0 0 0-4.074-4.08 4.077 4.077 0 0 0-4.074 4.08 4.076 4.076 0 0 0 4.074 4.079Z"/><defs><linearGradient id="a" x1="239.703" x2="210.816" y1="51.915" y2="50.749" gradientUnits="userSpaceOnUse"><stop offset=".021" stop-color="#3FF8F5"/><stop offset=".358" stop-color="#59C4F9"/><stop offset="1" stop-color="#554DDE"/></linearGradient><linearGradient id="e" x1="203.847" x2="248.785" y1="60.947" y2="42.109" gradientUnits="userSpaceOnUse"><stop stop-color="#F37335"/><stop offset="1" stop-color="#FDC830"/></linearGradient><linearGradient id="f" x1="206.673" x2="251.611" y1="67.687" y2="48.85" gradientUnits="userSpaceOnUse"><stop stop-color="#F37335"/><stop offset="1" stop-color="#FDC830"/></linearGradient><linearGradient id="g" x1="209.497" x2="254.435" y1="74.428" y2="55.59" gradientUnits="userSpaceOnUse"><stop stop-color="#F37335"/><stop offset="1" stop-color="#FDC830"/></linearGradient><linearGradient id="h" x1="203.869" x2="249.689" y1="181.647" y2="198.218" gradientUnits="userSpaceOnUse"><stop stop-color="#8E2EBF"/><stop offset="1" stop-color="#4D4ADD"/></linearGradient><linearGradient id="i" x1="201.383" x2="247.203" y1="188.521" y2="205.092" gradientUnits="userSpaceOnUse"><stop stop-color="#8E2EBF"/><stop offset="1" stop-color="#4D4ADD"/></linearGradient><linearGradient id="j" x1="198.898" x2="244.718" y1="195.394" y2="211.965" gradientUnits="userSpaceOnUse"><stop stop-color="#8E2EBF"/><stop offset="1" stop-color="#4D4ADD"/></linearGradient><linearGradient id="m" x1="178.437" x2="162.6" y1="168.015" y2="141.378" gradientUnits="userSpaceOnUse"><stop stop-color="#59D3FC"/><stop offset="1" stop-color="#554DDE"/></linearGradient><linearGradient id="n" x1="147.446" x2="139.109" y1="143.289" y2="162.023" gradientUnits="userSpaceOnUse"><stop stop-color="#78FFD6"/><stop offset="1" stop-color="#A7FF7A"/></linearGradient><linearGradient id="q" x1="211.32" x2="127.944" y1="106.151" y2="50.944" gradientUnits="userSpaceOnUse"><stop offset=".021" stop-color="#3FF8F5"/><stop offset=".358" stop-color="#59C4F9"/><stop offset="1" stop-color="#554DDE"/></linearGradient><linearGradient id="r" x1="129.114" x2="158.09" y1="91.261" y2="92.769" gradientUnits="userSpaceOnUse"><stop stop-color="#8E2EBF"/><stop offset="1" stop-color="#4D4ADD"/></linearGradient><linearGradient id="s" x1="154.922" x2="163.393" y1="46.873" y2="65.603" gradientUnits="userSpaceOnUse"><stop stop-color="#A8C0FF"/><stop offset="1" stop-color="#554DDE"/></linearGradient><linearGradient id="u" x1="223.373" x2="182.261" y1="177.827" y2="121.237" gradientUnits="userSpaceOnUse"><stop stop-color="#FFBF0B"/><stop offset="1" stop-color="#D4307A"/></linearGradient><linearGradient id="v" x1="195.789" x2="203.294" y1="187.986" y2="167.584" gradientUnits="userSpaceOnUse"><stop stop-color="#991CD1"/><stop offset="1" stop-color="#D4307A"/></linearGradient><linearGradient id="w" x1="208.226" x2="221.143" y1="127.692" y2="145.168" gradientUnits="userSpaceOnUse"><stop stop-color="#F37335"/><stop offset="1" stop-color="#FDC830"/></linearGradient><linearGradient id="x" x1="134.396" x2="146.626" y1="146.005" y2="179.313" gradientUnits="userSpaceOnUse"><stop stop-color="#8E2EBF"/><stop offset="1" stop-color="#4D4ADD"/></linearGradient><linearGradient id="y" x1="145.458" x2="116.564" y1="181.777" y2="135.165" gradientUnits="userSpaceOnUse"><stop stop-color="#124699"/><stop offset=".972" stop-color="#6B4ADB"/><stop offset="1" stop-color="#554ADD"/></linearGradient><linearGradient id="z" x1="174.673" x2="139.12" y1="180.511" y2="134.466" gradientUnits="userSpaceOnUse"><stop offset=".021" stop-color="#3FF8F5"/><stop offset=".358" stop-color="#59C4F9"/><stop offset="1" stop-color="#554DDE"/></linearGradient><linearGradient id="A" x1="261.128" x2="269.8" y1="164.833" y2="188.453" gradientUnits="userSpaceOnUse"><stop stop-color="#8E2EBF"/><stop offset="1" stop-color="#4D4ADD"/></linearGradient><linearGradient id="B" x1="268.972" x2="248.483" y1="190.2" y2="157.147" gradientUnits="userSpaceOnUse"><stop stop-color="#124699"/><stop offset=".972" stop-color="#6B4ADB"/><stop offset="1" stop-color="#554ADD"/></linearGradient><linearGradient id="C" x1="289.689" x2="264.478" y1="189.302" y2="156.651" gradientUnits="userSpaceOnUse"><stop offset=".021" stop-color="#3FF8F5"/><stop offset=".358" stop-color="#59C4F9"/><stop offset="1" stop-color="#554DDE"/></linearGradient><linearGradient id="D" x1="247.99" x2="228.826" y1="86.631" y2="110.346" gradientUnits="userSpaceOnUse"><stop stop-color="#8E2EBF"/><stop offset="1" stop-color="#4D4ADD"/></linearGradient><linearGradient id="E" x1="262.395" x2="237.81" y1="80.894" y2="116.264" gradientUnits="userSpaceOnUse"><stop stop-color="#A8C0FF"/><stop offset="1" stop-color="#554DDE"/></linearGradient><linearGradient id="F" x1="244.736" x2="236.813" y1="111.246" y2="77.099" gradientUnits="userSpaceOnUse"><stop stop-color="#3FF8F5"/><stop offset="1" stop-color="#A8C0FF"/></linearGradient><linearGradient id="L" x1="160.215" x2="173.557" y1="187.275" y2="228.358" gradientUnits="userSpaceOnUse"><stop stop-color="#991CD1"/><stop offset="1" stop-color="#D4307A"/></linearGradient><linearGradient id="N" x1="254.392" x2="292.696" y1="195.277" y2="215.156" gradientUnits="userSpaceOnUse"><stop stop-color="#991CD1"/><stop offset="1" stop-color="#D4307A"/></linearGradient><linearGradient id="P" x1="177.695" x2="155.335" y1="130.646" y2="129.743" gradientUnits="userSpaceOnUse"><stop offset=".021" stop-color="#3FF8F5"/><stop offset=".358" stop-color="#59C4F9"/><stop offset="1" stop-color="#554DDE"/></linearGradient><linearGradient id="Q" x1="126.002" x2="96.748" y1="110.974" y2="105.41" gradientUnits="userSpaceOnUse"><stop stop-color="#991CD1"/><stop offset="1" stop-color="#D4307A"/></linearGradient><linearGradient id="S" x1="198.465" x2="186.091" y1="52.626" y2="25.505" gradientUnits="userSpaceOnUse"><stop stop-color="#A8C0FF"/><stop offset="1" stop-color="#554DDE"/></linearGradient><linearGradient id="T" x1="136.609" x2="107.722" y1="83.587" y2="82.421" gradientUnits="userSpaceOnUse"><stop offset=".021" stop-color="#3FF8F5"/><stop offset=".358" stop-color="#59C4F9"/><stop offset="1" stop-color="#554DDE"/></linearGradient><linearGradient id="U" x1="209.042" x2="191.007" y1="204.649" y2="203.922" gradientUnits="userSpaceOnUse"><stop offset=".021" stop-color="#3FF8F5"/><stop offset=".358" stop-color="#59C4F9"/><stop offset="1" stop-color="#554DDE"/></linearGradient><radialGradient id="b" cx="0" cy="0" r="1" gradientTransform="matrix(8.43421 0 0 8.44576 108.887 107.186)" gradientUnits="userSpaceOnUse"><stop stop-color="#554DDE"/><stop offset="1" stop-color="#fff" stop-opacity="0"/></radialGradient><radialGradient id="c" cx="0" cy="0" r="1" gradientTransform="matrix(8.43421 0 0 8.44576 124.591 200.638)" gradientUnits="userSpaceOnUse"><stop stop-color="#554DDE"/><stop offset="1" stop-color="#fff" stop-opacity="0"/></radialGradient><radialGradient id="d" cx="0" cy="0" r="1" gradientTransform="matrix(5.88605 0 0 5.8941 137.384 53.117)" gradientUnits="userSpaceOnUse"><stop stop-color="#554DDE"/><stop offset="1" stop-color="#fff" stop-opacity="0"/></radialGradient><radialGradient id="k" cx="0" cy="0" r="1" gradientTransform="matrix(21.2216 0 0 21.2506 251.638 104.269)" gradientUnits="userSpaceOnUse"><stop stop-color="#554DDE"/><stop offset="1" stop-color="#fff" stop-opacity="0"/></radialGradient><radialGradient id="o" cx="0" cy="0" r="1" gradientTransform="matrix(19.4634 0 0 19.49 156.864 173.717)" gradientUnits="userSpaceOnUse"><stop stop-color="#554DDE"/><stop offset="1" stop-color="#fff" stop-opacity="0"/></radialGradient><radialGradient id="p" cx="0" cy="0" r="1" gradientTransform="matrix(25.4014 0 0 25.4362 183.434 89.864)" gradientUnits="userSpaceOnUse"><stop stop-color="#554DDE"/><stop offset="1" stop-color="#fff" stop-opacity="0"/></radialGradient><radialGradient id="t" cx="0" cy="0" r="1" gradientTransform="matrix(30.1251 0 0 30.1663 215.974 155.686)" gradientUnits="userSpaceOnUse"><stop stop-color="#554DDE"/><stop offset="1" stop-color="#fff" stop-opacity="0"/></radialGradient><radialGradient id="G" cx="0" cy="0" r="1" gradientTransform="matrix(12.3181 0 0 12.335 124.975 193.991)" gradientUnits="userSpaceOnUse"><stop stop-color="#78FFD6"/><stop offset="1" stop-color="#A7FF7A"/></radialGradient><radialGradient id="H" cx="0" cy="0" r="1" gradientTransform="matrix(8.43421 0 0 8.44576 227.849 131.468)" gradientUnits="userSpaceOnUse"><stop stop-color="#554DDE"/><stop offset="1" stop-color="#fff"/></radialGradient><radialGradient id="I" cx="0" cy="0" r="1" gradientTransform="matrix(12.3181 0 0 12.335 233.978 128.175)" gradientUnits="userSpaceOnUse"><stop stop-color="#78FFD6"/><stop offset="1" stop-color="#A7FF7A"/></radialGradient><radialGradient id="J" cx="0" cy="0" r="1" gradientTransform="matrix(3.95561 0 0 3.96102 138.669 51.592)" gradientUnits="userSpaceOnUse"><stop stop-color="#FDC830"/><stop offset="1" stop-color="#F37335"/></radialGradient><radialGradient id="K" cx="0" cy="0" r="1" gradientTransform="matrix(8.43421 0 0 8.44576 169.074 206.165)" gradientUnits="userSpaceOnUse"><stop stop-color="#554DDE"/><stop offset="1" stop-color="#fff" stop-opacity="0"/></radialGradient><radialGradient id="M" cx="0" cy="0" r="1" gradientTransform="rotate(-44.61 383.795 -232.638) scale(8.43987 8.44004)" gradientUnits="userSpaceOnUse"><stop stop-color="#554DDE"/><stop offset="1" stop-color="#fff" stop-opacity="0"/></radialGradient><radialGradient id="O" cx="0" cy="0" r="1" gradientTransform="rotate(110.26 37.648 123.76) scale(3.8296 4.43119)" gradientUnits="userSpaceOnUse"><stop stop-color="#554DDE"/><stop offset="1" stop-color="#fff"/></radialGradient><radialGradient id="R" cx="0" cy="0" r="1" gradientTransform="matrix(4.87073 6.89509 -6.89193 4.8685 191.669 36.447)" gradientUnits="userSpaceOnUse"><stop stop-color="#554DDE"/><stop offset="1" stop-color="#fff" stop-opacity="0"/></radialGradient></defs></svg>