<svg xmlns="http://www.w3.org/2000/svg" width="400" height="301" fill="none"><rect width="300" height="400" x="400" y=".653" fill="#fff" rx="10" transform="rotate(90 400 .653)"/><path fill="#262626" d="M143.922 246.029v22.217h-2.979v-11.133h-1.831v10.059h-2.929v-20.776h2.929v8.203h1.831v-8.57h2.979Zm-19.507 14.575h1.88v-9.545h-1.465v-2.515h10.254v2.515h-1.44v9.228a47.188 47.188 0 0 0 1.635-.195l.171 2.27c-3.406.721-7.947.806-10.693.806l-.342-2.564Zm4.688-.048c.573-.025 1.171-.037 1.757-.074v-9.423h-1.757v9.497Zm29.296-12.403c-.024 6.836-1.904 12.659-10.302 16.773l-1.636-2.393c3.662-1.819 5.957-3.894 7.3-6.384l-6.739.598-.39-2.637 8.13-.488c.268-.928.427-1.929.525-2.978h-7.508v-2.491h10.62Zm3.394 20.093v-22.217h3.149v22.217h-3.149Zm14.697-16.162c-.012 3.589 1.843 7.434 5.567 8.984l-1.685 2.442c-2.612-1.111-4.419-3.321-5.42-6.006-1.001 2.917-2.844 5.359-5.469 6.567l-1.782-2.466c3.687-1.647 5.591-5.761 5.591-9.521v-1.367h-4.712v-2.539h12.549v2.539h-4.639v1.367Zm6.836 16.162v-22.217h3.15v22.217h-3.15Zm24.756-22.217v22.266h-3.149v-22.266h3.149Zm-17.261 16.968v-15.015h10.816v2.539h-7.691v9.839c3.98 0 6.433-.11 9.229-.61l.293 2.563c-3.076.586-5.908.684-10.718.684h-1.929Zm28.467-10.913c-.012 3.381 1.795 7.288 5.444 8.984l-1.733 2.442c-2.478-1.135-4.236-3.406-5.237-6.067-.989 2.93-2.82 5.42-5.383 6.628l-1.807-2.466c3.699-1.721 5.567-5.847 5.591-9.521v-1.367h-4.712v-2.539h12.305v2.539h-4.468v1.367Zm6.201 16.162v-22.217h3.125v8.472h3.272v2.612h-3.272v11.133h-3.125Zm25.806-22.217v22.266h-3.149v-22.266h3.149Zm-17.944 9.473c-.013-4.846 2.465-7.91 5.883-7.91 3.345 0 5.835 3.064 5.835 7.91 0 4.883-2.49 7.935-5.835 7.935-3.418 0-5.896-3.052-5.883-7.935Zm3.003 0c-.013 3.308 1.147 5.115 2.88 5.102 1.685.013 2.82-1.794 2.832-5.102-.012-3.296-1.147-5.103-2.832-5.103-1.733 0-2.893 1.807-2.88 5.103Zm36.718-9.473v22.266h-3.1v-12.866h-6.079v-2.539h6.079v-6.861h3.1Zm-17.627 17.041v-14.673h3.125v12.073c2.82-.049 5.725-.293 8.741-.866l.341 2.539c-3.589.744-7.006.927-10.327.927h-1.88Z"/><path fill="#FAFAFA" d="M96.805 91.831c-52.308 30.237-52.308 79.255 0 109.491 52.309 30.237 137.113 30.237 189.422 0 52.308-30.236 52.308-79.254 0-109.49-52.309-30.238-137.113-30.238-189.422 0Z"/><path fill="#E0E0E0" d="M266.849 130.34c-12.698 7.255-12.698 19.021 0 26.281 12.698 7.255 33.291 7.255 45.989 0s12.698-19.021 0-26.281c-12.698-7.255-33.286-7.255-45.989 0ZM177.981 83.46l-8.269-4.799c-.491-.288-1.291-.288-1.788 0L64.139 138.892c-.492.289-.497.749 0 1.038l8.346 4.882c.491.289 1.291.289 1.783 0l17.564-10.214c.243.183.502.361.778.516l13.452 7.806c1.623.943 3.743 1.459 5.962 1.459s4.338-.516 5.961-1.459l25.955-15.063c1.926-1.121 3.03-2.785 3.03-4.577 0-1.792-1.104-3.457-3.03-4.578l-12.403-7.196 46.45-27.014c.491-.277.491-.743-.006-1.032ZM101.308 152.054c4.15 2.428 4.15 6.36 0 8.788s-10.875 2.428-15.026 0c-4.15-2.428-4.15-6.36 0-8.788 4.15-2.423 10.876-2.423 15.026 0Z"/><path fill="#BA68C8" d="M258.469 196.692a.219.219 0 0 1-.099-.028l-41.285-23.872a.195.195 0 0 1-.099-.171c0-.072.039-.133.099-.171l33.245-19.227a.2.2 0 0 1 .193 0l41.28 23.872c.06.033.099.099.099.171a.202.202 0 0 1-.099.171l-33.24 19.227a.181.181 0 0 1-.094.028Zm-40.893-24.071 40.893 23.646 32.854-19.001-40.888-23.645-32.859 19ZM140.769 82.761a.223.223 0 0 1-.099-.028l-.579-.331-.579.331a.192.192 0 0 1-.265-.071.191.191 0 0 1 .072-.266l.672-.392a.2.2 0 0 1 .193 0l.673.392a.192.192 0 0 1 .072.266.17.17 0 0 1-.16.1ZM302.682 176.399a.219.219 0 0 1-.099-.028l-1.351-.778a.193.193 0 0 1-.072-.266.192.192 0 0 1 .265-.071l1.351.778a.194.194 0 0 1 .071.266.175.175 0 0 1-.165.099Zm-2.697-1.558a.23.23 0 0 1-.099-.027l-1.351-.779a.19.19 0 0 1-.071-.265.19.19 0 0 1 .264-.072l1.351.779a.192.192 0 0 1 .072.265.191.191 0 0 1-.166.099Zm-2.696-1.563a.23.23 0 0 1-.099-.027l-1.351-.779a.192.192 0 0 1-.072-.265.192.192 0 0 1 .265-.072l1.351.779a.192.192 0 0 1 .071.265.181.181 0 0 1-.165.099Zm-2.702-1.563a.219.219 0 0 1-.099-.028l-1.351-.778a.193.193 0 0 1-.072-.265.192.192 0 0 1 .265-.072l1.351.779a.19.19 0 0 1 .071.265.181.181 0 0 1-.165.099Zm-2.696-1.557a.236.236 0 0 1-.1-.028l-1.351-.779a.193.193 0 0 1-.071-.265.191.191 0 0 1 .264-.072l1.351.779a.192.192 0 0 1 .072.265.182.182 0 0 1-.165.1Zm-2.702-1.564a.234.234 0 0 1-.1-.027l-1.351-.779a.193.193 0 0 1-.071-.265.191.191 0 0 1 .264-.072l1.351.779a.192.192 0 0 1 .072.265c-.027.066-.094.099-.165.099Zm-2.697-1.557a.219.219 0 0 1-.099-.028l-1.351-.779a.192.192 0 0 1-.072-.265.192.192 0 0 1 .265-.072l1.351.779a.192.192 0 0 1 .072.265c-.033.061-.1.1-.166.1Zm-2.696-1.563a.219.219 0 0 1-.099-.028l-1.351-.779a.192.192 0 0 1-.072-.265.192.192 0 0 1 .265-.072l1.351.779a.193.193 0 0 1 .071.265.18.18 0 0 1-.165.1Zm-2.702-1.558a.219.219 0 0 1-.099-.028l-1.351-.778a.193.193 0 0 1-.072-.265.192.192 0 0 1 .265-.072l1.351.779a.193.193 0 0 1 .071.265.187.187 0 0 1-.165.099Zm-2.697-1.563a.219.219 0 0 1-.099-.028l-1.351-.778a.193.193 0 0 1-.072-.266.192.192 0 0 1 .265-.071l1.351.778a.193.193 0 0 1 .072.266.182.182 0 0 1-.166.099Zm-2.696-1.558a.23.23 0 0 1-.099-.027l-1.351-.779a.192.192 0 0 1-.072-.265.192.192 0 0 1 .265-.072l1.351.779a.193.193 0 0 1 .071.265.191.191 0 0 1-.165.099Zm-2.702-1.563a.23.23 0 0 1-.099-.027l-1.351-.779a.192.192 0 0 1-.072-.265.192.192 0 0 1 .265-.072l1.351.779a.192.192 0 0 1 .071.265.181.181 0 0 1-.165.099Zm-2.696-1.563a.23.23 0 0 1-.1-.027l-1.351-.779a.192.192 0 0 1-.071-.265.191.191 0 0 1 .264-.072l1.351.779a.192.192 0 0 1 .072.265.181.181 0 0 1-.165.099Zm-2.702-1.557a.222.222 0 0 1-.1-.028l-1.351-.779a.193.193 0 0 1-.071-.265.191.191 0 0 1 .264-.072l1.351.779a.192.192 0 0 1 .072.265.177.177 0 0 1-.165.1Zm-2.697-1.564a.23.23 0 0 1-.099-.027l-1.351-.779a.192.192 0 0 1-.072-.265.192.192 0 0 1 .265-.072l1.351.779a.192.192 0 0 1 .072.265.184.184 0 0 1-.166.099Zm-2.696-1.557a.226.226 0 0 1-.1-.028l-1.351-.779a.193.193 0 0 1-.071-.265.19.19 0 0 1 .264-.071l1.351.778a.193.193 0 0 1 .072.265.192.192 0 0 1-.165.1Zm-2.702-1.563a.219.219 0 0 1-.099-.028l-1.351-.779a.192.192 0 0 1-.072-.265.192.192 0 0 1 .265-.072l1.351.779a.193.193 0 0 1 .071.265.18.18 0 0 1-.165.1Zm-2.697-1.558a.23.23 0 0 1-.099-.027l-1.351-.779a.192.192 0 0 1-.072-.265.192.192 0 0 1 .265-.072l1.351.779a.192.192 0 0 1 .072.265.195.195 0 0 1-.166.099Zm-2.702-1.563a.219.219 0 0 1-.099-.028l-1.351-.778a.193.193 0 0 1-.072-.266.192.192 0 0 1 .265-.071l1.351.778a.193.193 0 0 1 .072.266.177.177 0 0 1-.166.099Zm-2.696-1.558a.23.23 0 0 1-.099-.027l-1.351-.779a.192.192 0 0 1-.072-.265.192.192 0 0 1 .265-.072l1.351.779a.192.192 0 0 1 .071.265.191.191 0 0 1-.165.099Zm-2.697-1.563a.23.23 0 0 1-.099-.027l-1.351-.779a.192.192 0 0 1-.071-.265.191.191 0 0 1 .264-.072l1.351.779a.192.192 0 0 1 .072.265.182.182 0 0 1-.166.099Zm-2.701-1.557a.219.219 0 0 1-.1-.028l-1.351-.779a.192.192 0 0 1-.071-.265.191.191 0 0 1 .264-.072l1.351.779a.192.192 0 0 1 .072.265.192.192 0 0 1-.165.1Zm-2.697-1.563a.219.219 0 0 1-.099-.028l-1.351-.779a.192.192 0 0 1-.072-.265.192.192 0 0 1 .265-.072l1.351.779a.192.192 0 0 1 .072.265c-.034.066-.1.1-.166.1Zm-2.702-1.564a.23.23 0 0 1-.099-.027l-1.351-.779a.192.192 0 0 1-.072-.265.192.192 0 0 1 .265-.072l1.351.779a.192.192 0 0 1 .072.265.177.177 0 0 1-.166.099Zm-2.696-1.557a.226.226 0 0 1-.1-.028l-1.351-.779a.193.193 0 0 1-.071-.265.19.19 0 0 1 .264-.071l1.351.778a.193.193 0 0 1 .072.265.18.18 0 0 1-.165.1Zm-2.697-1.563a.219.219 0 0 1-.099-.028l-1.351-.779a.192.192 0 0 1-.072-.265.192.192 0 0 1 .265-.072l1.351.779a.192.192 0 0 1 .072.265c-.033.067-.1.1-.166.1Zm-2.702-1.558a.23.23 0 0 1-.099-.027l-1.351-.779a.192.192 0 0 1-.072-.265.192.192 0 0 1 .265-.072l1.351.779a.192.192 0 0 1 .072.265.193.193 0 0 1-.166.099Zm-2.696-1.563a.219.219 0 0 1-.099-.028l-1.351-.778a.193.193 0 0 1-.072-.265.191.191 0 0 1 .265-.072l1.351.779a.193.193 0 0 1 .071.265.181.181 0 0 1-.165.099Zm-2.702-1.558a.23.23 0 0 1-.099-.027l-1.351-.779a.192.192 0 0 1-.072-.265.192.192 0 0 1 .265-.072l1.351.779a.192.192 0 0 1 .071.265.184.184 0 0 1-.165.099Zm-2.696-1.563a.23.23 0 0 1-.1-.027l-1.351-.779a.192.192 0 0 1-.071-.265.191.191 0 0 1 .264-.072l1.351.779a.192.192 0 0 1 .072.265.181.181 0 0 1-.165.099Zm-2.697-1.557a.219.219 0 0 1-.099-.028l-1.351-.779a.192.192 0 0 1-.072-.265.192.192 0 0 1 .265-.072l1.351.779a.19.19 0 0 1 .071.265.192.192 0 0 1-.165.1Zm-2.702-1.563a.219.219 0 0 1-.099-.028l-1.351-.779a.192.192 0 0 1-.072-.265.192.192 0 0 1 .265-.072l1.351.779a.192.192 0 0 1 .072.265c-.034.067-.1.1-.166.1Zm-2.696-1.563a.236.236 0 0 1-.1-.028l-1.351-.779a.193.193 0 0 1-.071-.265.191.191 0 0 1 .264-.072l1.351.779a.192.192 0 0 1 .072.265.182.182 0 0 1-.165.1Zm-2.702-1.558a.226.226 0 0 1-.1-.028l-1.351-.778a.194.194 0 0 1-.071-.266.19.19 0 0 1 .264-.071l1.351.778a.193.193 0 0 1 .072.266.176.176 0 0 1-.165.099Zm-2.697-1.563a.219.219 0 0 1-.099-.028l-1.351-.779a.192.192 0 0 1-.072-.265.192.192 0 0 1 .265-.072l1.351.779a.193.193 0 0 1 .072.265c-.033.067-.1.1-.166.1Zm-2.696-1.558a.23.23 0 0 1-.099-.027l-1.351-.779a.192.192 0 0 1-.072-.265.192.192 0 0 1 .265-.072l1.351.779a.193.193 0 0 1 .071.265.191.191 0 0 1-.165.099Zm-2.702-1.563a.219.219 0 0 1-.099-.028l-1.351-.778a.193.193 0 0 1-.072-.265.192.192 0 0 1 .265-.072l1.351.779a.193.193 0 0 1 .071.265.175.175 0 0 1-.165.099Zm-2.697-1.557a.232.232 0 0 1-.099-.028l-1.345-.779a.192.192 0 0 1-.072-.265.192.192 0 0 1 .265-.072l1.351.779a.192.192 0 0 1 .071.265.207.207 0 0 1-.171.1Zm-2.702-1.564a.23.23 0 0 1-.099-.027l-1.351-.779a.192.192 0 0 1-.071-.265.191.191 0 0 1 .264-.072l1.351.779a.192.192 0 0 1 .072.265c-.028.066-.094.099-.166.099Zm-2.696-1.557a.219.219 0 0 1-.099-.028l-1.351-.779a.192.192 0 0 1-.072-.265.192.192 0 0 1 .265-.072l1.351.779a.191.191 0 0 1 .071.265.192.192 0 0 1-.165.1Zm-2.696-1.563a.222.222 0 0 1-.1-.028l-1.351-.779a.193.193 0 0 1-.071-.265.191.191 0 0 1 .264-.072l1.351.779a.192.192 0 0 1 .072.265.18.18 0 0 1-.165.1Zm-2.702-1.558a.226.226 0 0 1-.1-.028l-1.351-.778a.193.193 0 0 1-.071-.265.191.191 0 0 1 .264-.072l1.351.779a.192.192 0 0 1 .072.265.187.187 0 0 1-.165.099Zm-2.697-1.563a.219.219 0 0 1-.099-.028l-1.351-.778a.193.193 0 0 1-.072-.266.192.192 0 0 1 .265-.071l1.351.778a.193.193 0 0 1 .072.266.183.183 0 0 1-.166.099Zm-2.696-1.563a.219.219 0 0 1-.099-.028l-1.351-.779a.192.192 0 0 1-.072-.265.19.19 0 0 1 .265-.071l1.351.778a.193.193 0 0 1 .071.265.18.18 0 0 1-.165.1Zm-2.702-1.558a.23.23 0 0 1-.099-.027l-1.351-.779a.192.192 0 0 1-.072-.265.192.192 0 0 1 .265-.072l1.351.779a.193.193 0 0 1 .071.265.181.181 0 0 1-.165.099Zm-2.697-1.563a.23.23 0 0 1-.099-.027l-1.351-.779a.192.192 0 0 1-.072-.265.192.192 0 0 1 .265-.072l1.351.779a.192.192 0 0 1 .072.265.182.182 0 0 1-.166.099Zm-2.702-1.557a.219.219 0 0 1-.099-.028l-1.351-.779a.19.19 0 0 1-.071-.265.19.19 0 0 1 .264-.072l1.351.779a.192.192 0 0 1 .072.265.187.187 0 0 1-.166.1Zm-2.696-1.564a.23.23 0 0 1-.099-.027l-1.351-.779a.192.192 0 0 1-.072-.265.192.192 0 0 1 .265-.072l1.351.779a.192.192 0 0 1 .071.265.181.181 0 0 1-.165.099Zm-2.696-1.557a.219.219 0 0 1-.1-.028l-1.351-.779a.193.193 0 0 1-.071-.265.19.19 0 0 1 .264-.071l1.351.778a.193.193 0 0 1 .072.265.192.192 0 0 1-.165.1Zm-2.702-1.563a.227.227 0 0 1-.1-.028l-1.351-.779a.193.193 0 0 1-.071-.265.191.191 0 0 1 .264-.072l1.351.78a.192.192 0 0 1 .072.264.181.181 0 0 1-.165.1Zm-2.697-1.558a.223.223 0 0 1-.099-.028l-1.351-.778a.192.192 0 0 1-.072-.265.192.192 0 0 1 .265-.072l1.351.779a.192.192 0 0 1 .072.265c-.033.06-.1.1-.166.1Zm-2.702-1.563a.223.223 0 0 1-.099-.028l-1.351-.778a.192.192 0 0 1-.072-.266.192.192 0 0 1 .265-.071l1.351.778a.192.192 0 0 1 .072.266c-.028.066-.094.099-.166.099Zm-2.696-1.563a.223.223 0 0 1-.099-.028l-1.351-.778a.192.192 0 0 1-.072-.266.192.192 0 0 1 .265-.071l1.351.778a.193.193 0 0 1 .071.265.181.181 0 0 1-.165.1Zm-2.697-1.558a.223.223 0 0 1-.099-.027l-1.351-.78a.192.192 0 0 1-.072-.264.192.192 0 0 1 .265-.072l1.351.779a.192.192 0 0 1 .072.265.182.182 0 0 1-.166.1Zm-2.702-1.563a.223.223 0 0 1-.099-.027l-1.351-.78a.192.192 0 0 1-.072-.264.192.192 0 0 1 .265-.072l1.351.779a.192.192 0 0 1 .072.265.177.177 0 0 1-.166.1Zm-2.696-1.557a.223.223 0 0 1-.099-.028l-1.351-.779a.192.192 0 0 1-.072-.265.192.192 0 0 1 .265-.072l1.351.78a.192.192 0 0 1 .071.264.192.192 0 0 1-.165.1Zm-2.696-1.564a.223.223 0 0 1-.1-.027l-1.351-.779a.192.192 0 0 1-.071-.265.19.19 0 0 1 .264-.072l1.351.779a.192.192 0 0 1 .072.265.181.181 0 0 1-.165.1Zm-2.702-1.557a.223.223 0 0 1-.1-.028l-1.351-.779a.193.193 0 0 1-.071-.265.19.19 0 0 1 .264-.071l1.351.778a.192.192 0 0 1 .072.266.192.192 0 0 1-.165.099Zm-2.697-1.563a.224.224 0 0 1-.099-.028l-1.351-.779a.192.192 0 0 1-.072-.265.192.192 0 0 1 .265-.072l1.351.78a.192.192 0 0 1 .072.264c-.034.067-.1.1-.166.1Zm-2.702-1.558a.224.224 0 0 1-.099-.027l-1.351-.78a.192.192 0 0 1-.072-.264.192.192 0 0 1 .265-.072l1.351.779a.192.192 0 0 1 .072.265.187.187 0 0 1-.166.1ZM304.034 177.962a.195.195 0 0 1-.171-.099.191.191 0 0 1 .071-.265l.381-.221-.381-.221a.193.193 0 0 1-.071-.265.191.191 0 0 1 .264-.072l.673.392a.193.193 0 0 1 .099.171.2.2 0 0 1-.099.171l-.673.393c-.027.005-.06.016-.093.016ZM260.321 203.242a.197.197 0 0 1-.171-.099.192.192 0 0 1 .072-.265l1.368-.79a.191.191 0 0 1 .264.072.193.193 0 0 1-.071.265l-1.368.79a.193.193 0 0 1-.094.027Zm2.73-1.579a.195.195 0 0 1-.171-.1.192.192 0 0 1 .072-.265l1.367-.79a.192.192 0 0 1 .265.072.192.192 0 0 1-.072.265l-1.367.79a.184.184 0 0 1-.094.028Zm2.735-1.58a.196.196 0 0 1-.099-.365l1.367-.789a.192.192 0 0 1 .265.071.193.193 0 0 1-.072.266l-1.367.789a.184.184 0 0 1-.094.028Zm2.729-1.58a.197.197 0 0 1-.171-.099.192.192 0 0 1 .072-.265l1.368-.79a.191.191 0 0 1 .264.072.193.193 0 0 1-.071.265l-1.368.79a.19.19 0 0 1-.094.027Zm2.735-1.579a.198.198 0 0 1-.171-.1.192.192 0 0 1 .072-.265l1.368-.79a.191.191 0 0 1 .264.072.193.193 0 0 1-.071.265l-1.368.79a.181.181 0 0 1-.094.028Zm2.73-1.586a.197.197 0 0 1-.171-.099.192.192 0 0 1 .072-.265l1.367-.79a.192.192 0 0 1 .265.072.192.192 0 0 1-.072.265l-1.367.79a.146.146 0 0 1-.094.027Zm2.735-1.579a.196.196 0 0 1-.171-.1.192.192 0 0 1 .072-.265l1.367-.79a.192.192 0 0 1 .265.072.192.192 0 0 1-.072.265l-1.367.79a.147.147 0 0 1-.094.028Zm2.729-1.58a.195.195 0 0 1-.17-.099.192.192 0 0 1 .071-.266l1.368-.789a.19.19 0 0 1 .264.071.193.193 0 0 1-.071.266l-1.368.789c-.027.023-.06.028-.094.028Zm2.73-1.58a.197.197 0 0 1-.171-.099.192.192 0 0 1 .072-.265l1.367-.79a.192.192 0 0 1 .265.072.192.192 0 0 1-.072.265l-1.367.79c-.022.022-.061.027-.094.027Zm2.735-1.579a.196.196 0 0 1-.171-.1.192.192 0 0 1 .072-.265l1.367-.79a.192.192 0 0 1 .265.072.192.192 0 0 1-.072.265l-1.367.79a.147.147 0 0 1-.094.028Zm2.73-1.58a.195.195 0 0 1-.171-.099.193.193 0 0 1 .071-.266l1.368-.789a.19.19 0 0 1 .264.071.192.192 0 0 1-.071.266l-1.368.789a.142.142 0 0 1-.093.028Zm2.735-1.58a.195.195 0 0 1-.171-.099.192.192 0 0 1 .071-.265l1.368-.79a.192.192 0 0 1 .265.072.192.192 0 0 1-.072.265l-1.368.79a.187.187 0 0 1-.093.027Zm2.729-1.579a.198.198 0 0 1-.171-.1.192.192 0 0 1 .072-.265l1.367-.79a.192.192 0 0 1 .265.072.192.192 0 0 1-.072.265l-1.367.79a.184.184 0 0 1-.094.028Zm2.735-1.58a.196.196 0 0 1-.171-.1.193.193 0 0 1 .072-.265l1.367-.789a.19.19 0 0 1 .265.071.192.192 0 0 1-.072.265l-1.367.79a.184.184 0 0 1-.094.028Zm2.73-1.58a.195.195 0 0 1-.171-.099.193.193 0 0 1 .071-.265l1.368-.79a.192.192 0 0 1 .265.072.192.192 0 0 1-.072.265l-1.368.79a.187.187 0 0 1-.093.027Zm2.735-1.579a.197.197 0 0 1-.171-.1.193.193 0 0 1 .071-.265l1.368-.79a.192.192 0 0 1 .265.072.192.192 0 0 1-.072.265l-1.368.79a.188.188 0 0 1-.093.028ZM258.282 204.425a.219.219 0 0 1-.1-.028l-.672-.392a.192.192 0 0 1-.072-.265.192.192 0 0 1 .265-.072l.579.331.579-.331a.191.191 0 0 1 .264.072.191.191 0 0 1-.071.265l-.673.392a.219.219 0 0 1-.099.028ZM256.258 203.254a.219.219 0 0 1-.099-.028l-1.351-.779a.192.192 0 0 1-.072-.265.192.192 0 0 1 .265-.072l1.351.779a.191.191 0 0 1 .071.265.192.192 0 0 1-.165.1Zm-2.702-1.563a.219.219 0 0 1-.099-.028l-1.351-.779a.192.192 0 0 1-.072-.265.192.192 0 0 1 .265-.072l1.351.779a.192.192 0 0 1 .072.265c-.034.067-.1.1-.166.1Zm-2.696-1.558a.234.234 0 0 1-.1-.027l-1.351-.779a.193.193 0 0 1-.071-.265.191.191 0 0 1 .264-.072l1.351.779a.192.192 0 0 1 .072.265.193.193 0 0 1-.165.099Zm-2.702-1.563a.226.226 0 0 1-.1-.028l-1.351-.778a.194.194 0 0 1-.071-.266.19.19 0 0 1 .264-.071l1.351.778a.193.193 0 0 1 .072.266c-.027.066-.094.099-.165.099Zm-2.697-1.558a.23.23 0 0 1-.099-.027l-1.351-.779a.192.192 0 0 1-.072-.265.192.192 0 0 1 .265-.072l1.351.779a.192.192 0 0 1 .072.265.193.193 0 0 1-.166.099Zm-2.696-1.563a.23.23 0 0 1-.099-.027l-1.351-.779a.192.192 0 0 1-.072-.265.192.192 0 0 1 .265-.072l1.351.779a.193.193 0 0 1 .071.265.181.181 0 0 1-.165.099Zm-2.702-1.563a.23.23 0 0 1-.099-.027l-1.351-.779a.192.192 0 0 1-.072-.265.192.192 0 0 1 .265-.072l1.351.779a.193.193 0 0 1 .071.265.175.175 0 0 1-.165.099Zm-2.697-1.557a.219.219 0 0 1-.099-.028l-1.351-.779a.19.19 0 0 1-.071-.265.19.19 0 0 1 .264-.072l1.351.779a.192.192 0 0 1 .072.265.192.192 0 0 1-.166.1Zm-2.696-1.564a.23.23 0 0 1-.099-.027l-1.351-.779a.192.192 0 0 1-.072-.265.192.192 0 0 1 .265-.072l1.351.779a.192.192 0 0 1 .071.265.181.181 0 0 1-.165.099Zm-2.702-1.557a.219.219 0 0 1-.099-.028l-1.351-.779a.192.192 0 0 1-.072-.265.19.19 0 0 1 .265-.071l1.351.778a.191.191 0 0 1 .071.265.192.192 0 0 1-.165.1Zm-2.696-1.563a.222.222 0 0 1-.1-.028l-1.351-.779a.193.193 0 0 1-.071-.265.191.191 0 0 1 .264-.072l1.351.779a.192.192 0 0 1 .072.265.18.18 0 0 1-.165.1Zm-2.702-1.558a.234.234 0 0 1-.1-.027l-1.351-.779a.193.193 0 0 1-.071-.265.191.191 0 0 1 .264-.072l1.351.779a.192.192 0 0 1 .072.265.185.185 0 0 1-.165.099Zm-2.697-1.563a.219.219 0 0 1-.099-.028l-1.351-.778a.193.193 0 0 1-.072-.265.191.191 0 0 1 .265-.072l1.351.779a.192.192 0 0 1 .072.265.183.183 0 0 1-.166.099Zm-2.696-1.563a.219.219 0 0 1-.099-.028l-1.351-.778a.193.193 0 0 1-.072-.266.192.192 0 0 1 .265-.071l1.351.778a.194.194 0 0 1 .071.266.181.181 0 0 1-.165.099Zm-2.702-1.558a.23.23 0 0 1-.099-.027l-1.351-.779a.192.192 0 0 1-.072-.265.192.192 0 0 1 .265-.072l1.351.779a.193.193 0 0 1 .071.265.181.181 0 0 1-.165.099Zm-2.697-1.563a.23.23 0 0 1-.099-.027l-1.351-.779a.192.192 0 0 1-.072-.265.192.192 0 0 1 .265-.072l1.351.779a.192.192 0 0 1 .072.265.182.182 0 0 1-.166.099Zm-2.702-1.557a.219.219 0 0 1-.099-.028l-1.351-.779a.19.19 0 0 1-.071-.265.19.19 0 0 1 .264-.072l1.351.779a.192.192 0 0 1 .072.265.187.187 0 0 1-.166.1Zm-2.696-1.563a.232.232 0 0 1-.099-.028l-1.351-.779a.192.192 0 0 1-.072-.265.192.192 0 0 1 .265-.072l1.351.779a.192.192 0 0 1 .071.265.182.182 0 0 1-.165.1Zm-2.696-1.558a.219.219 0 0 1-.1-.028l-1.351-.778a.193.193 0 0 1-.071-.266.19.19 0 0 1 .264-.071l1.351.778a.193.193 0 0 1 .072.266.193.193 0 0 1-.165.099Zm-2.702-1.563a.222.222 0 0 1-.1-.028l-1.351-.779a.193.193 0 0 1-.071-.265.191.191 0 0 1 .264-.072l1.351.779a.192.192 0 0 1 .072.265.18.18 0 0 1-.165.1Zm-2.697-1.558a.23.23 0 0 1-.099-.027l-1.351-.779a.192.192 0 0 1-.072-.265.192.192 0 0 1 .265-.072l1.351.779a.192.192 0 0 1 .072.265.194.194 0 0 1-.166.099Zm-2.702-1.563a.219.219 0 0 1-.099-.028l-1.351-.778a.193.193 0 0 1-.072-.265.192.192 0 0 1 .265-.072l1.351.779a.192.192 0 0 1 .072.265.177.177 0 0 1-.166.099Zm-2.696-1.563a.219.219 0 0 1-.099-.028l-1.351-.778a.193.193 0 0 1-.072-.266.192.192 0 0 1 .265-.071l1.351.778a.194.194 0 0 1 .071.266.181.181 0 0 1-.165.099Zm-2.697-1.558a.23.23 0 0 1-.099-.027l-1.351-.779a.192.192 0 0 1-.072-.265.192.192 0 0 1 .265-.072l1.351.779a.192.192 0 0 1 .072.265.182.182 0 0 1-.166.099Zm-2.702-1.563a.23.23 0 0 1-.099-.027l-1.351-.779a.192.192 0 0 1-.072-.265.192.192 0 0 1 .265-.072l1.351.779a.192.192 0 0 1 .072.265.182.182 0 0 1-.166.099Zm-2.696-1.557a.219.219 0 0 1-.099-.028l-1.351-.779a.192.192 0 0 1-.072-.265.192.192 0 0 1 .265-.072l1.351.779a.192.192 0 0 1 .071.265.192.192 0 0 1-.165.1Zm-2.702-1.563a.219.219 0 0 1-.099-.028l-1.351-.779a.192.192 0 0 1-.072-.265.192.192 0 0 1 .265-.072l1.351.779a.192.192 0 0 1 .071.265.176.176 0 0 1-.165.1Zm-2.696-1.558a.219.219 0 0 1-.1-.028l-1.351-.778a.193.193 0 0 1-.071-.266.19.19 0 0 1 .264-.071l1.351.778a.193.193 0 0 1 .072.266.193.193 0 0 1-.165.099Zm-2.697-1.563a.219.219 0 0 1-.099-.028l-1.351-.779a.192.192 0 0 1-.072-.265.19.19 0 0 1 .265-.071l1.351.778a.193.193 0 0 1 .072.265c-.034.067-.1.1-.166.1Zm-2.702-1.558a.23.23 0 0 1-.099-.027l-1.351-.779a.192.192 0 0 1-.072-.265.192.192 0 0 1 .265-.072l1.351.779a.192.192 0 0 1 .072.265.194.194 0 0 1-.166.099Zm-2.696-1.563a.238.238 0 0 1-.1-.027l-1.351-.779a.193.193 0 0 1-.071-.265.191.191 0 0 1 .264-.072l1.351.779a.192.192 0 0 1 .072.265.181.181 0 0 1-.165.099Zm-2.702-1.557a.232.232 0 0 1-.099-.028l-1.351-.779a.192.192 0 0 1-.072-.265.192.192 0 0 1 .265-.072l1.351.779a.193.193 0 0 1 .071.265.186.186 0 0 1-.165.1Zm-2.697-1.564a.23.23 0 0 1-.099-.027l-1.351-.779a.192.192 0 0 1-.072-.265.192.192 0 0 1 .265-.072l1.351.779a.192.192 0 0 1 .072.265.183.183 0 0 1-.166.099Zm-2.696-1.563a.23.23 0 0 1-.099-.027l-1.351-.779a.192.192 0 0 1-.072-.265.192.192 0 0 1 .265-.072l1.351.779a.193.193 0 0 1 .071.265.181.181 0 0 1-.165.099Zm-2.702-1.557a.219.219 0 0 1-.099-.028l-1.351-.779a.192.192 0 0 1-.072-.265.192.192 0 0 1 .265-.072l1.351.779a.192.192 0 0 1 .071.265.192.192 0 0 1-.165.1Zm-2.697-1.563a.219.219 0 0 1-.099-.028l-1.351-.779a.192.192 0 0 1-.071-.265.191.191 0 0 1 .264-.072l1.351.779a.192.192 0 0 1 .072.265.183.183 0 0 1-.166.1Zm-2.701-1.558a.219.219 0 0 1-.1-.028l-1.351-.778a.193.193 0 0 1-.071-.266.19.19 0 0 1 .264-.071l1.351.778a.193.193 0 0 1 .072.266.181.181 0 0 1-.165.099Zm-2.697-1.563a.219.219 0 0 1-.099-.028l-1.351-.779a.192.192 0 0 1-.072-.265.19.19 0 0 1 .265-.071l1.351.778a.193.193 0 0 1 .072.265c-.034.067-.1.1-.166.1Zm-2.696-1.558a.234.234 0 0 1-.1-.027l-1.351-.779a.193.193 0 0 1-.071-.265.191.191 0 0 1 .264-.072l1.351.779a.192.192 0 0 1 .072.265.191.191 0 0 1-.165.099Zm-2.702-1.563a.238.238 0 0 1-.1-.027l-1.351-.779a.193.193 0 0 1-.071-.265.191.191 0 0 1 .264-.072l1.351.779a.192.192 0 0 1 .072.265.176.176 0 0 1-.165.099Zm-2.697-1.563a.219.219 0 0 1-.099-.028l-1.351-.778a.193.193 0 0 1-.072-.265.191.191 0 0 1 .265-.072l1.351.779a.192.192 0 0 1 .072.265.183.183 0 0 1-.166.099Zm-2.696-1.558a.23.23 0 0 1-.099-.027l-1.351-.779a.192.192 0 0 1-.072-.265.192.192 0 0 1 .265-.072l1.351.779a.193.193 0 0 1 .071.265.181.181 0 0 1-.165.099Zm-2.702-1.563a.23.23 0 0 1-.099-.027l-1.351-.779a.192.192 0 0 1-.072-.265.192.192 0 0 1 .265-.072l1.351.779a.193.193 0 0 1 .071.265.181.181 0 0 1-.165.099Zm-2.697-1.557a.219.219 0 0 1-.099-.028l-1.351-.779a.19.19 0 0 1-.071-.265.19.19 0 0 1 .264-.072l1.351.779a.192.192 0 0 1 .072.265.192.192 0 0 1-.166.1Zm-2.702-1.563a.219.219 0 0 1-.099-.028l-1.351-.779a.192.192 0 0 1-.071-.265.191.191 0 0 1 .264-.072l1.351.779a.192.192 0 0 1 .072.265.176.176 0 0 1-.166.1Zm-2.696-1.558a.219.219 0 0 1-.099-.028l-1.351-.778a.193.193 0 0 1-.072-.265.191.191 0 0 1 .265-.072l1.351.779a.19.19 0 0 1 .071.265.193.193 0 0 1-.165.099Zm-2.696-1.563a.222.222 0 0 1-.1-.028l-1.351-.778a.194.194 0 0 1-.071-.266.19.19 0 0 1 .264-.071l1.351.778a.193.193 0 0 1 .072.266.181.181 0 0 1-.165.099Zm-2.702-1.558a.234.234 0 0 1-.1-.027l-1.351-.779a.193.193 0 0 1-.071-.265.191.191 0 0 1 .264-.072l1.351.779a.192.192 0 0 1 .072.265.191.191 0 0 1-.165.099Zm-2.697-1.563a.23.23 0 0 1-.099-.027l-1.351-.779a.192.192 0 0 1-.072-.265.192.192 0 0 1 .265-.072l1.351.779a.192.192 0 0 1 .072.265.183.183 0 0 1-.166.099Zm-2.702-1.563a.219.219 0 0 1-.099-.028l-1.351-.778a.193.193 0 0 1-.072-.265.192.192 0 0 1 .265-.072l1.351.779a.192.192 0 0 1 .072.265.177.177 0 0 1-.166.099Zm-2.696-1.557a.232.232 0 0 1-.099-.028l-1.351-.779a.192.192 0 0 1-.072-.265.192.192 0 0 1 .265-.072l1.351.779a.193.193 0 0 1 .071.265.182.182 0 0 1-.165.1Zm-2.697-1.564a.23.23 0 0 1-.099-.027l-1.351-.779a.192.192 0 0 1-.072-.265.192.192 0 0 1 .265-.072l1.351.779a.192.192 0 0 1 .072.265.182.182 0 0 1-.166.099Zm-2.702-1.557a.219.219 0 0 1-.099-.028l-1.351-.779a.19.19 0 0 1-.071-.265.19.19 0 0 1 .264-.072l1.351.779a.192.192 0 0 1 .072.265.192.192 0 0 1-.166.1Zm-2.696-1.563a.219.219 0 0 1-.099-.028l-1.351-.779a.192.192 0 0 1-.072-.265.192.192 0 0 1 .265-.072l1.351.779a.192.192 0 0 1 .071.265.18.18 0 0 1-.165.1Zm-2.702-1.558a.219.219 0 0 1-.099-.028l-1.351-.778a.193.193 0 0 1-.072-.265.192.192 0 0 1 .265-.072l1.351.779a.19.19 0 0 1 .071.265.18.18 0 0 1-.165.099Zm-2.696-1.563a.222.222 0 0 1-.1-.028l-1.351-.778a.194.194 0 0 1-.071-.266.19.19 0 0 1 .264-.071l1.351.778a.193.193 0 0 1 .072.266.181.181 0 0 1-.165.099Zm-2.697-1.558a.23.23 0 0 1-.099-.027l-1.351-.779a.192.192 0 0 1-.072-.265.192.192 0 0 1 .265-.072l1.351.779a.192.192 0 0 1 .072.265.193.193 0 0 1-.166.099Zm-2.702-1.563a.23.23 0 0 1-.099-.027l-1.351-.779a.192.192 0 0 1-.072-.265.192.192 0 0 1 .265-.072l1.351.779a.192.192 0 0 1 .072.265.183.183 0 0 1-.166.099Zm-2.696-1.563a.231.231 0 0 1-.1-.027l-1.35-.779a.192.192 0 0 1-.072-.265.192.192 0 0 1 .265-.072l1.35.779a.192.192 0 0 1 .072.265.182.182 0 0 1-.165.099Zm-2.697-1.557a.22.22 0 0 1-.099-.028l-1.35-.779a.192.192 0 0 1-.073-.265.192.192 0 0 1 .265-.072l1.351.779a.192.192 0 0 1 .072.265c-.033.066-.1.1-.166.1ZM94.339 109.61a.23.23 0 0 1-.1-.027l-.672-.393a.194.194 0 0 1-.1-.171c0-.072.04-.132.1-.171l.673-.392a.192.192 0 0 1 .264.072.192.192 0 0 1-.071.265l-.38.221.38.221a.192.192 0 0 1 .071.265.174.174 0 0 1-.165.11ZM95.707 108.042a.195.195 0 0 1-.171-.1.192.192 0 0 1 .072-.265l1.367-.79a.192.192 0 0 1 .265.072.192.192 0 0 1-.072.265l-1.367.79a.182.182 0 0 1-.094.028Zm2.73-1.58a.196.196 0 0 1-.1-.365l1.368-.789a.191.191 0 0 1 .264.071.193.193 0 0 1-.071.266l-1.368.789a.182.182 0 0 1-.094.028Zm2.735-1.58a.195.195 0 0 1-.171-.099.192.192 0 0 1 .071-.265l1.368-.79a.19.19 0 0 1 .264.072.19.19 0 0 1-.071.265l-1.368.79a.187.187 0 0 1-.093.027Zm2.729-1.579a.198.198 0 0 1-.171-.1.19.19 0 0 1 .072-.265l1.367-.79a.192.192 0 0 1 .265.072.19.19 0 0 1-.072.265l-1.367.79a.184.184 0 0 1-.094.028Zm2.735-1.58a.197.197 0 0 1-.171-.099.192.192 0 0 1 .072-.266l1.367-.789a.19.19 0 0 1 .265.071.19.19 0 0 1-.072.265l-1.367.79a.184.184 0 0 1-.094.028Zm2.73-1.58a.195.195 0 0 1-.171-.099.193.193 0 0 1 .071-.265l1.368-.79a.192.192 0 0 1 .265.072.192.192 0 0 1-.072.265l-1.368.79a.187.187 0 0 1-.093.027Zm2.735-1.58a.195.195 0 0 1-.171-.099.193.193 0 0 1 .071-.265l1.368-.79a.192.192 0 0 1 .265.072.192.192 0 0 1-.072.265l-1.368.79a.181.181 0 0 1-.093.028Zm2.729-1.58a.197.197 0 0 1-.171-.099.192.192 0 0 1 .072-.265l1.367-.79a.192.192 0 0 1 .265.072.192.192 0 0 1-.072.265l-1.367.79a.189.189 0 0 1-.094.028Zm2.73-1.579a.196.196 0 0 1-.171-.1.193.193 0 0 1 .071-.264l1.368-.79a.192.192 0 0 1 .265.072.192.192 0 0 1-.072.265l-1.368.79a.157.157 0 0 1-.093.027Zm2.735-1.585a.196.196 0 0 1-.171-.1.192.192 0 0 1 .071-.265l1.368-.79a.192.192 0 0 1 .265.072.191.191 0 0 1-.072.265l-1.368.79a.141.141 0 0 1-.093.028Zm2.729-1.58a.197.197 0 0 1-.171-.1.192.192 0 0 1 .072-.264l1.368-.79a.191.191 0 0 1 .264.072.193.193 0 0 1-.071.265l-1.368.79c-.022.022-.061.027-.094.027Zm2.735-1.58a.197.197 0 0 1-.171-.099.192.192 0 0 1 .072-.265l1.368-.79a.191.191 0 0 1 .264.072.193.193 0 0 1-.071.265l-1.368.79a.146.146 0 0 1-.094.028Zm2.73-1.58a.196.196 0 0 1-.171-.098.192.192 0 0 1 .072-.266l1.367-.79a.192.192 0 0 1 .265.072.191.191 0 0 1-.072.266l-1.367.79a.146.146 0 0 1-.094.027Zm2.735-1.579a.197.197 0 0 1-.171-.1.191.191 0 0 1 .072-.264l1.367-.79a.192.192 0 0 1 .265.072.191.191 0 0 1-.072.265l-1.367.79a.146.146 0 0 1-.094.027Zm2.729-1.58a.197.197 0 0 1-.171-.099.191.191 0 0 1 .072-.265l1.368-.79a.19.19 0 0 1 .264.072.192.192 0 0 1-.071.265l-1.368.79a.144.144 0 0 1-.094.028Zm2.735-1.58a.197.197 0 0 1-.171-.099.191.191 0 0 1 .072-.265l1.368-.79a.19.19 0 0 1 .264.072.19.19 0 0 1-.071.265l-1.368.79a.142.142 0 0 1-.094.028Z"/><path fill="#BA68C8" d="M159.087 147.058a.197.197 0 0 1-.171-.099.192.192 0 0 1 .072-.265l.534-.309a.19.19 0 0 1 .265.071.192.192 0 0 1-.072.265l-.534.31a.193.193 0 0 1-.094.027Zm1.886-1.093a.195.195 0 0 1-.171-.1.193.193 0 0 1 .071-.265l1.351-.779a.192.192 0 0 1 .265.072.192.192 0 0 1-.072.265l-1.351.779a.142.142 0 0 1-.093.028Zm2.702-1.558a.195.195 0 0 1-.171-.099.193.193 0 0 1 .071-.265l1.351-.779a.192.192 0 0 1 .265.072.192.192 0 0 1-.072.265l-1.351.779a.187.187 0 0 1-.093.027Zm2.696-1.563a.197.197 0 0 1-.171-.099.193.193 0 0 1 .072-.266l1.351-.778a.19.19 0 0 1 .264.071.192.192 0 0 1-.071.266l-1.351.778a.141.141 0 0 1-.094.028Zm2.702-1.558a.197.197 0 0 1-.171-.099.192.192 0 0 1 .072-.265l1.351-.779a.19.19 0 0 1 .264.072.19.19 0 0 1-.071.265l-1.351.779a.193.193 0 0 1-.094.027Zm2.702-1.563a.197.197 0 0 1-.171-.099.192.192 0 0 1 .072-.265l1.351-.779a.191.191 0 0 1 .264.072.192.192 0 0 1-.071.265l-1.351.779a.193.193 0 0 1-.094.027Zm2.696-1.563a.195.195 0 0 1-.17-.099.19.19 0 0 1 .071-.265l1.351-.779a.192.192 0 0 1 .265.072.192.192 0 0 1-.072.265l-1.351.779a.142.142 0 0 1-.094.027Zm2.702-1.557a.198.198 0 0 1-.171-.1.192.192 0 0 1 .072-.265l1.351-.779a.192.192 0 0 1 .265.072.192.192 0 0 1-.072.265l-1.351.779a.181.181 0 0 1-.094.028Zm2.697-1.564a.197.197 0 0 1-.171-.099.192.192 0 0 1 .072-.265l1.351-.779a.191.191 0 0 1 .264.072.193.193 0 0 1-.071.265l-1.351.779a.193.193 0 0 1-.094.027Zm2.702-1.563a.196.196 0 0 1-.171-.099.192.192 0 0 1 .072-.265l1.351-.779a.191.191 0 0 1 .264.072.193.193 0 0 1-.071.265l-1.351.779a.146.146 0 0 1-.094.027Zm2.696-1.557a.196.196 0 0 1-.171-.1.192.192 0 0 1 .072-.265l1.351-.779a.192.192 0 0 1 .265.072.192.192 0 0 1-.072.265l-1.351.779a.155.155 0 0 1-.094.028Zm2.702-1.563a.196.196 0 0 1-.171-.1.192.192 0 0 1 .072-.265l1.351-.779a.192.192 0 0 1 .265.072.192.192 0 0 1-.072.265l-1.351.779a.184.184 0 0 1-.094.028Zm2.702-1.563a.198.198 0 0 1-.171-.1.192.192 0 0 1 .072-.265l1.351-.779a.192.192 0 0 1 .265.072.192.192 0 0 1-.072.265l-1.351.779a.147.147 0 0 1-.094.028Zm2.697-1.558a.195.195 0 0 1-.171-.099.193.193 0 0 1 .071-.266l1.351-.778a.192.192 0 0 1 .265.071.193.193 0 0 1-.072.266l-1.351.778a.178.178 0 0 1-.093.028Zm2.702-1.563a.194.194 0 0 1-.171-.1.192.192 0 0 1 .071-.265l1.351-.779a.192.192 0 0 1 .265.072.192.192 0 0 1-.072.265l-1.351.779a.178.178 0 0 1-.093.028Zm2.696-1.563a.196.196 0 0 1-.171-.1.192.192 0 0 1 .072-.265l1.351-.779a.191.191 0 0 1 .264.072.192.192 0 0 1-.071.265l-1.351.779c-.022.022-.055.028-.094.028Zm2.702-1.558a.197.197 0 0 1-.171-.099.192.192 0 0 1 .072-.265l1.351-.779a.191.191 0 0 1 .264.072.193.193 0 0 1-.071.265l-1.351.779a.193.193 0 0 1-.094.027Zm2.702-1.563a.197.197 0 0 1-.171-.099.193.193 0 0 1 .072-.266l1.351-.778a.19.19 0 0 1 .264.071.194.194 0 0 1-.071.266l-1.351.778a.184.184 0 0 1-.094.028ZM192.856 166.589a.195.195 0 0 1-.171-.099.194.194 0 0 1 .071-.266l.535-.309a.192.192 0 0 1 .265.072.192.192 0 0 1-.072.265l-.535.309a.178.178 0 0 1-.093.028Zm1.886-1.094a.195.195 0 0 1-.171-.099.192.192 0 0 1 .071-.265l1.351-.779a.192.192 0 0 1 .265.072.192.192 0 0 1-.072.265l-1.351.779a.187.187 0 0 1-.093.027Zm2.701-1.563a.195.195 0 0 1-.17-.099.19.19 0 0 1 .071-.265l1.351-.779a.192.192 0 0 1 .265.072.192.192 0 0 1-.072.265l-1.351.779a.142.142 0 0 1-.094.027Zm2.697-1.557a.196.196 0 0 1-.171-.1.192.192 0 0 1 .072-.265l1.351-.779a.191.191 0 0 1 .264.072.193.193 0 0 1-.071.265l-1.351.779a.184.184 0 0 1-.094.028Zm2.702-1.563a.198.198 0 0 1-.171-.1.192.192 0 0 1 .072-.265l1.351-.779a.191.191 0 0 1 .264.072.193.193 0 0 1-.071.265l-1.351.779a.184.184 0 0 1-.094.028Zm2.696-1.564a.197.197 0 0 1-.171-.099.192.192 0 0 1 .072-.265l1.351-.779a.192.192 0 0 1 .265.072.192.192 0 0 1-.072.265l-1.351.779a.146.146 0 0 1-.094.027Zm2.702-1.557a.196.196 0 0 1-.171-.1.193.193 0 0 1 .072-.265l1.351-.778a.19.19 0 0 1 .265.071.192.192 0 0 1-.072.265l-1.351.779a.184.184 0 0 1-.094.028Zm2.702-1.563a.196.196 0 0 1-.171-.1.192.192 0 0 1 .072-.265l1.351-.779a.192.192 0 0 1 .265.072.192.192 0 0 1-.072.265l-1.351.779a.184.184 0 0 1-.094.028Zm2.697-1.563a.196.196 0 0 1-.171-.1.193.193 0 0 1 .071-.265l1.351-.779a.192.192 0 0 1 .265.072.192.192 0 0 1-.072.265l-1.351.779a.142.142 0 0 1-.093.028Zm2.702-1.558a.195.195 0 0 1-.171-.099.193.193 0 0 1 .071-.265l1.351-.779a.191.191 0 0 1 .265.072.193.193 0 0 1-.072.265l-1.351.778a.178.178 0 0 1-.093.028Zm2.696-1.563a.197.197 0 0 1-.171-.099.193.193 0 0 1 .072-.266l1.351-.778a.19.19 0 0 1 .264.071.193.193 0 0 1-.071.266l-1.351.778a.184.184 0 0 1-.094.028Zm2.702-1.563a.196.196 0 0 1-.171-.1.192.192 0 0 1 .072-.265l1.351-.779a.191.191 0 0 1 .264.072.192.192 0 0 1-.071.265l-1.351.779a.147.147 0 0 1-.094.028Zm2.702-1.558a.197.197 0 0 1-.171-.099.192.192 0 0 1 .072-.265l1.351-.779a.191.191 0 0 1 .264.072.193.193 0 0 1-.071.265l-1.351.779a.193.193 0 0 1-.094.027Zm2.696-1.563a.197.197 0 0 1-.171-.099.192.192 0 0 1 .072-.265l1.351-.779a.192.192 0 0 1 .265.072.193.193 0 0 1-.072.265l-1.351.778a.181.181 0 0 1-.094.028Zm2.702-1.563a.197.197 0 0 1-.171-.099.193.193 0 0 1 .072-.266l1.351-.778a.192.192 0 0 1 .265.071.193.193 0 0 1-.072.266l-1.351.778a.147.147 0 0 1-.094.028Zm2.697-1.558a.196.196 0 0 1-.171-.099.192.192 0 0 1 .072-.265l1.35-.779a.192.192 0 0 1 .265.072.192.192 0 0 1-.072.265l-1.35.779a.193.193 0 0 1-.094.027Zm2.702-1.563a.196.196 0 0 1-.1-.364l1.351-.779a.192.192 0 0 1 .265.072.192.192 0 0 1-.072.265l-1.351.779a.187.187 0 0 1-.093.027Zm2.696-1.563a.197.197 0 0 1-.171-.099.192.192 0 0 1 .072-.265l1.351-.779a.192.192 0 0 1 .265.072.192.192 0 0 1-.072.265l-1.351.779c-.022.022-.055.027-.094.027Z"/><path fill="#BA68C8" d="M277.283 215.405a.219.219 0 0 1-.099-.028l-18.936-10.947-6.258 1.204a.188.188 0 0 1-.133-.022l-61.202-35.394a.186.186 0 0 1-.088-.116.204.204 0 0 1 .022-.149l1.748-3.032-64.797 37.47-.033.017-10.554 3.662a.203.203 0 0 1-.16-.017l-29.545-17.089a.184.184 0 0 1-.094-.144.208.208 0 0 1 .06-.165l6.331-6.104 64.461-37.283-5.194 1a.187.187 0 0 1-.133-.022l-61.224-35.388a.192.192 0 0 1-.072-.265l2.013-3.497L74.571 98.21a.195.195 0 0 1-.1-.171c0-.072.039-.133.1-.172L121 71.013a.2.2 0 0 1 .193 0l18.93 10.953 6.264-1.21a.22.22 0 0 1 .133.022l61.202 35.394a.192.192 0 0 1 .072.265l-1.748 3.032 64.791-37.47 10.587-3.679a.204.204 0 0 1 .16.017l29.545 17.089a.18.18 0 0 1 .094.144.206.206 0 0 1-.06.165l-6.331 6.104-64.461 37.282 5.195-.999a.185.185 0 0 1 .132.022l61.202 35.394a.192.192 0 0 1 .072.265l-2.013 3.496 18.831 10.887a.193.193 0 0 1 .099.171.2.2 0 0 1-.099.171l-15.059 8.722 1.318 2.347a.192.192 0 0 1-.072.265l-12.672 7.33c-.038.022-.088.033-.132.022l-4.273-.807-15.534 8.97c-.017.022-.05.028-.083.028Zm-19.002-11.373c.034 0 .067.011.1.028l18.902 10.925 15.501-8.953a.184.184 0 0 1 .132-.022l4.274.806 12.44-7.197-1.318-2.347a.194.194 0 0 1 .071-.266l14.933-8.649-18.704-10.815c-.078-.061-.111-.171-.067-.259l-.011-.006 2.013-3.491-60.97-35.261-6.259 1.204a.19.19 0 0 1-.22-.121.196.196 0 0 1 .082-.238l65.421-37.835 6.109-5.894-29.247-16.912-10.466 3.634-65.387 37.819a.193.193 0 0 1-.237-.033.201.201 0 0 1-.033-.238l2.012-3.491-60.959-35.26-6.248 1.203a.227.227 0 0 1-.148-.016L121.099 71.41 75.061 98.04l18.705 10.814a.187.187 0 0 1 .093.188.203.203 0 0 1-.038.094l-2.002 3.474 60.97 35.262 6.259-1.205a.192.192 0 0 1 .221.122.195.195 0 0 1-.083.237L93.76 184.861l-6.104 5.899 29.247 16.912 10.45-3.629 65.409-37.824c.088-.05.215-.022.265.072a.2.2 0 0 1 0 .193l-2.013 3.491 60.97 35.261 6.259-1.204h.038Z"/><path fill="#BA68C8" d="M127.408 204.407a.23.23 0 0 1-.099-.027l-1.351-.779a.192.192 0 0 1-.072-.265.192.192 0 0 1 .265-.072l1.351.779a.193.193 0 0 1 .071.265.175.175 0 0 1-.165.099Zm-2.697-1.557a.219.219 0 0 1-.099-.028l-1.351-.779a.192.192 0 0 1-.071-.265.191.191 0 0 1 .264-.072l1.351.779a.192.192 0 0 1 .072.265.192.192 0 0 1-.166.1Zm-2.701-1.563a.219.219 0 0 1-.1-.028l-1.351-.779a.192.192 0 0 1-.071-.265.191.191 0 0 1 .264-.072l1.351.779a.192.192 0 0 1 .072.265.18.18 0 0 1-.165.1Zm-2.697-1.563a.219.219 0 0 1-.099-.028l-1.351-.779a.192.192 0 0 1-.072-.265.192.192 0 0 1 .265-.072l1.351.779a.192.192 0 0 1 .072.265c-.034.066-.1.1-.166.1Zm-2.702-1.558a.219.219 0 0 1-.099-.028l-1.351-.778a.193.193 0 0 1-.072-.266.192.192 0 0 1 .265-.071l1.351.778a.196.196 0 0 1-.094.365Zm-2.702-1.563a.219.219 0 0 1-.099-.028l-1.351-.779a.192.192 0 0 1-.072-.265.19.19 0 0 1 .265-.071l1.351.778a.193.193 0 0 1 .072.265.176.176 0 0 1-.166.1Zm-2.696-1.563a.226.226 0 0 1-.1-.028l-1.35-.779a.192.192 0 0 1-.072-.265.192.192 0 0 1 .265-.072l1.35.779a.192.192 0 0 1 .072.265.18.18 0 0 1-.165.1Zm-2.702-1.558a.23.23 0 0 1-.099-.027l-1.351-.779a.192.192 0 0 1-.072-.265.192.192 0 0 1 .265-.072l1.351.779a.193.193 0 0 1 .071.265.193.193 0 0 1-.165.099Zm-2.697-1.563a.219.219 0 0 1-.099-.028l-1.351-.778a.193.193 0 0 1-.072-.265.191.191 0 0 1 .265-.072l1.351.778a.193.193 0 0 1 .072.266.182.182 0 0 1-.166.099Zm-2.702-1.558a.23.23 0 0 1-.099-.027l-1.351-.779a.192.192 0 0 1-.072-.265.192.192 0 0 1 .265-.072l1.351.779a.192.192 0 0 1 .072.265.191.191 0 0 1-.166.099Zm-2.702-1.563a.23.23 0 0 1-.099-.027l-1.35-.779a.192.192 0 0 1-.073-.265.192.192 0 0 1 .265-.072l1.351.779a.192.192 0 0 1 .072.265.186.186 0 0 1-.166.099Zm-2.696-1.563a.231.231 0 0 1-.1-.027l-1.35-.779a.192.192 0 0 1-.072-.265.192.192 0 0 1 .265-.072l1.35.779a.192.192 0 0 1 .072.265.182.182 0 0 1-.165.099Zm-2.702-1.563a.22.22 0 0 1-.1-.028l-1.35-.778a.193.193 0 0 1-.072-.265.192.192 0 0 1 .265-.072l1.35.779a.192.192 0 0 1 .072.265.182.182 0 0 1-.165.099ZM304.69 101.888a.234.234 0 0 1-.1-.027l-1.351-.779a.193.193 0 0 1-.071-.265.191.191 0 0 1 .264-.072l1.351.779a.192.192 0 0 1 .072.265.191.191 0 0 1-.165.099Zm-2.702-1.563a.238.238 0 0 1-.1-.027l-1.351-.78a.193.193 0 0 1-.071-.264.191.191 0 0 1 .264-.072l1.351.779a.192.192 0 0 1 .072.265.176.176 0 0 1-.165.099Zm-2.697-1.563a.223.223 0 0 1-.099-.028l-1.351-.778a.192.192 0 0 1-.072-.265.192.192 0 0 1 .265-.072l1.351.779a.192.192 0 0 1 .072.265c-.033.066-.1.1-.166.1Zm-2.702-1.558a.223.223 0 0 1-.099-.027l-1.351-.779a.192.192 0 0 1-.072-.265.192.192 0 0 1 .265-.072l1.351.779a.192.192 0 0 1 .072.265c-.033.06-.1.1-.166.1Zm-2.696-1.563a.223.223 0 0 1-.099-.027l-1.351-.779a.192.192 0 0 1-.072-.265.192.192 0 0 1 .265-.072l1.351.779a.193.193 0 0 1 .071.265.181.181 0 0 1-.165.1Zm-2.702-1.563a.223.223 0 0 1-.099-.027l-1.351-.78a.192.192 0 0 1-.072-.264.192.192 0 0 1 .265-.072l1.351.779a.193.193 0 0 1 .071.265.181.181 0 0 1-.165.1Zm-2.702-1.557a.223.223 0 0 1-.099-.028l-1.351-.779a.192.192 0 0 1-.072-.265.192.192 0 0 1 .265-.072l1.351.78a.192.192 0 0 1 .071.264.185.185 0 0 1-.165.1Zm-2.696-1.563a.225.225 0 0 1-.1-.028l-1.351-.779a.192.192 0 0 1-.071-.265.191.191 0 0 1 .264-.072l1.351.779a.192.192 0 0 1 .072.265.181.181 0 0 1-.165.1Zm-2.702-1.558a.223.223 0 0 1-.1-.028l-1.351-.778a.193.193 0 0 1-.071-.265.19.19 0 0 1 .264-.072l1.351.778a.192.192 0 0 1 .072.266.192.192 0 0 1-.165.099Zm-2.697-1.563a.224.224 0 0 1-.099-.028l-1.351-.778a.192.192 0 0 1-.072-.266.192.192 0 0 1 .265-.072l1.351.78a.192.192 0 0 1 .072.264c-.034.061-.1.1-.166.1Zm-2.702-1.563a.223.223 0 0 1-.099-.028l-1.351-.779a.192.192 0 0 1-.072-.265.192.192 0 0 1 .265-.072l1.351.78a.192.192 0 0 1 .072.264c-.033.067-.1.1-.166.1Zm-2.702-1.563a.223.223 0 0 1-.099-.028l-1.351-.779a.192.192 0 0 1-.072-.265.192.192 0 0 1 .265-.072l1.351.78a.192.192 0 0 1 .072.264.177.177 0 0 1-.166.1Zm-2.696-1.558a.223.223 0 0 1-.099-.028l-1.351-.778a.192.192 0 0 1-.072-.265.192.192 0 0 1 .265-.072l1.351.778a.193.193 0 0 1 .071.266.192.192 0 0 1-.165.1Z"/><path fill="#E0E0E0" d="m160.576 156.614 15.252 8.821-11.508 6.655-15.252-8.821 11.508-6.655Zm0-.602-.259.149-11.508 6.656-.778.452.778.453 15.252 8.821.259.149.259-.149 11.508-6.655.778-.453-.778-.453-15.252-8.821-.259-.149Z"/><path fill="#455A64" d="m165.213 163.579-.353-.204-6.347 3.673.353.204 6.347-3.673Zm-13.035-.193.176.105 8.63-4.988-.177-.105-8.629 4.988Zm7.251-3.154-.353-.204-6.352 3.667.352.205 6.353-3.668Zm3.501.414c.105-.027.204-.066.298-.121a.744.744 0 0 0 .226-.182.323.323 0 0 0 .077-.183.261.261 0 0 0-.06-.171.605.605 0 0 0-.177-.149.9.9 0 0 0-.264-.105.925.925 0 0 0-.276-.027 1.01 1.01 0 0 0-.259.033.852.852 0 0 0-.221.083c-.016.011-.027.016-.027.027s.005.022.022.028l.044.027a.095.095 0 0 0 .044.011.274.274 0 0 0 .077-.016c.072-.028.138-.044.204-.055a.747.747 0 0 1 .188-.006c.06.006.115.017.171.033a.83.83 0 0 1 .137.061c.056.033.1.072.127.11a.184.184 0 0 1 .039.127.229.229 0 0 1-.055.133.636.636 0 0 1-.166.133.911.911 0 0 1-.215.088 1.028 1.028 0 0 1-.226.028.722.722 0 0 1-.215-.028.644.644 0 0 1-.187-.077.307.307 0 0 1-.116-.094c-.017-.033-.033-.061-.039-.083-.005-.028-.011-.05-.011-.072a.089.089 0 0 0-.038-.055l-.045-.022a.13.13 0 0 0-.055-.011.094.094 0 0 0-.055.016l-.799.542c-.039.027-.039.049-.011.066l.749.436c.034.022.072.017.111-.005l.044-.022c.038-.022.044-.045.005-.061l-.661-.381.551-.376a.865.865 0 0 0 .039.089c.022.044.077.088.165.138.077.044.16.077.254.105.094.022.187.033.292.033a1.9 1.9 0 0 0 .314-.045Zm-1.957-.392c.094-.027.182-.066.253-.11a.664.664 0 0 0 .133-.094c.033-.033.066-.061.088-.088.022-.028.044-.056.055-.083a.248.248 0 0 0 .033-.072l.298-.724c0-.011.006-.022.006-.033.005-.011-.006-.027-.028-.038l-.044-.028a.123.123 0 0 0-.05-.011.094.094 0 0 0-.055.016c-.011.006-.016.012-.016.017 0 .006-.006.011-.006.011l-.226.552a.826.826 0 0 0-.127-.099.974.974 0 0 0-.298-.11 1.402 1.402 0 0 0-.308-.017 1.355 1.355 0 0 0-.298.055 1.053 1.053 0 0 0-.254.111.834.834 0 0 0-.187.149.348.348 0 0 0-.094.171.266.266 0 0 0 .027.182.491.491 0 0 0 .188.172.829.829 0 0 0 .298.104c.105.017.209.023.314.017a.892.892 0 0 0 .298-.05Zm.11-.187a.88.88 0 0 1-.22.088.947.947 0 0 1-.453.011.65.65 0 0 1-.187-.072.376.376 0 0 1-.121-.105.212.212 0 0 1-.039-.127c0-.044.022-.088.055-.132a.498.498 0 0 1 .155-.127.833.833 0 0 1 .22-.089c.077-.022.154-.027.232-.033a.99.99 0 0 1 .22.022.646.646 0 0 1 .188.072.343.343 0 0 1 .121.11.214.214 0 0 1 .039.127.224.224 0 0 1-.056.133.808.808 0 0 1-.154.122Zm-5.966 4.982.176.105 6.347-3.673-.176-.105-6.347 3.673Zm-3.342-1.895.177.105 8.629-4.988-.176-.104-8.63 4.987Zm10.543-1.248-.353-.205-6.346 3.674.352.204 6.347-3.673Zm.452.248-.176-.105-6.347 3.673.177.105 6.346-3.673Zm-2.713-1.552-.176-.105-6.352 3.673.176.105 6.352-3.673Zm1.081.613-.617-.353-6.347 3.673.617.353 6.347-3.673Zm8.045 4.668-.176-.105-6.347 3.673.177.105 6.346-3.673Zm.017-.514.039-.022a.188.188 0 0 0 .049-.033l.033-.033 1.015-1.26c.005-.011.016-.022.022-.038.005-.011 0-.028-.017-.034l-.049-.027a.123.123 0 0 0-.05-.011.094.094 0 0 0-.055.016l-.017.017-1.025 1.276-.783-.453a.111.111 0 0 0-.11.005l-.039.023c-.039.022-.044.044-.011.066l.888.514c.027.016.066.016.11-.006Zm-8.437 2.955.177.105 8.569-4.955-.177-.104-8.569 4.954Zm1.456.873.176.105 6.347-3.673-.176-.105-6.347 3.673Zm5.884-3.944-.353-.204-6.347 3.673.353.204 6.347-3.673Zm4.025-.16.039-.022c.038-.022.038-.044.005-.067l-.943-.546c-.033-.022-.071-.017-.11.005l-.039.022c-.016.011-.033.022-.038.039-.011.016-.011.033-.017.061l-.094.745a.784.784 0 0 1-.022.133.264.264 0 0 1-.044.099.307.307 0 0 1-.071.078c-.028.022-.061.049-.105.071a.842.842 0 0 1-.37.111.622.622 0 0 1-.353-.088c-.104-.061-.154-.128-.143-.205.011-.077.066-.149.171-.221.017-.016.028-.027.028-.038a.03.03 0 0 0-.017-.028l-.044-.028a.108.108 0 0 0-.099 0 .726.726 0 0 0-.155.127.345.345 0 0 0-.088.155.228.228 0 0 0 .022.166c.028.055.088.11.177.16.088.05.176.083.27.105.094.016.182.022.27.016.088-.005.176-.022.259-.049.083-.028.16-.061.226-.1a.663.663 0 0 0 .232-.204.545.545 0 0 0 .071-.26l.094-.679.772.447a.101.101 0 0 0 .116-.005Zm-8.387-3.309c.11-.038.209-.088.309-.143.154-.089.303-.172.446-.26.094-.055.177-.116.249-.182a.546.546 0 0 0 .143-.188.245.245 0 0 0-.006-.188c-.027-.061-.099-.127-.204-.188a.912.912 0 0 0-.319-.116 1.359 1.359 0 0 0-.331-.005 1.659 1.659 0 0 0-.326.083 1.92 1.92 0 0 0-.308.143c-.149.083-.298.172-.447.26a1.697 1.697 0 0 0-.248.177.538.538 0 0 0-.144.188.258.258 0 0 0 .006.193c.027.061.099.127.204.188.105.06.209.099.32.116.11.016.22.016.331.005.11-.011.215-.039.325-.083Zm.391-.353c-.066.038-.137.077-.209.121-.182.1-.359.166-.535.188a.727.727 0 0 1-.463-.083c-.138-.077-.182-.165-.144-.27.039-.1.149-.205.326-.31.071-.044.143-.083.204-.121.066-.039.138-.078.215-.122.187-.105.364-.165.535-.188a.733.733 0 0 1 .463.083c.138.078.187.166.149.265-.039.1-.149.199-.326.31-.082.049-.154.088-.215.127Zm-.799 8.406.353.205 6.347-3.673-.353-.205-6.347 3.673Zm1.191.685 8.597-4.971-.353-.204-8.597 4.971.353.204Zm.099-7.804.039-.022a.188.188 0 0 0 .049-.033.545.545 0 0 1 .034-.034l1.014-1.259c.006-.011.017-.022.022-.039.006-.011 0-.027-.016-.033l-.05-.027a.123.123 0 0 0-.05-.011.094.094 0 0 0-.055.016l-.016.017-1.026 1.276-.783-.453c-.033-.022-.072-.017-.11.005l-.039.022c-.038.022-.044.045-.011.067l.888.513c.027.022.066.022.11-.005Zm-6.788 3.932.177.105 6.347-3.673-.177-.105-6.347 3.673Zm1.704 1 .772.436 6.347-3.673-.772-.436-6.347 3.673Zm4.23-4.91-.717-.409-6.347 3.673.717.409 6.347-3.673Zm2.928 1.182 1.742-1.011c.039-.022.044-.044.006-.061l-.045-.027c-.033-.022-.071-.017-.11.005l-1.582.917-.045-.453c-.005-.027-.033-.038-.082-.033l-.061.006c-.022 0-.044.011-.055.016-.011.011-.022.022-.017.033l.056.536c0 .011.005.022.016.028.011.005.017.011.028.016l.044.028c.033.027.066.027.105 0Zm.854-1.475.039-.022c.038-.022.038-.044.005-.066l-.943-.547c-.033-.022-.071-.017-.11.005l-.038.023c-.017.011-.034.022-.039.038-.011.017-.011.033-.017.061l-.093.746c-.006.049-.011.094-.022.132a.262.262 0 0 1-.045.1.32.32 0 0 1-.071.077c-.028.022-.061.05-.105.072a.835.835 0 0 1-.364.11.61.61 0 0 1-.353-.088c-.105-.061-.154-.127-.143-.205.011-.077.066-.149.171-.22.016-.017.027-.028.027-.039a.031.031 0 0 0-.016-.028l-.044-.027a.104.104 0 0 0-.1 0 .687.687 0 0 0-.154.127.337.337 0 0 0-.088.154.217.217 0 0 0 .022.166c.027.055.088.11.176.16.089.05.177.083.271.105a1.033 1.033 0 0 0 .529-.033c.083-.028.16-.061.226-.099a.684.684 0 0 0 .232-.205.545.545 0 0 0 .071-.259l.094-.68.772.448a.114.114 0 0 0 .11-.006Z"/><path fill="#E0E0E0" d="m134.141 170.378 17.822 10.307-20.458 11.831-17.822-10.307 20.458-11.831Zm0-.602-.259.149-20.458 11.831-.778.453.778.453 17.822 10.307.259.149.259-.149 20.458-11.831.777-.453-.777-.453-17.822-10.307-.259-.149Z"/><path fill="#BA68C8" d="M120.62 179.535c-.122-.022-.282-.011-.353.034l-4.367 2.524c-.045.027-.045.061 0 .088l3.788 2.193a.647.647 0 0 0 .353.033c.121-.022.165-.077.093-.116l-3.716-2.149 4.29-2.479c.077-.05.033-.105-.088-.128ZM134.141 171.715a.846.846 0 0 0-.127-.011.489.489 0 0 0-.226.044l-4.367 2.524c-.072.039-.028.094.093.116.122.022.281.011.353-.033l4.141-2.397 3.568 2.06a.649.649 0 0 0 .353.033c.121-.022.165-.077.094-.116l-3.789-2.192a.277.277 0 0 0-.093-.028ZM136.126 188.501c-.121-.023-.281-.011-.353.033l-4.141 2.397-3.568-2.06a.643.643 0 0 0-.352-.034c-.122.023-.166.078-.094.116l3.788 2.193a.475.475 0 0 0 .226.044.489.489 0 0 0 .226-.044l4.367-2.524c.067-.044.022-.094-.099-.121ZM145.858 178.493a.664.664 0 0 0-.259 0c-.122.022-.166.077-.094.116l3.717 2.148-4.291 2.48c-.071.039-.027.094.094.116.122.022.281.011.353-.033l4.367-2.524c.044-.028.044-.061 0-.088l-3.788-2.193c-.027-.006-.061-.017-.099-.022Z"/><path fill="#455A64" d="M127.149 182.635c-.006 0-.006 0 0 0-.006.005-.006.005 0 0 0 .005-.006.005 0 0Zm16.619-1.26c.127-.071.127-.071.023-.132-.309-.182-.624-.354-.921-.541.182-.105.358-.21.54-.31.017-.011.088-.005.11.006.612.304.265.353.954-.022.077-.045.083-.067.017-.105-.281-.155-.552-.315-.827-.475-.149-.089-.144-.061.022-.16.143-.083.287-.166.435-.255-.171-.099-.341-.198-.518-.298-.193.111-.386.221-.584.337-.149-.083-.293-.16-.42-.248-.071-.045-.121-.039-.198.011-.127.082-.265.154-.403.232-.06.033-.077.06-.016.093.132.072.254.144.38.221.056.034.094.028.149-.011.144-.082.292-.165.436-.254.055-.033.094-.038.143-.005.127.077.259.154.392.226.033.017.055.039.005.067-.375.215-.744.43-1.136.657-.154-.089-.303-.171-.452-.265-.044-.028-.083-.028-.132.005-.149.089-.303.177-.452.265-.055.033-.089.039-.144.006a9.01 9.01 0 0 0-.386-.221c-.049-.028-.049-.05.011-.083.149-.083.287-.171.441-.249.078-.044.072-.066.011-.099-.121-.066-.226-.138-.352-.199-.078-.038-.061-.066.016-.11.563-.321 1.114-.646 1.676-.967-.474-.293-.97-.563-1.45-.85-.071-.045-.116-.045-.198.005-.127.083-.27.155-.397.232-.061.039-.105.044-.16.011a24.298 24.298 0 0 0-.37-.215c-.06-.033-.049-.056.011-.094.149-.083.293-.171.436-.254.055-.028.061-.05.011-.078-.303-.176-.607-.348-.91-.524-.055-.033-.088-.022-.143.011-.144.083-.292.165-.436.254-.06.033-.099.038-.149.005a6.539 6.539 0 0 0-.38-.221c-.066-.033-.05-.06.016-.099.166-.094.326-.188.497-.287-.348-.199-.684-.398-1.032-.597l-.534.31c-.017.011-.006.049.011.06.121.078.248.149.375.221.055.033.055.055-.011.094-.149.083-.287.16-.431.249-.066.038-.104.038-.159.005-.122-.072-.249-.143-.37-.215-.055-.033-.094-.028-.16.005-.16.1-.331.194-.502.293.304.193.623.365.938.547.071.039.06.066-.017.11-.336.194-.672.387-1.003.58-.066.039-.105.044-.166.006-.143-.089-.298-.171-.446-.254-.16.094-.309.188-.475.276-.088.05-.104.077-.016.121.121.061.226.133.342.194.06.033.071.055-.006.099-.171.094-.336.193-.507.293.149.088.292.171.447.254.06.033.06.055-.011.094-.375.21-.723.431-1.114.63a16.69 16.69 0 0 1-.441-.26c-.05-.033-.089-.028-.149.005-.166.1-.342.199-.513.299.171.099.342.199.518.298-.364.221-.733.431-1.108.646-.066.039-.077.061-.011.094.121.066.226.138.353.199.077.039.066.072-.017.116-.143.077-.27.16-.413.237-.061.034-.061.056-.011.083.126.072.242.144.369.216.061.033.066.055-.006.099-.143.077-.281.16-.419.243-.066.044-.11.039-.165.006-.287-.172-.579-.337-.866-.503-.06-.033-.105-.039-.176.006-.133.082-.281.16-.419.243-.072.044-.116.044-.177.005-.138-.083-.286-.166-.435-.254-.193.111-.37.216-.552.32-.06.039 0 .05.028.067.491.287.981.569 1.472.85-.193.111-.369.216-.551.315-.017.011-.089 0-.116-.016-.32-.183-.629-.365-.949-.547-.215.105-.386.226-.579.342-.182-.099-.364-.204-.54-.304-.171.1-.342.194-.507.299-.066.038-.105.038-.155.005-.143-.088-.292-.171-.441-.254l-.59.343c.171.099.337.193.513.298-.21.121-.403.232-.59.342a22.55 22.55 0 0 0-.518-.292c-.171.099-.337.198-.513.298-.072.038-.077.061-.011.094.149.083.287.165.441.254-.188.11-.37.215-.551.315-.017.011-.089 0-.116-.017-.287-.16-.568-.326-.849-.486-.111-.061-.111-.061-.232.006-.132.077-.259.154-.392.226-.06.033-.066.055-.011.088.127.072.249.149.381.216.055.027.05.049-.011.088-.149.083-.298.171-.447.26-.022.011-.038.049-.027.06.149.094.308.183.474.277.397-.232.788-.453 1.185-.685.166.094.32.182.475.276.016.011-.006.05-.028.066-.143.089-.287.171-.436.254-.066.039-.066.061-.011.094.127.066.249.138.364.21.061.039.111.033.177-.011.138-.083.281-.16.419-.243.061-.039.099-.039.149-.006.116.072.231.139.358.205.072.039.072.066-.011.11-.331.188-.656.381-.987.569-.083.044-.083.072-.011.111.463.265.921.53 1.373.795.072.044.116.033.193-.011.32-.188.656-.376.976-.569.094-.055.138-.05.21-.005.11.071.231.132.347.204.055.033.094.028.16-.006.342-.198.684-.397 1.031-.596.061-.033.066-.055.011-.088a16.654 16.654 0 0 1-.441-.255c.199-.116.392-.226.596-.342.121.072.242.138.358.21.149.088.149.088.32-.011.932-.541 1.869-1.077 2.801-1.619l.463.266c.044.027.033.044-.016.071-.149.083-.298.172-.447.26-.061.033-.072.055-.017.088.133.072.254.144.381.221.05.033.088.033.149-.005.143-.089.292-.166.435-.254.061-.033.1-.039.149-.006.122.078.254.144.375.221.05.028.083.033.149 0 .166-.099.342-.199.524-.304l-.408-.237c-.11-.061-.11-.061.011-.133.132-.077.265-.149.392-.226.06-.039.099-.039.148-.006.144.089.293.172.442.254.204-.116.391-.226.595-.342-.138-.077-.27-.155-.402-.232-.111-.061-.111-.061.016-.133l.358-.21c.111-.066.111-.066.216-.005.143.083.27.16.419.237.204-.116.402-.231.595-.342.166.099.337.193.513.298.149-.088.292-.171.441-.254.177-.099.132-.099.287-.011.127.072.253.144.386.227.992-.575 1.979-1.144 2.966-1.718.171.099.337.193.513.298-.176.1-.342.199-.518.298-.055.028-.055.05-.006.078.127.072.249.149.381.215.055.033.061.055-.006.094-.143.083-.286.16-.43.249-.071.044-.11.038-.165.005-.121-.072-.248-.144-.37-.215-.049-.028-.082-.028-.137.005-.342.199-.69.403-1.037.602-.039.022-.072.044-.022.072.32.182.639.365.954.547.005 0 .011.005.027.005.783-.453 1.572-.905 2.366-1.369-.342-.199-.673-.393-1.015-.586.127-.11.282-.199.441-.293Zm-16.779 2.547c.182-.1.342-.194.518-.293.061-.039.099-.039.149-.006.121.078.248.15.381.221.049.028.049.05-.006.083-.546.315-1.097.63-1.643.95-.05.028-.088.033-.133.006a8.31 8.31 0 0 0-.391-.227c-.05-.027-.044-.049.011-.077.171-.099.331-.204.502-.304-.166-.099-.32-.199-.497-.298.21-.122.409-.232.601-.348.166.094.331.188.508.293Zm2.217-.68a6.46 6.46 0 0 0-.425.249c-.055.033-.099.038-.149.011a9.666 9.666 0 0 0-.386-.221c-.055-.028-.044-.05.011-.083.154-.088.303-.177.452-.26.022-.011.055-.022.088-.033.138.083.276.166.414.243.061.028.066.05-.005.094Zm8.513-.756c.16-.094.32-.183.48-.277.017-.011.072-.016.088-.011.16.089.32.183.48.277-.204.116-.397.232-.59.342l-.463-.265c-.033-.022-.039-.039.005-.066Zm-3.451.806c.165-.094.336-.188.496-.287.055-.033.099-.044.149-.011.127.077.253.149.386.221.044.027.044.044-.006.077-.154.088-.303.171-.452.265-.055.033-.088.033-.132.006l-.397-.232c-.022-.011-.033-.028-.044-.039Zm1.692-.978c.05-.033.089-.033.133-.005.127.077.259.154.391.226.039.022.05.044-.005.072l-.463.265c-.05.028-.083.033-.127.006a20.471 20.471 0 0 0-.199-.116c-.066-.039-.127-.078-.198-.116-.044-.022-.05-.044.005-.078a4.85 4.85 0 0 0 .463-.254Zm-5.122 2.37c-.061.039-.1.039-.149.005a12.645 12.645 0 0 0-.441-.254c.176-.105.358-.21.535-.314.049-.028.077-.023.115 0 .133.077.265.154.403.231.044.028.044.045-.011.078-.16.077-.309.166-.452.254Zm-1.015-.613c-.083.044-.094.072-.016.11.148.083.292.166.435.254-.193.111-.391.227-.59.343l-.992-.575c-.05-.027-.006-.049.033-.071l1.031-.597c.061-.033.099-.039.149-.005.121.077.248.149.38.22.055.034.044.056-.011.089-.143.072-.276.154-.419.232Zm-1.88.491c.06-.038.099-.033.149-.005.121.077.248.149.375.221.049.027.049.049-.011.083-.171.099-.337.204-.502.303.298.194.623.376.937.564.022.011.039.055.022.061-.176.105-.358.209-.546.32-.176-.1-.342-.199-.512-.298l-.508.292c-.066.045-.11.039-.165.006-.122-.072-.243-.144-.37-.215-.055-.034-.055-.056.011-.094.127-.067.249-.138.37-.21.16-.094.154-.072.022-.149-.11-.061-.215-.127-.325-.188-.056-.028-.056-.05.011-.089.352-.198.7-.397 1.042-.602Zm6.198-4.766c.16.094.314.182.468.27.011.006.006.039-.011.05-.16.094-.319.188-.485.282-.016.011-.072.016-.088.011-.16-.089-.314-.182-.474-.271.198-.116.391-.226.59-.342Zm4.753-2.16c-.05.028-.088.039-.132.011-.133-.077-.271-.155-.397-.232-.017-.011-.011-.05.005-.066.072-.05.154-.094.232-.138.077-.044.154-.089.226-.133.049-.033.088-.033.132-.005.127.077.254.149.386.221.05.027.05.049-.005.082l-.447.26Zm-1.842 1.083-.375-.21c-.165-.094-.16-.094.028-.205.132-.077.264-.154.402-.232.166.094.32.183.469.277.017.011-.005.049-.028.066-.159.105-.363.188-.496.304Zm.386.353-2.068 1.193c-.204.116-.204.116-.38.017-.11-.061-.221-.127-.336-.194l1.053-.607c.154-.089.149-.072.022-.149-.133-.078-.259-.149-.397-.232.187-.111.364-.216.546-.315.016-.011.088-.006.11.005.132.072.259.144.386.221.05.028.088.028.143-.005.177-.1.342-.21.541-.293.132.077.264.16.402.238.072.049.061.077-.022.121Zm2.84-.442c-.369.21-.739.426-1.108.641-.32-.182-.634-.37-.96-.552-.06-.033-.06-.056.011-.094.678-.365.37-.359.965-.033.05.027.083.027.138-.006.684-.376.375-.353.965-.044.066.022.055.05-.011.088Zm-1.726 1.591c-.05.028-.077.022-.116 0-.132-.077-.264-.155-.402-.232-.044-.022-.044-.044.005-.072l1.125-.646c.171.099.337.193.513.298-.381.221-.75.437-1.125.652Zm-1.842 1.06c.32.183.629.365.949.547.071.039.06.067-.017.105a7.948 7.948 0 0 0-.408.238c-.066.044-.105.038-.165.005-.315-.188-.634-.364-.954-.552-.557.32-1.109.641-1.665.961-.122.072-.122.072-.232.011-.132-.077-.265-.155-.403-.232-.204.116-.391.227-.584.337.303.199.645.376.965.563.016.011.038.011.061.022-.205.122-.409.238-.613.359-.171-.099-.336-.193-.512-.298l-1.103.641c-.066.039-.105.044-.16.005-.11-.066-.226-.132-.337-.198-.104-.061-.104-.061.017-.127.154-.089.314-.183.48-.277-.348-.204-.689-.397-1.037-.596.177-.1.342-.193.496-.287.072-.045.116-.045.177-.006.138.083.281.166.424.249.783-.431 1.533-.89 2.311-1.326.066-.039.061-.061.005-.088l-.375-.216c-.055-.027-.049-.055.011-.088.144-.083.287-.166.425-.249.072-.044.116-.044.177-.005.319.182.623.375.959.547l.524-.304c.055-.028.044-.05 0-.072-.133-.077-.259-.155-.397-.226-.05-.028-.055-.05.005-.083.149-.083.298-.171.447-.26.061-.038.099-.033.149-.005.121.077.253.143.375.221.055.033.094.027.16-.006.138-.083.286-.166.424-.248.066-.039.105-.039.155-.006.121.072.242.144.369.215.061.034.05.056-.016.094-.348.21-.712.426-1.087.635Zm2.757.796c-.077.044-.115.044-.182.005-.457-.265-.915-.53-1.378-.795-.066-.039-.072-.061.011-.105.535-.304 1.07-.613 1.599-.922.072-.045.11-.045.171-.006.485.287.97.564 1.461.845-.562.326-1.125.646-1.682.978Zm-8.938-4.375.513-.298c.06-.033.066-.055.011-.088-.133-.072-.259-.149-.386-.221-.055-.033-.094-.028-.149.011-.171.099-.331.199-.513.293-.171-.1-.331-.194-.507-.293.16-.105.342-.205.513-.304.049-.028.06-.05.011-.077a8.344 8.344 0 0 1-.392-.227c-.044-.027-.083-.022-.132.006-.149.088-.298.171-.447.259-.061.034-.099.039-.149.006-.138-.083-.287-.166-.435-.254-.199.116-.392.226-.596.342.166.094.331.194.507.293-.193.11-.375.215-.562.32-.017.011-.077 0-.099-.011-.155-.083-.293-.171-.447-.254-.38.205-.728.42-1.103.63-.071.039-.077.066-.011.099.127.067.243.138.364.21.05.028.061.05-.005.089-.149.082-.298.171-.447.259-.05.033-.088.033-.132.006-.122-.072-.254-.144-.375-.221-.05-.033-.094-.039-.16.005-.166.105-.353.194-.513.304.342.199.673.392 1.015.586-.353.215-.717.419-1.081.629-.077.044-.094.072-.017.111.144.077.276.16.43.248.138-.077.265-.149.392-.226.204-.122.204-.122.386-.017.11.066.22.127.342.199-.188.105-.348.204-.53.304-.049.027-.055.05-.011.072.138.077.27.154.403.232.033.022.066.027.116 0 .369-.216.744-.431 1.125-.652-.475-.293-.976-.569-1.462-.851-.06-.038-.066-.06.011-.099.144-.077.276-.155.408-.238.072-.044.122-.049.188-.011.314.188.628.365.948.553l1.103-.641c.066-.039.105-.039.16-.006.121.078.254.144.375.221.05.028.083.028.143-.005.166-.1.337-.194.513-.298.364.187.673.403 1.048.585.165-.094.331-.193.502-.287.077-.044.066-.066.005-.1-.32-.182-.634-.364-.948-.546-.177.099-.353.198-.524.298-.061.033-.094.038-.149.011a46.673 46.673 0 0 0-.899-.519c-.055-.028-.049-.056.011-.089.348-.199.695-.397 1.037-.602.061-.038.099-.033.149-.005.149.088.303.176.452.259Zm-1.583-.281c-.016.011-.077.011-.093 0a11.046 11.046 0 0 1-.469-.271c.187-.11.364-.21.546-.315.016-.011.071-.016.083-.005.159.088.314.176.474.27a9.588 9.588 0 0 1-.541.321Zm-.805 1.066c-.149.083-.292.165-.435.254-.061.038-.1.033-.149.005a47.219 47.219 0 0 0-.883-.508c-.06-.033-.049-.061.017-.099.171-.094.331-.194.496-.288.177-.099.348-.198.524-.303.055-.033.094-.039.144-.006.126.077.253.149.386.221.049.028.044.05-.012.083-.121.072-.242.138-.363.21-.171.099-.166.077-.017.166.105.06.204.121.309.176.044.028.044.056-.017.089Zm4.125 6.556c-1.312.757-2.625 1.519-3.937 2.276-.116.066-.116.066-.017.121 1.136.657 2.267 1.315 3.402 1.966.105.061.105.061.227-.011 1.351-.778 2.696-1.557 4.041-2.336a1263.42 1263.42 0 0 0-3.507-2.027c-.093-.055-.093-.05-.209.011Zm-2.84 2.237c.926-.536 1.853-1.072 2.774-1.607.082-.05.127-.045.193-.006.794.464 1.593.928 2.398 1.386.072.039.072.067-.011.116-.463.266-.921.531-1.378.796-.458.265-.921.53-1.379.801-.082.049-.132.06-.209.011-.794-.464-1.594-.928-2.399-1.387-.072-.033-.072-.06.011-.11Zm-6.429-7.606c-1.346.784-2.708 1.563-4.053 2.348 1.158.685 2.338 1.353 3.501 2.027.099.055.099.055.215-.011 1.313-.757 2.625-1.519 3.937-2.276.116-.066.116-.066.017-.122a913.014 913.014 0 0 1-3.419-1.977c-.072-.039-.116-.039-.198.011Zm-.067.63c.072-.044.116-.039.177-.006.799.464 1.604.934 2.41 1.392.066.039.066.061-.012.105-.463.265-.92.53-1.378.796l-1.406.811c-.066.039-.11.05-.177.012-.805-.47-1.61-.934-2.42-1.398-.061-.033-.061-.061.011-.105a179.03 179.03 0 0 0 2.795-1.607Zm10.439-2.453a1692.44 1692.44 0 0 1 4.058-2.347c-1.174-.679-2.343-1.353-3.512-2.033-.072-.044-.116-.038-.199.006-1.345.784-2.713 1.563-4.053 2.353 1.169.679 2.344 1.353 3.513 2.033.066.038.11.038.193-.012Zm2.856-2.248c-.932.536-1.858 1.072-2.785 1.613-.077.044-.115.05-.182.011-.397-.232-.794-.464-1.191-.69-.402-.232-.805-.47-1.213-.696-.077-.044-.066-.072.017-.116.926-.53 1.847-1.066 2.768-1.602.077-.044.121-.05.193-.011.799.464 1.599.928 2.404 1.392.061.028.066.055-.011.099Zm2.051 10.141c.083-.049.078-.071.011-.11-.121-.066-.237-.138-.358-.204-.055-.028-.055-.056.011-.089l.43-.248c.061-.039.105-.045.16-.006.121.077.254.144.375.221.044.028.077.028.132 0 .563-.337 1.164-.657 1.71-1-.138-.077-.27-.154-.408-.237-.1-.055-.1-.055.016-.122.138-.077.27-.16.408-.237.055-.028.055-.05.011-.078a8.834 8.834 0 0 1-.391-.226c-.044-.028-.083-.022-.133.006-.137.077-.275.154-.408.237-.082.05-.132.061-.209.011-.127-.083-.27-.16-.419-.243-.199.116-.392.221-.596.331a8.652 8.652 0 0 1-.518-.281c-.386.204-.733.425-1.108.635-.072.039-.072.066-.011.094.126.066.248.138.363.21.061.038.105.033.177-.006.364-.215.722-.42 1.086-.629.326.171.618.359.943.535.083.044.072.072-.022.122a6.58 6.58 0 0 0-.391.226c-.067.044-.111.039-.171.006-.116-.072-.243-.138-.359-.21-.055-.033-.094-.033-.16.005-.325.194-.656.382-.987.569-.116.067-.116.067-.215.011-.121-.066-.237-.138-.358-.204-.022-.011-.083-.017-.099-.011-.188.105-.37.21-.557.32.319.188.628.365.954.553.055.033.06.055-.006.094l-.43.248c-.061.039-.099.044-.16.006-.121-.078-.254-.144-.375-.221-.05-.028-.083-.028-.138.005-.143.089-.292.171-.446.26-.056.033-.067.055-.011.083.132.071.259.149.386.221.049.027.088.027.143-.006.165-.099.336-.193.518-.298.171.099.337.193.508.293.38-.21.727-.426 1.102-.636Zm-7.389-6.456c-.176.099-.347.198-.518.298-.061.033-.099.038-.149.005-.121-.077-.254-.143-.375-.221-.049-.033-.088-.027-.149.006a11.52 11.52 0 0 1-.435.254c-.067.033-.061.055-.006.088l.893.514c.056.033.094.028.149-.005.144-.083.293-.166.436-.255.055-.033.094-.038.143-.005.127.077.259.155.392.226.038.022.049.039-.006.072l-1.075.619-.039.016c0 .006 0 .017.011.022.16.094.326.188.491.288.397-.227.783-.453 1.186-.685-.122-.072-.243-.138-.364-.21-.149-.083-.149-.083.022-.182.143-.083.287-.166.43-.254a21.531 21.531 0 0 1-1.037-.591Zm0-.006c-.005.006-.005.006 0 0 0 .006 0 .006 0 0Zm14.21 1.922c.144-.077.282-.16.419-.243.061-.033.1-.039.155-.005.121.071.254.143.375.221.044.027.083.033.143-.006.149-.088.298-.177.452-.265.056-.033.05-.05.006-.077-.155-.089-.303-.177-.452-.26-.144-.083-.293-.166-.436-.254-.05-.033-.088-.039-.16.005-.342.199-.684.398-1.031.597-.061.039-.061.061-.005.088.126.072.242.144.369.216.055.033.055.055-.011.094a9.91 9.91 0 0 0-.436.254c-.049.027-.066.049-.016.077.138.077.27.155.402.232.044.022.078.022.122-.006.149-.088.297-.176.452-.259.055-.033.06-.055.011-.083-.127-.072-.243-.144-.375-.215-.066-.045-.055-.072.016-.111Zm-15.02-.259c.022-.011.038-.028.06-.045-.176-.06-.303-.16-.446-.237-.05-.033-.088-.039-.16.005-.342.205-.689.404-1.037.602-.038.023-.077.045-.027.072.154.089.303.177.457.265a.453.453 0 0 0 .072-.033c.358-.215.717-.42 1.081-.629Zm.055-.045c.005 0 .005 0 0 0Zm4.152-1.795c.171-.105.342-.204.518-.304-.319-.182-.634-.37-.954-.552-.055-.033-.093-.033-.159.006-.166.099-.337.199-.508.298.32.188.645.37.96.558.049.027.088.027.143-.006Zm-5.729 1.525c.16-.094.32-.183.474-.276.022-.011.022-.05.006-.061-.056-.044-.127-.078-.193-.116l-.204-.116c-.039-.022-.072-.028-.122 0-.16.094-.32.188-.479.276-.045.028-.045.044-.006.066.138.078.276.155.408.238.044.022.072.016.116-.011Zm-4.285-1.099c.166-.089.326-.183.48-.277.017-.011.028-.044.011-.055-.149-.088-.303-.177-.469-.276-.187.11-.369.21-.54.315-.017.011-.017.05 0 .061.132.082.265.16.408.237a.241.241 0 0 0 .11-.005Zm7.643.348c.005 0 .005 0 0 0Zm-4.174 2.413.513.299c.176-.1.352-.205.529-.304.05-.028.05-.05.005-.072-.132-.077-.27-.155-.397-.232-.049-.028-.082-.022-.132.011a21.7 21.7 0 0 1-.518.298Zm-.37-.972c.077-.044.155-.088.237-.138.078-.044.155-.094.238-.138.044-.028.044-.044.005-.066a17.22 17.22 0 0 1-.408-.238c-.039-.022-.066-.022-.116.006-.154.094-.314.182-.469.27-.049.028-.055.05-.011.072.133.077.271.155.397.232.045.028.078.028.127 0Zm3.678-3.314c0-.005 0-.005 0 0-.005-.005-.005-.005 0 0-.005 0-.005 0 0 0Zm-.518-.298c.005 0 0-.006 0 0Zm-.077.635c.198-.116.397-.226.59-.342l-.513-.299c-.193.116-.392.227-.59.343.176.105.342.204.513.298Zm-3.899 4.64c0-.006-.005 0 0 0Zm-.595.342c.198-.116.397-.226.59-.342-.149-.083-.298-.172-.441-.254-.05-.028-.089-.034-.149 0-.149.088-.298.176-.453.259-.049.028-.055.05-.011.072.16.088.309.177.464.265Zm1.185-.69c.199-.116.397-.227.59-.343-.149-.088-.298-.171-.441-.259-.05-.033-.088-.033-.149.005-.143.089-.287.171-.435.254-.061.033-.061.055-.011.089.154.082.297.171.446.254Zm7.433 2.861c.171-.1.348-.205.535-.309-.165-.094-.32-.188-.48-.277a.201.201 0 0 0-.093.011c-.16.089-.315.183-.474.271-.05.028-.05.05-.006.072.132.077.27.154.403.232.038.022.071.027.115 0Zm.888-7.678c.006 0 .006 0 0 0Zm-.436-.259.442.259c.198-.116.391-.226.595-.348-.16-.094-.314-.182-.474-.27-.017-.006-.066-.006-.083.005-.165.094-.325.188-.491.282-.055.033-.022.05.011.072Zm4.472 3.894c.166-.089.326-.183.48-.276.017-.012.022-.05.006-.061a7.744 7.744 0 0 0-.414-.238c-.016-.011-.083-.005-.099.006-.165.088-.32.182-.48.276-.049.028-.038.044 0 .066.072.039.138.078.204.116.066.039.133.083.204.116.017.011.083.006.099-.005Zm-6.909-2.558c.199-.116.392-.226.59-.342-.491-.287-.981-.569-1.472-.856-.05-.028-.083-.033-.138.005-.171.1-.342.205-.518.304.507.293 1.02.591 1.538.889-.176.1-.342.199-.513.293-.066.039-.071.061-.011.088.149.083.298.172.447.255-.198.116-.391.226-.59.342.165.094.336.193.513.298.193-.11.391-.226.59-.342-.171-.1-.342-.199-.507-.298.165-.094.33-.194.501-.288.078-.044.072-.066.011-.099-.16-.077-.297-.166-.441-.249Zm-.468 7.424c-.557.326-1.12.646-1.682.972.468.293.97.563 1.45.845.072.044.116.044.198-.006.557-.331 1.131-.646 1.677-.977-.486-.282-.971-.558-1.456-.845-.066-.033-.105-.039-.187.011Zm-10.885-4.441c-.061.039-.072.061-.017.094l1.406.812c.055.033.094.027.16-.006a141.61 141.61 0 0 1 1.616-.933c.077-.044.066-.066.005-.1l-.689-.397c-.237-.138-.469-.271-.7-.409-.061-.033-.1-.033-.166.006-.535.314-1.075.624-1.615.933Zm12.285-5.308c.557-.326 1.12-.646 1.682-.972-.469-.293-.971-.563-1.45-.845-.072-.044-.122-.039-.204.011-.552.331-1.131.646-1.677.978.486.281.971.557 1.456.845.072.033.116.027.193-.017Z"/><path fill="#BA68C8" d="M140.774 186.307c-.584.337-.584.884 0 1.221.585.337 1.528.337 2.112 0 .585-.337.585-.884 0-1.221-.584-.337-1.533-.337-2.112 0Z"/><path fill="#BA68C8" d="M158.712 196.94a.297.297 0 0 1-.133-.033l-16.884-9.765a.256.256 0 0 1-.094-.354.255.255 0 0 1 .353-.094l16.796 9.716 10.836-2.198a.264.264 0 0 1 .308.204.265.265 0 0 1-.204.309l-10.929 2.221c-.016-.006-.033-.006-.049-.006ZM167.529 198.382a.255.255 0 0 1-.226-.133.258.258 0 0 1 .094-.353l14.772-8.545a.26.26 0 0 1 .353.094.26.26 0 0 1-.094.354l-14.772 8.544a.214.214 0 0 1-.127.039Z"/><path fill="#E0E0E0" d="M169.641 199.602a.258.258 0 0 1-.226-.132.26.26 0 0 1 .094-.354l14.772-8.545a.262.262 0 0 1 .353.094.26.26 0 0 1-.094.354l-14.772 8.545a.22.22 0 0 1-.127.038ZM171.753 200.823a.257.257 0 0 1-.226-.133.258.258 0 0 1 .094-.353l14.772-8.545a.26.26 0 0 1 .353.094.26.26 0 0 1-.094.354l-14.772 8.544a.214.214 0 0 1-.127.039ZM173.86 202.043a.258.258 0 0 1-.226-.132.26.26 0 0 1 .094-.354l14.772-8.545a.262.262 0 0 1 .353.094.26.26 0 0 1-.094.354l-14.772 8.544a.202.202 0 0 1-.127.039ZM175.971 203.265a.257.257 0 0 1-.226-.133.26.26 0 0 1 .093-.354l6.292-3.639a.259.259 0 0 1 .353.093.26.26 0 0 1-.094.354l-6.291 3.64a.214.214 0 0 1-.127.039Z"/><path fill="#BA68C8" d="M107.827 158.553a.259.259 0 0 1-.226-.133.258.258 0 0 1 .094-.353l14.772-8.545a.258.258 0 0 1 .259.447l-14.772 8.545a.214.214 0 0 1-.127.039Z"/><path fill="#E0E0E0" d="M109.933 159.774a.259.259 0 0 1-.226-.133.258.258 0 0 1 .094-.353l14.772-8.545a.258.258 0 0 1 .259.447l-14.772 8.545a.202.202 0 0 1-.127.039ZM112.045 160.994a.257.257 0 0 1-.226-.133.26.26 0 0 1 .094-.353l14.772-8.545a.26.26 0 0 1 .353.094.26.26 0 0 1-.093.354l-14.773 8.544a.212.212 0 0 1-.127.039ZM114.157 162.214a.261.261 0 0 1-.132-.486l14.773-8.544a.258.258 0 0 1 .259.447l-14.773 8.545a.217.217 0 0 1-.127.038ZM116.269 163.436a.255.255 0 0 1-.226-.133.258.258 0 0 1 .094-.353l6.291-3.64a.258.258 0 0 1 .259.447l-6.291 3.64a.214.214 0 0 1-.127.039Z"/><path fill="#BA68C8" d="M153.804 159.332c-.584.336-.584.883 0 1.22.585.337 1.528.337 2.112 0 .585-.337.585-.884 0-1.22-.584-.337-1.527-.337-2.112 0Z"/><path fill="#BA68C8" d="M154.819 160.226a.297.297 0 0 1-.133-.033l-17.463-10.174-9.7.768c-.143.005-.27-.094-.281-.238a.26.26 0 0 1 .237-.281l9.783-.774a.234.234 0 0 1 .148.033l17.536 10.219a.257.257 0 0 1-.127.48ZM192.855 157.05l46.43-26.849v-75.67l-46.43 26.849v75.67Z"/><path fill="#fff" d="m192.855 157.05 46.43-26.849v-75.67l-46.43 26.849v75.67Z" opacity=".3"/><path fill="#BA68C8" d="M239.285 54.53 205.522 35l-46.435 26.85 33.769 19.53 46.429-26.85Z"/><path fill="#fff" d="M239.285 54.53 205.522 35l-46.435 26.85 33.769 19.53 46.429-26.85Z" opacity=".5"/><path fill="#BA68C8" d="m159.087 61.849.005 75.675 33.764 19.526V81.38l-33.769-19.531Z"/><path fill="#fff" d="m159.087 61.849.005 75.675 33.764 19.526V81.38l-33.769-19.531Z" opacity=".1"/><path fill="#BA68C8" d="m199.632 85.08 33.245-19.222v47.744l-33.245 19.227v-47.75Z"/><path fill="#fff" d="m199.632 85.08 33.245-19.222v47.744l-33.245 19.227v-47.75Z" opacity=".8"/><path fill="#BA68C8" d="m205.279 81.816-5.647 11.522v8.893l11.729-23.927-6.082 3.512Zm11.519-6.66-17.166 35.017v3.916l19.846-40.48-2.68 1.546Zm-17.166 9.925v2.502l1.709-3.491-1.709.989Zm33.245 28.522v-8.843l-6.049 12.345 6.049-3.502Zm-18.958 10.964 18.958-38.674V77l-25.04 51.08 6.082-3.513Zm11.172-54.206-25.459 51.931v10.533l2.641-1.53 30.604-62.42v-3.021l-7.786 4.507Zm-3.479 49.76 11.265-22.983v-3.916l-13.945 28.446 2.68-1.547Z" opacity=".2"/><path fill="#fff" d="M207.578 138.613c.314-.342.551-.723.711-1.149.16-.425.243-.872.243-1.342 0-.663-.154-1.088-.469-1.281-.314-.194-.772-.116-1.373.232l-1.864 1.077a.463.463 0 0 0-.193.37v6.236c0 .072.017.121.056.149.038.027.082.027.137 0l.585-.337a.384.384 0 0 0 .138-.155.46.46 0 0 0 .06-.215v-2.248l.96-.558.948 1.701c.017.039.05.078.1.111.044.033.115.022.215-.033l.612-.354a.284.284 0 0 0 .11-.127.379.379 0 0 0 .05-.177.189.189 0 0 0-.022-.094l-1.004-1.806Zm-.265-1.049c-.165.221-.38.414-.656.574l-1.048.608v-1.834l1.048-.608c.276-.16.496-.226.656-.198.166.027.248.221.248.58-.005.364-.082.651-.248.878Zm-3.953-.011c-.326-.183-.778-.1-1.362.237l-1.936 1.121a.456.456 0 0 0-.193.371v6.241c0 .072.017.121.055.149.039.028.083.028.138 0l.585-.337a.376.376 0 0 0 .137-.155.44.44 0 0 0 .056-.215v-2.154l1.158-.668a3.642 3.642 0 0 0 1.362-1.348c.325-.558.485-1.193.485-1.906-.006-.712-.166-1.16-.485-1.336Zm-.739 2.795a1.979 1.979 0 0 1-.656.596l-1.12.646v-1.933l1.12-.646c.275-.16.496-.216.656-.171.165.044.248.243.248.607-.006.365-.088.663-.248.901Zm15.859-10.528c-.094-.276-.227-.475-.403-.608a.92.92 0 0 0-.656-.154c-.265.027-.574.143-.927.348l-1.786 1.033a.381.381 0 0 0-.138.154.445.445 0 0 0-.055.216v6.241c0 .072.016.122.055.149.039.028.083.028.138 0l1.82-1.055a3.89 3.89 0 0 0 .909-.712c.26-.276.475-.58.646-.912a4.64 4.64 0 0 0 .402-1.071 6.44 6.44 0 0 0 .171-1.199c.017-.486.017-.961 0-1.43a3.774 3.774 0 0 0-.176-1Zm-.806 2.994c-.011.21-.038.419-.088.629-.049.21-.127.409-.22.591-.1.183-.215.354-.364.514a2.12 2.12 0 0 1-.513.409l-1.004.58v-4.347l.971-.564c.209-.121.386-.187.535-.198a.529.529 0 0 1 .375.093.743.743 0 0 1 .226.332c.049.149.082.32.088.525.017.475.017.95-.006 1.436Zm8.007-6.728a2.488 2.488 0 0 1 .568-1.105c.138-.16.303-.292.491-.397a1.45 1.45 0 0 1 .491-.194.633.633 0 0 1 .347.034c.094.044.165.11.215.204a.757.757 0 0 1 .099.32c.011.078.039.127.077.144.045.017.089.011.138-.017l.585-.337a.43.43 0 0 0 .143-.154.357.357 0 0 0 .055-.221 2.419 2.419 0 0 0-.149-.702 1.004 1.004 0 0 0-.386-.497c-.17-.11-.391-.16-.656-.143-.264.016-.584.138-.959.353a3.798 3.798 0 0 0-.882.707 4.506 4.506 0 0 0-.651.928c-.177.337-.32.702-.414 1.083-.099.386-.16.778-.176 1.176a18.705 18.705 0 0 0 0 1.619c.016.375.077.695.176.966.1.271.237.475.414.608.176.132.397.187.651.176.253-.016.551-.121.882-.314.375-.216.695-.47.959-.757.265-.287.486-.591.656-.9.171-.315.304-.625.386-.939.083-.315.133-.608.149-.879.006-.077-.011-.132-.055-.154-.044-.022-.088-.022-.143.011l-.585.337a.4.4 0 0 0-.132.138.594.594 0 0 0-.077.232 2.43 2.43 0 0 1-.099.436 2.532 2.532 0 0 1-.221.459c-.094.149-.21.298-.353.441a2.23 2.23 0 0 1-.491.376c-.187.11-.353.166-.491.166a.536.536 0 0 1-.352-.105.69.69 0 0 1-.215-.332 1.793 1.793 0 0 1-.089-.524 17.643 17.643 0 0 1-.016-.801c0-.298.005-.569.016-.818.017-.204.044-.414.094-.624Zm-12.126 7.54a3.232 3.232 0 0 0-.16-.934c-.093-.259-.226-.464-.397-.602a.916.916 0 0 0-.65-.182c-.259.016-.568.127-.921.326a3.633 3.633 0 0 0-.927.745 4.355 4.355 0 0 0-.65.939 4.807 4.807 0 0 0-.397 1.061c-.088.37-.144.74-.155 1.11-.005.127-.011.265-.011.414 0 .149-.005.304-.005.459 0 .16 0 .309.005.458 0 .149.006.282.011.398.017.353.067.663.155.928s.22.469.397.602c.171.132.391.193.65.177.26-.017.568-.127.927-.332.353-.204.656-.447.921-.734.264-.288.479-.597.656-.934.171-.337.303-.69.391-1.06.089-.37.144-.741.155-1.111.005-.127.011-.265.011-.414 0-.149.005-.304.005-.458 0-.155 0-.31-.005-.459 0-.143-.006-.276-.006-.397Zm-.976 2.242a2.773 2.773 0 0 1-.336 1.265 2.11 2.11 0 0 1-.816.845c-.336.193-.607.226-.816.094-.204-.133-.32-.425-.337-.878a17.736 17.736 0 0 1-.016-.807c0-.298.005-.574.016-.823.017-.475.133-.9.337-1.27.204-.376.474-.657.816-.851.336-.193.606-.226.816-.088.204.138.314.431.336.884.011.237.017.508.017.806l-.017.823Zm20.673-16.078c-.039-.028-.083-.028-.138 0l-3.579 2.071a.379.379 0 0 0-.137.154.446.446 0 0 0-.056.216v.685c0 .072.017.121.056.149.038.027.082.027.137 0l1.302-.751v5.291c0 .072.016.122.06.149.039.028.083.028.138 0l.585-.337a.388.388 0 0 0 .138-.154.464.464 0 0 0 .06-.216v-5.291l1.302-.751a.384.384 0 0 0 .138-.155.463.463 0 0 0 .06-.215v-.685c-.011-.083-.027-.133-.066-.16Zm-9.744 5.556-.579.337a.376.376 0 0 0-.137.155.466.466 0 0 0-.061.215v3.911c0 .265-.028.508-.083.723a2.566 2.566 0 0 1-.226.591 2.127 2.127 0 0 1-.799.801c-.16.094-.309.149-.442.171a.464.464 0 0 1-.347-.06c-.099-.067-.171-.172-.226-.332-.055-.155-.077-.364-.077-.63v-3.91c0-.072-.022-.122-.061-.149-.038-.028-.083-.028-.138 0l-.584.337a.388.388 0 0 0-.138.154.454.454 0 0 0-.061.216v3.96c0 .398.044.735.127 1.011.083.27.215.475.386.607.171.133.392.188.645.161.259-.023.563-.139.91-.337a3.97 3.97 0 0 0 .904-.713c.26-.276.475-.58.651-.911a4.703 4.703 0 0 0 .524-2.21v-3.96c0-.072-.022-.121-.055-.149-.033-.022-.077-.022-.133.011Z"/><path fill="#fff" d="m188.483 126.61-25.757-14.962c0 .668.353 1.287.932 1.618l25.757 14.963c0-.669-.359-1.287-.932-1.619Zm0 2.757-25.757-14.963c0 .668.353 1.287.932 1.618l25.757 14.963c0-.663-.359-1.281-.932-1.618Zm0-5.518-25.757-14.963c0 .668.353 1.287.932 1.618l25.757 14.963a1.88 1.88 0 0 0-.932-1.618Zm0-38.26-25.757-14.963c0 .668.353 1.286.932 1.618l25.757 14.963c0-.663-.359-1.282-.932-1.619Zm0 35.498-25.757-14.963c0 .669.353 1.287.932 1.619l25.757 14.962c0-.662-.359-1.281-.932-1.618Zm0-32.737-25.757-14.963c0 .668.353 1.287.932 1.618l25.757 14.963a1.88 1.88 0 0 0-.932-1.618Z" opacity=".8"/><path fill="#fff" d="m168.444 136.785 15.252 8.815v-13.311l-15.252-8.821v13.317Z"/><path fill="#455A64" d="m176.781 129.98-.353-.205v7.341l.353.204v-7.34Zm-6.683 6.109.176.105v-9.981l-.176-.105v9.981Zm.899-9.456-.353-.205v7.341l.353.204v-7.34Zm1.99 9.892a1.058 1.058 0 0 0-.176-.232 1.05 1.05 0 0 0-.215-.171.475.475 0 0 0-.204-.077c-.05 0-.083 0-.094.005l.049-.668.662.381c.033.022.05.005.05-.039v-.05a.111.111 0 0 0-.05-.099l-.75-.436c-.033-.017-.049-.006-.049.038l-.072.967c0 .017.005.039.016.055.012.022.023.033.039.039l.044.022c.022.017.044.017.066.011a.182.182 0 0 1 .067-.022.402.402 0 0 1 .093-.011c.039 0 .083.016.144.05a.85.85 0 0 1 .292.298.854.854 0 0 1 .088.21.84.84 0 0 1 .033.232.564.564 0 0 1-.033.21.22.22 0 0 1-.088.116.211.211 0 0 1-.132.027.387.387 0 0 1-.16-.055.481.481 0 0 1-.122-.094.794.794 0 0 1-.198-.293.765.765 0 0 1-.055-.204.33.33 0 0 0-.022-.072c-.011-.016-.022-.022-.033-.033l-.045-.028c-.016-.005-.027-.011-.033-.005-.011.005-.011.016-.011.039 0 .071.017.149.039.232a1.183 1.183 0 0 0 .27.463.778.778 0 0 0 .226.177.662.662 0 0 0 .215.083c.066.011.127 0 .177-.033a.357.357 0 0 0 .121-.155.816.816 0 0 0 .044-.287c0-.11-.016-.221-.044-.32-.061-.089-.099-.183-.149-.271Zm-1.301-1.508a1.36 1.36 0 0 0-.171-.265.858.858 0 0 0-.243-.204.469.469 0 0 0-.242-.078.233.233 0 0 0-.171.067.4.4 0 0 0-.1.171.799.799 0 0 0-.033.237 1.377 1.377 0 0 0 .133.564.987.987 0 0 0 .171.259.874.874 0 0 0 .242.205.527.527 0 0 0 .149.06l-.364.475c-.005 0-.005.006-.005.012 0 .005-.006.011-.006.022 0 .016.006.038.011.055.011.016.022.033.033.039l.044.027c.022.011.039.011.044.006.012-.011.017-.017.028-.022l.474-.619c.017-.017.028-.039.044-.066.017-.028.028-.056.045-.094a.426.426 0 0 0 .033-.122.68.68 0 0 0 .016-.16c0-.088-.011-.177-.033-.276a1.313 1.313 0 0 0-.099-.293Zm-.044.674a.27.27 0 0 1-.089.116.198.198 0 0 1-.126.028.37.37 0 0 1-.155-.056.835.835 0 0 1-.281-.303.915.915 0 0 1-.121-.453c0-.078.011-.149.033-.199.022-.055.049-.094.088-.116a.243.243 0 0 1 .127-.033.457.457 0 0 1 .154.049.692.692 0 0 1 .155.127.839.839 0 0 1 .126.177.917.917 0 0 1 .122.453c0 .094-.011.16-.033.21Zm1.362-.519.176.105v-7.341l-.176-.105v7.341Zm-3.303.685.176.105v-9.981l-.176-.105v9.981Zm4.185-7.551-.353-.204v7.34l.353.205v-7.341Zm.441.265-.176-.105v7.341l.176.105v-7.341Zm-2.696-1.579-.177-.105v7.34l.177.105v-7.34Zm1.069.635-.612-.359v7.34l.612.359v-7.34Zm8.057 4.645-.177-.105v7.341l.177.105v-7.341Zm-.491 7.512-.888-.514c-.033-.022-.05-.005-.05.044v.045c0 .044.017.077.05.099l.783.453-.59 1.53c-.005.011-.005.016-.005.022 0 .017.005.039.011.055a.122.122 0 0 0 .033.039l.049.027c.017.012.028.006.039-.005s.016-.028.022-.039l.584-1.508a.148.148 0 0 0 .011-.044c0-.011.006-.033.006-.055v-.044c0-.05-.017-.083-.055-.105Zm-1.605 1.221.177.104v-9.914l-.177-.105v9.915Zm1.484-1.746.176.105v-7.34l-.176-.105v7.34Zm-.469-7.606-.353-.204v7.341l.353.204v-7.341Zm1.82 10.81-.772-.448.54-.419a.563.563 0 0 0 .187-.194.587.587 0 0 0 .061-.304c0-.077-.011-.165-.027-.248a.986.986 0 0 0-.083-.249 1.16 1.16 0 0 0-.149-.226.812.812 0 0 0-.226-.182.46.46 0 0 0-.226-.072.244.244 0 0 0-.155.066.39.39 0 0 0-.093.155.624.624 0 0 0-.033.199.1.1 0 0 0 .049.088l.044.028a.038.038 0 0 0 .033 0c.011-.006.017-.017.022-.045.011-.127.05-.21.111-.259.06-.044.143-.039.248.022.11.066.193.149.253.265.061.11.089.237.089.376 0 .049-.006.088-.011.127a.331.331 0 0 1-.1.187.518.518 0 0 1-.104.083l-.596.453c-.022.017-.038.028-.044.044-.011.017-.011.033-.011.056v.044c0 .044.017.077.05.099l.943.547c.033.022.055.006.055-.039v-.044c0-.055-.017-.088-.055-.11Zm-7.092-5.844a1.032 1.032 0 0 0-.171-.282.915.915 0 0 0-.259-.221.49.49 0 0 0-.259-.083.23.23 0 0 0-.171.089.554.554 0 0 0-.094.215 1.79 1.79 0 0 0-.027.304 7.484 7.484 0 0 0 0 .519c0 .116.011.227.033.343a1.312 1.312 0 0 0 .259.607c.072.089.154.16.259.221.105.061.193.089.259.083a.226.226 0 0 0 .171-.088.487.487 0 0 0 .089-.221 2.67 2.67 0 0 0 .033-.304 8.976 8.976 0 0 0 0-.519c0-.116-.011-.227-.033-.343a1.275 1.275 0 0 0-.089-.32Zm-.022 1.077c-.005.21-.038.354-.105.436-.066.083-.165.083-.303.006a.698.698 0 0 1-.303-.359 1.562 1.562 0 0 1-.105-.558v-.486c.006-.204.039-.348.105-.436.066-.083.165-.089.303-.011a.694.694 0 0 1 .303.359c.067.16.1.348.105.557v.492Zm6.871 2.209.353.205v-7.341l-.353-.204v7.34Zm.833-6.86v9.942l.352.205v-9.942l-.352-.205Zm-6.397 4.093-.888-.514c-.033-.022-.049-.005-.049.045v.044c0 .044.016.077.049.099l.783.453-.59 1.53c-.005.011-.005.017-.005.022 0 .017.005.039.011.055.011.017.022.034.033.039l.05.028c.016.011.027.005.038-.006s.017-.027.022-.038l.585-1.508c.005-.017.011-.033.011-.044 0-.012.005-.034.005-.056v-.044c0-.055-.022-.088-.055-.105Zm.055-.409.177.105v-7.34l-.177-.105v7.34Zm1.726.978.761.453v-7.341l-.761-.453v7.341Zm-2.134-8.561-.711-.42v7.341l.711.419v-7.34Zm2.437 9.196-.044-.027c-.011-.006-.022-.011-.027-.017-.011-.005-.022-.005-.028 0l-.491.221c-.011.006-.016.017-.022.033 0 .017 0 .033.011.055l.028.056c.022.044.044.066.072.055l.413-.188v1.834c0 .044.017.077.05.099l.044.028c.033.022.05.005.05-.039v-2.016c-.006-.044-.022-.077-.056-.094Zm-.854 1.475-.772-.447.54-.42a.573.573 0 0 0 .188-.193.598.598 0 0 0 .06-.304c0-.078-.011-.166-.027-.249a.94.94 0 0 0-.083-.248 1.137 1.137 0 0 0-.149-.227.83.83 0 0 0-.226-.182.46.46 0 0 0-.226-.072.25.25 0 0 0-.154.066.388.388 0 0 0-.094.155.629.629 0 0 0-.033.199c0 .039.016.066.049.088l.044.028a.04.04 0 0 0 .034 0c.011-.006.016-.017.022-.044.011-.127.049-.21.11-.26.061-.044.143-.039.248.022.11.066.193.149.254.265.06.111.088.238.088.376 0 .05-.006.088-.011.127a.275.275 0 0 1-.033.099.374.374 0 0 1-.066.089.652.652 0 0 1-.105.083l-.596.452c-.022.017-.038.028-.044.045-.011.016-.011.033-.011.055v.044c0 .044.017.077.05.099l.943.547c.033.022.055.006.055-.038v-.045c0-.06-.022-.093-.055-.11Z"/><path fill="#fff" d="m167.159 104.589 17.822 10.307V91.234l-17.822-10.307v23.662Z"/><path fill="#BA68C8" d="M168.317 88.278c-.083-.094-.149-.237-.149-.32v-5.054c0-.055.028-.072.077-.044l3.788 2.193c.072.038.166.17.204.292.039.122.017.183-.055.144l-3.716-2.149v4.966c0 .083-.066.072-.149-.028ZM168.317 103.921c-.028-.028-.05-.066-.077-.105a.54.54 0 0 1-.077-.215v-5.054c0-.083.066-.072.148.022.083.094.149.237.149.32v4.795l3.568 2.06c.072.038.165.171.204.292.039.122.017.183-.055.144l-3.788-2.193c-.022-.016-.044-.038-.072-.066ZM183.823 97.249c-.083-.094-.149-.238-.149-.32v-4.795l-3.568-2.06a.61.61 0 0 1-.204-.293c-.038-.121-.016-.182.055-.143l3.789 2.192a.525.525 0 0 1 .149.172c.044.082.077.16.077.215v5.054c0 .083-.066.072-.149-.022ZM180.035 110.698a.899.899 0 0 1-.133-.227c-.038-.121-.016-.182.055-.143l3.717 2.148v-4.965c0-.083.066-.072.149.022.083.094.149.237.149.32v5.054c0 .055-.028.072-.077.044l-3.789-2.192a.3.3 0 0 1-.071-.061Z"/><path fill="#455A64" d="M174.78 98.894c0-.005-.006-.005 0 0-.006-.005-.006-.005 0 0Zm-.519-6.5c0-.006 0-.006 0 0Zm7.229 14.504c.342.199.679.392 1.015.585v-2.734l-.022-.022c-.32-.182-.634-.37-.954-.552-.05-.028-.05.011-.05.055v1.204c0 .066.017.1.067.127.121.066.248.144.369.21.055.033.083.066.083.149-.006.16-.006.326 0 .497 0 .078-.022.089-.077.056-.127-.078-.254-.144-.381-.221-.044-.028-.061-.017-.061.044v.602c-.176-.105-.341-.199-.512-.298v-3.436c-.138-.077-.26-.149-.386-.226-.155-.089-.133-.05-.133-.255v-.508c-.182-.105-.347-.199-.513-.298v-.69c-.143-.094-.275-.161-.413-.243-.099-.061-.099-.061-.099-.188v-.414c0-.144 0-.144.11-.078.132.078.265.155.402.232v-.685a16.398 16.398 0 0 0-.441-.254c-.049-.027-.071-.06-.071-.132.005-.15 0-.304 0-.453 0-.138 0-.138.11-.078l.408.238v-.608c0-.071-.022-.105-.072-.127-.127-.072-.253-.149-.38-.215-.055-.028-.072-.066-.066-.133.005-.165 0-.337 0-.502 0-.072-.017-.105-.072-.133a6.736 6.736 0 0 1-.381-.22c-.055-.034-.066-.012-.066.055v.513c0 .055-.011.078-.055.05a17.994 17.994 0 0 0-.458-.27v-3.237c0-.194 0-.194-.148-.282a29.452 29.452 0 0 0-.364-.21v-.685c.149.088.297.171.441.26.055.033.071.016.066-.056V92.14c0-.072-.017-.11-.072-.143-.116-.061-.231-.138-.347-.2-.072-.038-.099-.076-.099-.181.005-.376 0-.751.005-1.127 0-.088-.016-.133-.088-.171-.458-.26-.915-.525-1.379-.796-.066-.038-.088-.027-.088.067.006.38 0 .762.006 1.143 0 .094-.022.11-.089.066a3.733 3.733 0 0 0-.353-.204c-.049-.028-.071-.067-.071-.133.005-.16 0-.326 0-.486 0-.077-.017-.121-.077-.16a5.82 5.82 0 0 1-.364-.21c-.055-.033-.078-.022-.072.055.006.172.006.337 0 .503 0 .028-.028.066-.044.055-.155-.083-.309-.177-.474-.27v-1.37c-.166-.094-.32-.188-.475-.27-.011-.006-.038.027-.038.054a7.33 7.33 0 0 0 0 .514c0 .072-.017.083-.072.055-.127-.077-.254-.143-.38-.22-.05-.034-.072-.017-.072.055.006.154 0 .303 0 .453 0 .138 0 .138.11.204.281.166.563.326.849.491.028.017.072.072.072.089.006.21.006.414.006.635-.155-.088-.298-.166-.436-.254-.061-.039-.077-.022-.077.06.005.2 0 .398 0 .592.171.1.342.199.513.303v.685a19.74 19.74 0 0 1-.513-.298v.685c.149.088.298.177.441.254.055.028.077.06.072.138-.006.194 0 .392 0 .591.176.105.358.21.535.32 0 .227-.023.437-.006.674.32.183.629.36.943.547.028.017.072.072.072.094.005.21.005.414.005.635-.491-.281-.981-.569-1.472-.85-.028-.017-.072-.061-.072.005v.635c.155.089.292.177.436.254.06.034.083.072.083.155-.006.16 0 .326 0 .48 0 .084.022.122.082.155.292.166.579.337.871.497.061.034.083.067.078.15-.006.16-.006.32 0 .486 0 .082-.022.088-.083.055-.121-.078-.248-.144-.37-.216-.049-.027-.066-.016-.066.05v.475c0 .094-.016.122-.093.078-.116-.072-.232-.133-.348-.205-.06-.039-.077-.022-.077.06 0 .432.006.857-.006 1.282-.176-.1-.347-.199-.518-.298v.591c0 .072.017.105.072.133.143.082.292.165.441.254.022.436 0 .85.011 1.281 0 .083-.017.094-.077.055-.149-.088-.298-.171-.441-.259 0 .193-.006.386 0 .585 0 .089-.022.094-.083.055-.116-.071-.226-.127-.342-.198-.083-.056-.099-.023-.094.077.006.188 0 .364 0 .552.149.089.298.183.441.265.061.034.078.072.078.15 0 .386-.006.773 0 1.159 0 .094-.017.111-.089.072-.314-.182-.628-.375-.942-.541v.58c0 .072.016.11.071.143.122.067.248.144.37.21.055.028.077.061.077.138a6.89 6.89 0 0 0 0 .498c0 .077-.017.088-.072.055a7.023 7.023 0 0 0-.38-.216c-.022-.011-.061 0-.061.022-.006.205-.005.409-.005.619.347.199.683.398 1.031.597v-.575c0-.077.011-.099.077-.066.127.077.254.149.38.221.055.027.072.066.067.132v.503c0 .061.011.099.06.127.303.171.607.348.91.525.044.027.061.011.061-.05v-.508c0-.072.016-.094.071-.055.122.077.248.149.37.215.06.033.071.072.071.144-.005.154.006.315 0 .464-.005.099.023.138.094.176.485.271.971.569 1.461.834v-1.933c0-.088.012-.121.089-.072.116.078.231.133.347.205.061.039.083.027.083-.061-.006-.171 0-.337 0-.508 0-.066.016-.077.066-.05.127.078.259.155.386.221.05.028.066.061.066.127v.525c0 .061.017.094.061.116.154.083.298.171.452.26v1.309c0 .06-.028.049-.061.027-.132-.077-.264-.154-.391-.226-.05-.028-.066-.061-.066-.127v-.503c0-.066-.011-.105-.067-.133a7.127 7.127 0 0 1-.38-.22c-.061-.039-.072-.011-.072.06.006.155.006.315 0 .464-.005.094.017.138.094.177.138.072.276.16.425.243v.679c.176.1.342.199.518.299v-.503c0-.193-.022-.188.127-.099.275.16.551.314.821.48.067.039.089.022.083-.066-.022-.784.11-.464-.458-.84a.17.17 0 0 1-.06-.094c-.006-.204 0-.408 0-.624.309.166.617.354.926.531.105.06.105.06.105-.083a4.76 4.76 0 0 1-.006-.558Zm-6.71-15.582v-.696c.171.1.336.188.507.282.005-.193.011-.386.011-.585-.006-.061.011-.078.061-.05.132.077.264.155.391.226.044.028.061.061.061.122v1.9c0 .066-.017.077-.066.05a13.35 13.35 0 0 0-.381-.221c-.055-.028-.072-.061-.072-.133 0-.199.006-.386-.005-.596-.165-.1-.336-.2-.507-.299Zm.954 2.613c-.138-.083-.282-.16-.419-.238-.006-.033-.017-.06-.017-.088v-.525c0-.066.011-.082.061-.05.126.078.253.155.386.222.055.027.071.066.066.132 0 .166-.006.326 0 .492.005.088-.022.088-.077.055Zm3.744 7.677c.154.089.303.177.457.271v.679a13.343 13.343 0 0 1-.479-.281c-.011-.006-.033-.061-.033-.083v-.558c-.006-.05.016-.05.055-.028Zm-1.037-3.352c.132.077.265.154.403.232.044.027.06.055.06.116v.524c0 .061-.016.072-.06.045a7.286 7.286 0 0 0-.386-.221c-.056-.028-.067-.072-.067-.138v-.575c.017.006.034.006.05.017Zm-.05 1.425c0-.067.023-.072.067-.044l.198.116c.066.038.132.077.199.11.044.022.06.055.055.11v.536c0 .061-.022.061-.061.039l-.391-.227c-.044-.027-.061-.055-.061-.116-.006-.176-.006-.347-.006-.524Zm-.512-4.59c0 .06-.017.077-.061.05l-.397-.232c-.039-.022-.055-.045-.055-.1 0-.204.005-.414.005-.618.149.082.298.17.441.254.056.027.072.06.067.132a7.328 7.328 0 0 0 0 .514Zm-1.037-.613c0 .066-.017.088-.066.055-.127-.077-.254-.15-.381-.221-.055-.028-.071-.066-.071-.133v-1.193c0-.044-.006-.093.044-.066l.992.575v.684c-.143-.082-.292-.16-.435-.248-.072-.044-.089-.022-.089.072.011.16.006.315.006.475Zm-.513-3.557c0-.072.017-.083.072-.05.11.066.215.127.325.188.133.077.116.088.121-.094v-.425c0-.078.017-.094.072-.056.121.078.248.15.37.216.055.033.082.066.077.149-.006.193 0 .387 0 .585.176.1.342.2.513.299 0 .22 0 .43-.006.635 0 .016-.044.022-.066.01-.32-.181-.64-.37-.954-.535 0 .193-.011.387-.011.586.005.066-.017.077-.066.05-.127-.078-.254-.15-.375-.222-.05-.027-.072-.06-.072-.132v-1.204Zm-1.025 8.274c.159.094.314.182.474.276.011.005.033.06.033.077v.564c0 .022-.022.044-.039.033-.154-.089-.309-.177-.468-.27v-.68Zm.507 6.401c0 .067-.022.078-.066.05-.127-.077-.26-.149-.386-.221-.044-.028-.067-.055-.061-.116v-.26c0-.088-.006-.182 0-.27 0-.022.033-.05.05-.039.132.072.264.155.402.227.05.027.061.066.061.121v.508Zm0-2.065c0 .027-.028.066-.039.055a10.592 10.592 0 0 1-.468-.271v-.469c0-.216 0-.221.159-.122.122.072.243.149.37.221-.039.171-.011.392-.022.586Zm.424-.354c-.137-.083-.27-.155-.408-.232-.027-.215-.016-.414-.016-.619 0-.066-.017-.099-.066-.127-.127-.071-.26-.143-.386-.226a.186.186 0 0 1-.061-.088c-.006-.21-.006-.409-.006-.63.138.077.265.155.397.232.127.072.116.083.116-.094v-1.215c.116.066.226.132.337.193.176.105.176.105.176.337v2.392c.011.099-.005.121-.083.077Zm1.054 2.673c-.563-.359-.43-.077-.442-.861 0-.067-.016-.1-.066-.127-.579-.354-.424-.083-.452-.856 0-.083.022-.094.077-.056.32.188.64.37.96.553v1.281c0 .083-.022.105-.077.066Zm.584-1.044-.513-.298c0-.431 0-.867-.005-1.298 0-.055.016-.066.06-.044.133.077.265.155.403.232.033.022.055.044.055.099v1.309Zm.006-2.159c0 .072-.017.094-.072.055a6.098 6.098 0 0 0-.37-.215c-.055-.028-.077-.061-.071-.138.005-.161 0-.332 0-.492 0-.072-.017-.11-.072-.144-.127-.066-.254-.149-.38-.215-.05-.028-.072-.061-.072-.133v-.513c0-.072.022-.072.066-.044.132.077.265.149.392.226.038.022.06.022.06-.039v-.607c-.32-.205-.634-.37-.954-.558-.06-.033-.082-.072-.082-.155.005-.16.005-.326 0-.497 0-.072.016-.083.071-.055.122.077.248.144.37.215.055.034.077.028.077-.05-.006-.894.011-1.767-.006-2.667-.143-.083-.286-.171-.43-.243-.066-.033-.082-.072-.082-.155.005-.188 0-.376 0-.574.347.198.683.397 1.036.596v-.552c0-.138 0-.138.105-.077.116.066.226.132.342.193.055.033.072.066.072.144v1.275c.176.1.347.2.512.299 0 .237-.005.475-.005.707-.017-.017-.033-.034-.05-.044-.325-.183-.65-.387-.97-.553v.68c.138.077.27.154.402.231.111.061.111.061.111.205v1.928c.319.182.634.37.954.552.06.033.082.066.077.143a6.27 6.27 0 0 0 0 .475c0 .089-.017.105-.083.067-.32-.188-.629-.365-.948-.553 0 .431-.006.857 0 1.282Zm2.056 2.668c-.49-.282-.976-.564-1.466-.845-.061-.034-.083-.067-.083-.155 0-.613.005-1.232 0-1.85 0-.094.022-.1.088-.061.458.27.916.536 1.379.795.066.039.082.072.082.16v1.956Zm-8.695-7.783c-.05-.027-.072-.06-.072-.132v-1.199c0-.072.016-.083.072-.055.297.177.601.348.898.519.056.033.067.066.067.133v.602c.314.182.628.364.948.546.061.034.083.034.083-.055-.006-.193 0-.386 0-.58-.342-.232-.684-.392-1.031-.613v-.59c0-.067-.017-.1-.067-.128-.126-.072-.253-.149-.38-.215-.055-.033-.072-.067-.072-.144v-1.276c-.32-.182-.634-.37-.948-.547-.066-.038-.088-.077-.088-.165a7.522 7.522 0 0 0 0-.475c0-.089.016-.1.082-.061.491.282.976.58 1.467.845v-1.303c0-.056-.022-.078-.055-.1a24.08 24.08 0 0 0-.403-.232c-.044-.028-.055-.011-.055.044v.613c-.121-.072-.231-.132-.342-.199-.176-.104-.176-.104-.176-.342v-.447c-.149-.089-.292-.16-.43-.249-.072-.044-.088-.022-.088.072 0 .42.011.84-.006 1.254-.342-.2-.678-.392-1.015-.586-.016.194 0 .398-.005.597 0 .077.022.11.077.138.127.066.254.144.381.215.044.028.06.061.06.122v.513c0 .078-.022.078-.071.05-.122-.072-.243-.138-.364-.21-.067-.038-.083-.022-.083.061.005.425-.006.84.005 1.27.155.089.293.166.447.26.022.011.061.066.061.083.005.215 0 .425 0 .646-.177-.1-.337-.193-.508-.293v.685c.149.089.293.171.436.254.055.028.072.067.066.133-.005.171 0 .342 0 .514 0 .06.017.094.061.121.132.072.265.15.391.227.05.027.061.01.061-.05 0-.199-.005-.403.006-.597.17.1.336.194.507.293.005.204.005.392.005.591 0 .066.011.105.067.138.126.072.259.144.386.221.055.033.071.017.066-.055V97.8a6.077 6.077 0 0 0-.441-.27Zm-.585-.337c-.165-.094-.32-.182-.474-.276a.147.147 0 0 1-.039-.077c-.005-.205 0-.409 0-.63.166.094.315.182.463.27a.15.15 0 0 1 .045.084c.005.204.005.408.005.63Zm.447-1.811c-.105-.061-.204-.122-.309-.177-.149-.088-.132-.1-.132.1v.425c0 .066-.017.082-.067.05-.126-.078-.259-.15-.386-.222-.049-.027-.066-.06-.066-.127v-1.176c0-.078.011-.1.077-.066l.883.513c.049.028.071.061.071.133a8.422 8.422 0 0 0 0 .502c0 .067-.022.078-.071.045Zm7.902.441c1.169.68 2.338 1.354 3.507 2.028v-4.679c0-.143 0-.143-.105-.204-1.136-.657-2.267-1.315-3.402-1.967-.1-.055-.1-.055-.1.072v4.557c0 .133 0 .133.1.194Zm.507-3.844c.799.464 1.599.928 2.399 1.386.077.045.093.094.093.188-.005.53 0 1.06 0 1.597v1.596c0 .1-.022.11-.093.066-.8-.464-1.6-.928-2.399-1.386-.066-.039-.088-.072-.088-.172v-3.209c-.006-.093.016-.105.088-.066Zm-9.793-1.524c1.141.657 2.277 1.314 3.418 1.977.1.055.1.055.1-.077v-4.557c0-.133 0-.133-.1-.188-1.169-.668-2.338-1.359-3.507-2.021-.011 1.557 0 3.126-.005 4.689 0 .094.022.132.094.177Zm.424-3.784c0-.083.022-.1.083-.06.805.469 1.61.933 2.421 1.397.066.038.077.077.077.16v3.22c0 .088-.022.1-.088.066-.805-.469-1.611-.933-2.41-1.397-.061-.033-.083-.072-.083-.155v-3.23Zm3 13.334c-1.169-.674-2.344-1.354-3.513-2.027-.011 1.557 0 3.131-.005 4.694 0 .1.022.133.094.177 1.174.674 2.343 1.353 3.518 2.033v-4.695c0-.1-.022-.138-.094-.182Zm-.507 3.838c-.8-.464-1.605-.928-2.405-1.391-.071-.039-.088-.083-.088-.172v-3.203c0-.094.017-.116.094-.072.403.237.805.47 1.208.701.397.232.794.464 1.196.691.066.038.083.077.083.166v3.22c0 .094-.028.099-.088.06Zm9.876-4.623c-.171-.1-.337-.193-.508-.292v-.597c0-.066-.016-.1-.066-.127-.127-.072-.259-.144-.386-.22-.05-.034-.066-.012-.066.054v.514c0 .066.016.1.066.127.127.072.254.15.381.215.06.034.071.067.071.144a8.238 8.238 0 0 0 0 .497c0 .078-.022.083-.077.05-.32-.188-.634-.365-.954-.552v.646c0 .016.039.072.055.083.116.071.237.138.353.21.099.055.099.055.099.193v1.143c0 .072.017.111.072.144.121.066.243.143.364.21.061.033.083.071.077.149a6.842 6.842 0 0 0 0 .453c.006.099-.016.127-.094.077-.314-.193-.623-.353-.937-.547v-1.259c0-.083-.022-.122-.083-.155-.121-.066-.242-.132-.364-.21-.06-.033-.077-.027-.077.056.006.43-.005.845.006 1.275.171.094.336.199.502.31.005.232.011.453.011.685.148.088.286.171.419.243.082.038.099.088.093.188-.005.154 0 .314 0 .475 0 .055.011.093.061.121.132.072.265.149.392.227.044.027.06.016.06-.045v-.475c0-.132 0-.132.099-.072.138.078.271.155.408.238.023-.646 0-1.326.012-1.983 0-.066-.023-.094-.067-.116-.126-.072-.253-.149-.38-.215-.055-.033-.077-.072-.072-.144a6.863 6.863 0 0 0 0-.497c0-.072.017-.083.072-.05.116.072.237.133.353.21.066.044.094.033.094-.061.005-.475.022-.889.011-1.32Zm-8.25-1.314c0-.166 0-.332.006-.497 0-.2 0-.2.149-.11.121.071.237.137.364.21v-1.37c-.166-.1-.331-.194-.491-.288-.011-.005-.017 0-.028.006.006.016.006.027.006.044v1.243c0 .06-.022.06-.061.038-.132-.077-.259-.154-.391-.226-.05-.028-.066-.061-.066-.127v-.503c0-.066-.017-.105-.067-.132l-.893-.514c-.05-.028-.072-.022-.072.05.006.17.006.337 0 .502 0 .072.017.105.072.133.127.072.254.149.375.215.055.028.072.066.072.133v.602c.342.182.683.386 1.025.59Zm7.819 10.71c.122.077.249.143.37.215.05.028.066.017.066-.05v-.524c0-.056-.016-.089-.055-.111-.132-.077-.265-.149-.403-.232-.049-.027-.06-.005-.06.055v.503c0 .077-.022.088-.077.055-.122-.077-.249-.143-.37-.215-.05-.033-.072-.022-.072.05v1.193c0 .077.022.11.078.138.143.083.292.165.435.254.149.088.303.171.452.265.044.027.067.022.061-.044v-.525c0-.066-.022-.099-.066-.122-.127-.071-.254-.149-.381-.215-.049-.028-.071-.066-.071-.133 0-.16.005-.32 0-.486.011-.088.027-.11.093-.071Zm-8.331-8.948c0 .005 0 .005 0 0Zm.512-5.143a.394.394 0 0 0-.011-.077c-.154-.088-.303-.177-.457-.265-.05-.028-.05.011-.05.055v1.199c0 .077.022.11.077.138.144.088.292.144.43.27a.297.297 0 0 0 .011-.071c.006-.409.006-.829 0-1.249Zm.513 6.424c.006.006 0 .006 0 0 .006.006.006 0 0 0Zm-.061-.723-.964-.553v.591c0 .078.022.111.071.138.32.183.634.365.954.547 0-.199 0-.403.006-.602 0-.066-.017-.094-.067-.121Zm-1.532-5.712a15.397 15.397 0 0 1-.409-.237c-.038-.022-.055-.017-.055.039v.552c0 .06.022.088.061.11.066.039.138.078.204.116.066.039.132.083.199.11.022.012.049-.01.055-.038.005-.182 0-.37.005-.552-.005-.044-.022-.078-.06-.1Zm-3.094-3.159a15.92 15.92 0 0 0-.408-.237c-.017-.011-.05.005-.05.027-.005.205 0 .409 0 .624.166.094.32.188.469.27.017.007.039-.016.039-.038.005-.182.005-.364 0-.552a.19.19 0 0 0-.05-.094Zm4.687 2.022c.006 0 .006 0 0 0Zm-.513.303c0 .056.011.094.061.122.132.072.265.149.397.232.039.022.061.016.055-.044 0-.205 0-.409-.005-.613l-.513-.299c.005.205.011.403.005.602Zm-1.086-.546c-.132-.078-.265-.15-.397-.232-.044-.028-.055-.011-.055.044v.541c0 .055.016.077.055.1.138.077.27.154.408.237.039.022.055.011.055-.039v-.541c-.005-.055-.022-.083-.066-.11Zm-1.483 3.976v.685l.513.299v-.685c-.166-.1-.337-.2-.513-.299Zm2.569-5.407c0 .005 0 .005 0 0Zm-.457-.956c-.044-.027-.055-.01-.055.045 0 .176.005.348 0 .524 0 .072.022.105.071.133.149.083.292.171.441.254v-.685a19.868 19.868 0 0 1-.457-.27Zm.016 1.387c-.049-.033-.071-.022-.071.05.005.17.005.337 0 .502 0 .072.016.105.071.133.149.083.298.171.447.254v-.685a8.553 8.553 0 0 1-.447-.254Zm6.573 5.175a28.735 28.735 0 0 0-.402-.232c-.039-.022-.061-.016-.061.044v.547c0 .022.022.078.039.089.154.093.308.182.474.276v-.624c.011-.056-.011-.078-.05-.1Zm-6.644 4.485v.569c0 .022.022.066.038.077.155.094.309.183.469.277v-.691c-.149-.083-.298-.165-.441-.254-.033-.022-.066-.044-.066.022Zm5.624 1.817c-.066-.044-.138-.082-.204-.121-.066-.039-.138-.077-.204-.116-.033-.022-.055-.022-.055.033v.558c0 .022.033.077.049.088.138.083.276.166.414.238.017.011.044-.017.044-.039.006-.182.006-.37 0-.552a.167.167 0 0 0-.044-.089Zm-5.189-4.374c.061.039.083.028.083-.055-.006-.194 0-.387 0-.58.171.1.342.193.513.292v-.684c-.177-.105-.348-.2-.513-.299v.68a9.21 9.21 0 0 1-.441-.26c-.055-.033-.072-.017-.072.055.006.2 0 .392 0 .591-.513-.298-1.026-.59-1.538-.889 0 .199 0 .403-.006.602 0 .066.022.094.066.122.491.281.987.569 1.478.85v-.685c.138.089.287.171.43.26Zm5.84-4.203c.485.276.97.557 1.455.84.017-.642 0-1.299.006-1.945 0-.1-.022-.138-.094-.177-.485-.27-.97-.574-1.456-.834v1.944c0 .1.022.133.089.172Zm-9.369-5.518c0 .077.017.116.077.149.232.132.469.27.701.403l.689.398c.06.033.083.033.083-.055v-1.867c0-.078-.017-.11-.072-.144l-1.406-.812c-.055-.033-.072-.016-.072.06v1.868Zm1.461 11.273c-.485-.276-.97-.558-1.455-.84-.017.641 0 1.298-.006 1.939 0 .094.017.138.094.177.485.271.97.569 1.456.834v-1.944c0-.089-.017-.127-.089-.166Z"/><path fill="#BA68C8" d="m204.931 52.078-4.351-.817-13.03 7.534 1.418 2.513-15.402 8.915.293.171 15.577-9.02-1.411-2.513 12.671-7.33 4.351.818 15.247-8.804-.304-.177-15.059 8.71Z"/></svg>